<svg xmlns="http://www.w3.org/2000/svg" width="898" height="898" viewBox="0 0 898 898">
<path d="M 611 775 L 604 777 L 605 785 L 589 800 L 526 800 L 522 788 L 521 796 L 526 801 L 588 801 L 606 786 L 607 778 L 611 778 Z " fill="#030105" fill-rule="evenodd"/>
<path d="M 384 774 L 377 776 L 377 799 L 315 801 L 376 801 L 381 793 L 384 793 L 383 784 L 380 783 Z " fill="#030105" fill-rule="evenodd"/>
<path d="M 233 799 L 217 783 L 214 768 L 211 782 L 203 775 L 203 778 L 210 783 L 224 808 L 221 811 L 188 811 L 157 771 L 152 770 L 152 784 L 154 786 L 154 777 L 158 775 L 171 791 L 174 800 L 188 813 L 220 815 L 225 808 L 225 800 Z " fill="#030105" fill-rule="evenodd"/>
<path d="M 554 764 L 554 774 L 557 776 L 559 774 L 555 771 L 555 766 L 559 763 L 569 763 L 573 767 L 570 773 L 564 775 L 574 774 L 572 762 Z " fill="#030105" fill-rule="evenodd"/>
<path d="M 724 742 L 722 800 L 726 804 L 732 804 L 724 799 Z " fill="#030105" fill-rule="evenodd"/>
<path d="M 759 728 L 757 789 L 762 794 L 758 786 Z " fill="#030105" fill-rule="evenodd"/>
<path d="M 523 728 L 521 736 L 518 739 L 514 737 L 519 748 L 516 762 L 472 761 L 470 742 L 475 737 L 468 741 L 464 738 L 456 748 L 465 756 L 466 768 L 469 764 L 514 765 L 519 761 L 521 763 Z " fill="#030105" fill-rule="evenodd"/>
<path d="M 299 717 L 301 779 L 302 766 L 307 768 L 305 752 L 304 761 L 301 760 Z " fill="#030105" fill-rule="evenodd"/>
<path d="M 698 703 L 697 714 L 692 714 L 696 722 L 696 781 L 689 790 L 695 786 L 698 777 Z " fill="#030105" fill-rule="evenodd"/>
<path d="M 218 702 L 209 714 L 214 721 L 214 731 L 214 720 L 218 714 L 213 709 L 219 707 Z " fill="#030105" fill-rule="evenodd"/>
<path d="M 405 512 L 401 513 L 390 527 L 405 516 Z " fill="#030105" fill-rule="evenodd"/>
<path d="M 309 426 L 304 437 L 314 450 L 320 439 L 319 431 L 313 443 Z " fill="#030105" fill-rule="evenodd"/>
<path d="M 623 411 L 624 424 L 629 426 L 629 414 Z " fill="#030105" fill-rule="evenodd"/>
<path d="M 482 355 L 470 374 L 468 393 L 489 420 L 503 424 L 506 422 L 482 402 L 481 379 L 487 366 L 510 352 L 528 352 L 536 358 L 543 359 L 552 370 L 556 391 L 550 407 L 538 417 L 528 418 L 523 422 L 511 421 L 509 424 L 541 422 L 559 407 L 560 400 L 565 395 L 565 374 L 561 369 L 561 363 L 549 349 L 540 345 L 510 345 L 505 349 L 497 349 Z " fill="#030105" fill-rule="evenodd"/>
<path d="M 213 250 L 209 249 L 199 257 L 160 271 L 169 271 L 185 265 Z " fill="#030105" fill-rule="evenodd"/>
<path d="M 447 191 L 439 209 L 441 211 L 450 207 L 455 211 L 459 205 L 454 196 Z " fill="#030105" fill-rule="evenodd"/>
<path d="M 471 163 L 457 175 L 457 185 L 468 197 L 483 197 L 492 187 L 492 172 L 484 163 Z M 473 169 L 482 169 L 489 176 L 489 184 L 480 194 L 471 193 L 464 185 L 465 176 Z " fill="#030105" fill-rule="evenodd"/>
<path d="M 417 157 L 408 165 L 408 185 L 416 193 L 429 193 L 439 185 L 443 167 L 429 157 Z " fill="#030105" fill-rule="evenodd"/>
<path d="M 363 149 L 352 171 L 354 183 L 360 188 L 372 188 L 380 183 L 387 184 L 391 188 L 390 198 L 402 211 L 397 218 L 369 212 L 359 220 L 358 233 L 362 239 L 362 250 L 371 262 L 387 260 L 393 254 L 393 249 L 408 238 L 414 241 L 415 246 L 423 254 L 439 261 L 464 260 L 480 249 L 488 238 L 502 244 L 506 255 L 515 262 L 526 262 L 536 253 L 536 240 L 541 232 L 540 220 L 528 212 L 521 212 L 513 218 L 502 218 L 498 214 L 509 197 L 508 189 L 512 184 L 520 184 L 529 189 L 539 188 L 546 179 L 546 168 L 529 143 L 516 143 L 504 152 L 483 131 L 469 129 L 483 136 L 497 149 L 505 164 L 505 193 L 490 210 L 479 214 L 467 229 L 462 223 L 462 227 L 456 232 L 458 241 L 463 231 L 470 239 L 470 233 L 477 233 L 480 217 L 486 219 L 479 241 L 469 251 L 459 255 L 436 255 L 422 245 L 419 235 L 414 230 L 415 215 L 420 216 L 424 233 L 429 226 L 432 229 L 432 240 L 437 230 L 442 231 L 445 241 L 451 228 L 445 230 L 436 224 L 426 224 L 415 208 L 407 206 L 396 197 L 394 162 L 403 146 L 413 137 L 430 128 L 467 127 L 465 124 L 434 121 L 429 128 L 418 129 L 405 138 L 393 152 L 381 142 L 371 142 Z M 489 219 L 492 216 L 498 220 L 516 220 L 521 216 L 533 218 L 537 222 L 537 232 L 530 237 L 523 236 L 532 244 L 530 252 L 525 256 L 515 257 L 509 251 L 507 242 L 489 232 Z M 361 223 L 369 216 L 377 216 L 382 220 L 399 220 L 406 217 L 409 220 L 409 231 L 390 244 L 387 254 L 372 256 L 366 250 L 366 244 L 374 236 L 364 236 L 361 232 Z M 518 145 L 527 145 L 536 152 L 534 163 L 543 169 L 543 178 L 536 185 L 529 185 L 522 180 L 512 180 L 509 177 L 511 161 L 508 154 Z M 380 145 L 390 157 L 390 176 L 387 179 L 378 179 L 370 185 L 362 185 L 355 177 L 355 169 L 359 164 L 365 163 L 363 153 L 366 149 Z " fill="#030105" fill-rule="evenodd"/>
<path d="M 76 62 L 47 96 L 34 125 L 29 156 L 29 735 L 33 761 L 40 780 L 51 800 L 67 820 L 100 846 L 122 856 L 146 862 L 739 863 L 779 855 L 820 830 L 836 814 L 850 794 L 863 764 L 868 734 L 868 155 L 864 129 L 857 110 L 837 78 L 816 58 L 792 43 L 764 33 L 736 30 L 146 31 L 112 40 Z M 588 852 L 597 844 L 615 845 L 616 848 L 612 855 L 611 852 Z M 280 847 L 284 843 L 307 847 L 308 852 L 283 855 Z M 660 844 L 659 851 L 652 853 L 622 853 L 619 850 L 622 841 L 652 840 Z M 454 848 L 458 840 L 485 840 L 490 848 L 495 841 L 566 841 L 569 844 L 565 853 L 547 855 L 457 853 Z M 442 843 L 442 850 L 439 853 L 330 854 L 328 844 L 331 841 L 439 840 Z M 277 843 L 277 850 L 274 853 L 241 853 L 238 850 L 241 841 L 274 840 Z M 522 628 L 525 631 L 525 640 L 519 664 L 515 667 L 512 664 L 512 655 Z M 598 619 L 601 622 L 598 662 L 594 665 L 563 667 L 563 660 L 589 637 L 593 622 Z M 296 620 L 300 617 L 303 620 L 303 628 L 307 635 L 338 665 L 336 667 L 302 666 L 298 662 Z M 34 665 L 36 659 L 43 654 L 83 643 L 90 644 L 98 639 L 170 617 L 182 610 L 210 645 L 220 661 L 219 666 L 108 669 L 96 673 L 794 674 L 801 671 L 713 668 L 704 665 L 679 667 L 676 663 L 708 615 L 716 610 L 760 628 L 860 657 L 864 664 L 865 707 L 850 764 L 845 769 L 840 769 L 828 759 L 823 689 L 812 676 L 806 675 L 817 689 L 818 700 L 817 814 L 805 830 L 789 834 L 105 834 L 92 829 L 78 813 L 79 690 L 90 672 L 74 688 L 71 762 L 61 769 L 50 769 L 42 750 L 43 744 L 37 722 Z M 490 582 L 505 584 L 505 611 L 502 614 L 495 614 L 492 611 L 492 596 L 487 592 L 487 585 Z M 569 565 L 576 573 L 576 617 L 572 622 L 569 619 L 567 607 L 567 622 L 569 621 L 572 627 L 566 631 L 566 644 L 550 661 L 526 666 L 523 658 L 527 654 L 529 631 L 532 628 L 564 625 L 528 625 L 525 619 L 525 603 L 542 582 Z M 323 564 L 328 562 L 333 566 L 345 589 L 363 603 L 367 618 L 375 625 L 388 628 L 396 637 L 404 638 L 418 646 L 426 646 L 431 650 L 466 650 L 470 646 L 479 646 L 487 642 L 492 636 L 502 636 L 505 642 L 505 664 L 502 667 L 375 667 L 346 658 L 323 637 Z M 489 523 L 527 523 L 530 526 L 531 562 L 524 572 L 489 572 L 482 563 L 482 534 Z M 578 489 L 580 519 L 577 523 L 577 542 L 570 551 L 540 565 L 539 547 L 556 540 L 570 527 L 570 497 Z M 613 488 L 671 517 L 730 562 L 729 573 L 700 609 L 679 641 L 655 668 L 634 668 L 631 665 L 644 644 L 627 666 L 616 667 L 612 663 L 613 606 L 617 593 L 601 568 L 605 517 L 611 513 L 662 539 L 604 503 Z M 283 488 L 293 503 L 282 513 L 279 512 L 236 538 L 284 512 L 291 515 L 296 566 L 284 584 L 280 597 L 284 608 L 285 663 L 281 667 L 271 667 L 258 653 L 266 665 L 263 668 L 241 668 L 200 618 L 167 571 L 166 563 L 174 554 L 224 518 Z M 561 462 L 567 468 L 567 494 L 562 499 L 562 522 L 549 533 L 538 535 L 535 532 L 538 468 L 541 465 Z M 599 434 L 602 437 L 602 449 L 606 453 L 606 476 L 593 490 L 590 478 L 590 446 Z M 469 431 L 476 431 L 479 434 L 478 444 L 471 445 L 465 439 Z M 618 358 L 640 374 L 640 420 L 636 425 L 633 446 L 625 456 L 614 459 L 608 447 L 609 371 L 614 366 L 613 361 Z M 275 353 L 280 357 L 283 396 L 287 401 L 287 438 L 280 458 L 273 458 L 260 444 L 260 414 L 255 409 L 255 370 Z M 297 368 L 313 369 L 318 373 L 318 389 L 330 420 L 338 428 L 356 439 L 379 441 L 395 435 L 415 416 L 425 387 L 425 363 L 445 347 L 450 348 L 450 363 L 453 368 L 452 445 L 455 450 L 455 461 L 447 470 L 426 471 L 416 462 L 416 456 L 413 456 L 402 468 L 406 470 L 413 464 L 420 469 L 416 471 L 424 470 L 427 476 L 454 475 L 463 470 L 490 490 L 494 515 L 491 518 L 486 518 L 478 506 L 466 506 L 461 495 L 457 509 L 478 509 L 479 518 L 472 525 L 419 527 L 469 528 L 472 531 L 472 578 L 478 593 L 488 595 L 488 618 L 485 621 L 477 621 L 472 614 L 470 628 L 466 631 L 463 628 L 463 600 L 459 599 L 456 635 L 449 627 L 440 635 L 435 624 L 425 631 L 410 621 L 409 612 L 405 620 L 398 618 L 398 599 L 394 600 L 394 610 L 391 612 L 373 602 L 372 577 L 367 586 L 356 580 L 357 566 L 354 570 L 348 569 L 347 546 L 342 553 L 333 547 L 332 525 L 327 536 L 319 528 L 316 521 L 316 499 L 303 486 L 302 474 L 296 470 Z M 324 353 L 338 340 L 379 344 L 399 351 L 414 352 L 417 355 L 417 384 L 408 410 L 396 412 L 392 420 L 385 420 L 379 413 L 371 410 L 363 401 L 362 390 L 353 385 L 353 353 L 350 346 L 342 348 L 343 385 L 347 396 L 344 398 L 338 388 L 332 390 L 323 383 Z M 527 307 L 560 317 L 563 320 L 563 341 L 566 343 L 569 340 L 568 326 L 571 323 L 589 335 L 600 366 L 600 413 L 593 430 L 584 442 L 584 461 L 574 469 L 570 461 L 561 454 L 546 457 L 533 464 L 530 461 L 527 438 L 528 502 L 522 510 L 510 510 L 506 513 L 502 508 L 500 493 L 495 483 L 477 466 L 469 463 L 461 449 L 464 443 L 471 448 L 479 446 L 482 443 L 481 433 L 476 428 L 468 428 L 461 439 L 456 437 L 457 401 L 465 395 L 459 392 L 459 363 L 455 358 L 455 342 L 503 307 Z M 480 305 L 477 310 L 423 347 L 378 337 L 336 332 L 314 352 L 303 351 L 300 348 L 300 337 L 305 332 L 336 314 L 354 308 L 403 300 L 470 300 Z M 96 265 L 99 262 L 124 259 L 179 242 L 234 211 L 261 181 L 271 174 L 280 158 L 312 120 L 324 111 L 326 105 L 372 70 L 388 64 L 415 64 L 418 67 L 418 88 L 426 99 L 439 109 L 458 109 L 473 95 L 461 106 L 447 108 L 437 107 L 426 97 L 425 92 L 428 89 L 465 88 L 474 93 L 479 88 L 479 67 L 482 64 L 508 64 L 532 74 L 568 102 L 602 138 L 626 174 L 662 211 L 668 212 L 685 225 L 724 245 L 749 251 L 754 255 L 799 262 L 802 265 L 802 286 L 792 290 L 791 301 L 786 305 L 779 321 L 743 359 L 703 389 L 671 405 L 656 408 L 655 390 L 687 376 L 724 349 L 764 303 L 772 286 L 771 279 L 748 275 L 699 258 L 727 271 L 767 281 L 769 289 L 735 332 L 695 363 L 687 364 L 680 353 L 668 354 L 677 372 L 673 377 L 658 381 L 655 377 L 655 358 L 606 321 L 577 306 L 518 290 L 422 286 L 381 289 L 328 303 L 295 319 L 241 356 L 241 381 L 238 384 L 221 375 L 221 367 L 227 354 L 215 354 L 210 364 L 202 364 L 179 349 L 149 317 L 147 311 L 142 309 L 140 302 L 132 295 L 129 284 L 156 273 L 126 279 L 125 285 L 132 296 L 132 301 L 173 348 L 206 374 L 242 391 L 242 405 L 236 408 L 216 401 L 185 384 L 141 346 L 141 343 L 117 320 L 117 314 L 106 301 L 106 292 L 96 287 Z M 44 111 L 52 109 L 51 103 L 57 101 L 72 82 L 74 69 L 82 72 L 87 64 L 91 64 L 88 58 L 90 56 L 100 59 L 113 50 L 119 41 L 130 45 L 133 41 L 147 40 L 137 38 L 139 34 L 220 33 L 225 37 L 233 33 L 302 33 L 307 36 L 318 36 L 322 33 L 349 33 L 355 36 L 369 33 L 546 36 L 670 34 L 674 37 L 693 37 L 705 33 L 725 37 L 731 33 L 750 33 L 759 36 L 760 42 L 767 38 L 770 44 L 781 41 L 789 50 L 795 48 L 818 64 L 814 70 L 816 72 L 822 71 L 835 80 L 834 91 L 837 95 L 840 93 L 843 96 L 843 102 L 847 102 L 846 108 L 851 113 L 851 122 L 859 122 L 857 137 L 864 138 L 866 151 L 866 630 L 862 649 L 811 636 L 726 606 L 720 598 L 740 568 L 740 559 L 696 525 L 665 505 L 641 494 L 617 477 L 618 471 L 627 468 L 640 456 L 647 443 L 647 426 L 650 422 L 686 412 L 726 391 L 774 351 L 799 318 L 814 288 L 814 264 L 805 254 L 789 254 L 729 238 L 673 206 L 642 177 L 583 104 L 558 81 L 535 65 L 510 56 L 480 56 L 475 60 L 474 77 L 471 80 L 426 80 L 423 77 L 423 62 L 419 57 L 387 56 L 360 66 L 330 89 L 288 133 L 255 177 L 221 208 L 178 233 L 109 254 L 93 254 L 83 262 L 83 289 L 98 318 L 127 355 L 159 383 L 211 413 L 246 422 L 250 426 L 250 442 L 255 453 L 281 476 L 258 492 L 212 517 L 157 558 L 156 566 L 161 577 L 177 598 L 172 605 L 105 630 L 32 650 L 31 202 L 35 191 L 36 158 L 31 152 L 38 147 L 39 136 L 45 123 Z " fill="#030105" fill-rule="evenodd"/>
<path d="M 58 39 L 35 63 L 14 99 L 4 132 L 1 158 L 2 752 L 14 796 L 26 819 L 48 847 L 78 871 L 108 886 L 139 894 L 165 896 L 750 895 L 776 890 L 800 881 L 821 870 L 844 852 L 868 824 L 883 796 L 892 768 L 896 735 L 895 145 L 885 103 L 875 82 L 859 59 L 827 30 L 798 14 L 770 5 L 736 1 L 160 1 L 130 4 L 101 13 Z M 839 42 L 864 69 L 881 98 L 893 143 L 894 195 L 893 748 L 889 771 L 878 802 L 854 838 L 829 861 L 797 880 L 778 887 L 742 893 L 150 893 L 107 883 L 79 869 L 58 853 L 34 827 L 19 802 L 9 775 L 4 749 L 4 147 L 15 101 L 45 55 L 70 32 L 119 9 L 144 4 L 740 3 L 769 7 L 801 17 Z " fill="#030105" fill-rule="evenodd"/>
<path d="M 589 852 L 611 851 L 614 855 L 615 847 L 597 845 Z " fill="#070021" fill-rule="evenodd"/>
<path d="M 281 847 L 283 854 L 308 851 L 306 847 L 299 848 L 289 844 Z " fill="#070021" fill-rule="evenodd"/>
<path d="M 493 845 L 534 843 L 533 846 L 526 845 L 515 852 L 507 853 L 521 854 L 561 853 L 568 847 L 566 842 L 495 842 Z " fill="#070021" fill-rule="evenodd"/>
<path d="M 329 844 L 331 857 L 334 853 L 389 852 L 364 850 L 361 847 L 365 843 L 373 842 Z " fill="#070021" fill-rule="evenodd"/>
<path d="M 556 766 L 558 776 L 566 776 L 564 773 L 572 769 L 569 764 Z " fill="#070021" fill-rule="evenodd"/>
<path d="M 417 766 L 420 774 L 418 776 L 429 775 L 425 773 L 434 771 L 431 764 Z " fill="#070021" fill-rule="evenodd"/>
<path d="M 649 731 L 651 732 L 644 740 L 644 770 L 648 773 L 659 773 L 659 758 L 663 755 L 660 752 L 659 734 Z " fill="#070021" fill-rule="evenodd"/>
<path d="M 250 728 L 252 730 L 247 734 L 247 768 L 255 773 L 267 773 L 266 748 L 269 732 L 267 733 L 264 728 Z " fill="#070021" fill-rule="evenodd"/>
<path d="M 417 731 L 419 737 L 432 736 L 434 729 L 421 727 Z " fill="#070021" fill-rule="evenodd"/>
<path d="M 574 729 L 573 732 L 570 725 L 558 727 L 557 734 L 563 735 L 556 737 L 569 736 L 567 735 L 572 732 L 574 734 Z " fill="#070021" fill-rule="evenodd"/>
<path d="M 209 713 L 195 730 L 182 740 L 197 770 L 205 775 L 207 780 L 212 781 L 212 771 L 216 768 L 216 761 L 213 760 L 216 727 L 214 732 Z " fill="#070021" fill-rule="evenodd"/>
<path d="M 87 692 L 91 699 L 91 807 L 105 821 L 793 820 L 804 809 L 805 694 L 798 686 L 95 685 Z M 113 790 L 123 783 L 123 720 L 121 727 L 119 714 L 114 713 L 111 706 L 116 697 L 150 695 L 153 706 L 152 721 L 154 719 L 159 724 L 187 695 L 219 695 L 220 707 L 212 709 L 218 715 L 224 711 L 222 713 L 224 707 L 238 698 L 279 699 L 301 717 L 302 760 L 305 751 L 307 752 L 307 701 L 310 698 L 336 698 L 339 701 L 339 736 L 342 737 L 339 745 L 339 742 L 342 771 L 345 775 L 374 773 L 376 776 L 384 773 L 384 701 L 387 698 L 446 697 L 465 715 L 465 738 L 468 740 L 473 736 L 475 739 L 513 739 L 514 736 L 518 738 L 523 727 L 520 724 L 523 720 L 523 701 L 526 698 L 586 698 L 604 715 L 605 733 L 598 745 L 604 756 L 604 776 L 611 774 L 611 718 L 622 707 L 621 705 L 631 698 L 675 698 L 679 702 L 679 699 L 691 713 L 697 713 L 698 702 L 703 699 L 780 699 L 783 702 L 783 725 L 780 728 L 760 728 L 759 786 L 765 797 L 762 802 L 755 805 L 751 804 L 753 802 L 727 802 L 733 804 L 726 805 L 721 800 L 721 746 L 724 738 L 723 740 L 720 728 L 707 728 L 702 731 L 700 725 L 698 783 L 692 790 L 688 790 L 682 799 L 671 799 L 676 802 L 630 802 L 618 789 L 611 787 L 611 779 L 607 779 L 607 786 L 588 802 L 526 802 L 520 796 L 523 787 L 520 769 L 523 762 L 514 766 L 469 765 L 465 768 L 465 789 L 450 802 L 387 802 L 384 794 L 381 794 L 376 802 L 309 800 L 307 769 L 304 767 L 299 779 L 299 774 L 298 787 L 289 792 L 285 799 L 278 802 L 241 803 L 226 800 L 226 808 L 220 816 L 186 813 L 174 801 L 170 791 L 158 776 L 153 787 L 155 800 L 150 805 L 117 803 Z " fill="#070021" fill-rule="evenodd"/>
<path d="M 38 722 L 44 744 L 43 750 L 50 768 L 61 768 L 70 762 L 73 688 L 88 671 L 92 674 L 84 683 L 80 694 L 80 690 L 92 675 L 782 674 L 803 675 L 816 690 L 805 675 L 809 673 L 824 689 L 829 759 L 840 768 L 845 768 L 849 764 L 864 707 L 862 660 L 835 650 L 855 656 L 859 660 L 858 709 L 853 714 L 835 719 L 824 714 L 822 684 L 811 673 L 798 669 L 802 671 L 799 674 L 95 672 L 100 669 L 98 668 L 95 671 L 87 671 L 73 686 L 72 716 L 62 720 L 50 714 L 45 715 L 39 708 L 38 660 L 46 654 L 86 644 L 43 655 L 36 660 Z " fill="#070021" fill-rule="evenodd"/>
<path d="M 297 630 L 299 662 L 302 665 L 330 666 Z " fill="#070021" fill-rule="evenodd"/>
<path d="M 598 620 L 600 629 L 597 636 L 568 665 L 562 664 L 563 666 L 597 662 L 600 629 Z " fill="#070021" fill-rule="evenodd"/>
<path d="M 219 661 L 186 614 L 193 630 L 202 641 L 200 644 L 191 641 L 192 645 L 201 645 L 209 652 L 208 655 L 202 654 L 201 663 L 165 657 L 163 667 L 131 667 L 217 666 Z " fill="#070021" fill-rule="evenodd"/>
<path d="M 677 664 L 766 667 L 735 667 L 730 655 L 725 664 L 724 661 L 714 659 L 698 662 L 695 659 L 708 644 L 706 639 L 711 634 L 711 624 L 716 622 L 709 623 L 711 613 Z " fill="#070021" fill-rule="evenodd"/>
<path d="M 210 582 L 215 589 L 215 595 L 222 601 L 220 592 L 223 588 L 214 588 Z " fill="#070021" fill-rule="evenodd"/>
<path d="M 568 566 L 542 583 L 530 596 L 552 577 L 555 578 L 556 587 L 562 582 L 564 588 L 557 599 L 558 603 L 565 607 L 565 625 L 571 624 L 565 621 L 565 609 L 569 608 L 569 603 L 566 600 L 567 573 L 563 572 Z " fill="#070021" fill-rule="evenodd"/>
<path d="M 619 534 L 615 538 L 620 541 L 615 542 L 618 546 L 622 542 Z " fill="#070021" fill-rule="evenodd"/>
<path d="M 609 514 L 606 517 L 606 534 L 602 543 L 602 568 L 618 593 L 614 606 L 613 663 L 616 666 L 625 666 L 658 628 L 631 650 L 623 645 L 622 640 L 615 639 L 618 582 L 606 569 L 604 551 L 608 540 L 609 517 L 622 520 L 626 530 L 641 532 L 666 545 L 692 565 L 694 574 L 691 560 L 672 549 L 665 540 L 659 540 Z " fill="#070021" fill-rule="evenodd"/>
<path d="M 288 513 L 230 541 L 228 546 L 205 560 L 200 568 L 203 573 L 204 564 L 230 545 L 248 535 L 269 529 L 269 525 L 275 521 L 288 518 L 292 567 L 278 589 L 278 602 L 282 609 L 281 638 L 273 642 L 273 647 L 268 652 L 247 636 L 235 621 L 238 629 L 257 648 L 257 653 L 260 652 L 271 666 L 281 666 L 284 663 L 283 608 L 279 597 L 283 584 L 295 566 L 294 541 L 290 534 Z " fill="#070021" fill-rule="evenodd"/>
<path d="M 652 498 L 696 524 L 741 559 L 741 568 L 721 598 L 726 605 L 736 609 L 724 603 L 722 597 L 742 567 L 741 558 L 695 523 Z " fill="#070021" fill-rule="evenodd"/>
<path d="M 462 445 L 467 460 L 476 465 L 472 462 L 474 455 L 471 452 L 475 449 Z " fill="#070021" fill-rule="evenodd"/>
<path d="M 599 435 L 591 446 L 593 483 L 599 476 L 600 456 L 596 452 L 596 437 Z " fill="#070021" fill-rule="evenodd"/>
<path d="M 592 428 L 579 441 L 583 445 L 583 460 L 575 465 L 570 457 L 561 453 L 544 458 L 561 453 L 571 461 L 574 468 L 583 461 L 583 442 Z " fill="#070021" fill-rule="evenodd"/>
<path d="M 266 382 L 265 437 L 273 444 L 274 418 L 271 418 L 267 411 L 272 406 L 272 393 Z " fill="#070021" fill-rule="evenodd"/>
<path d="M 627 371 L 625 373 L 628 377 L 628 408 L 624 410 L 630 414 L 629 427 L 623 424 L 622 416 L 623 420 L 618 424 L 618 433 L 622 435 L 623 443 L 620 448 L 631 441 L 632 389 L 631 376 Z " fill="#070021" fill-rule="evenodd"/>
<path d="M 528 353 L 503 355 L 485 370 L 482 379 L 482 400 L 489 409 L 506 421 L 504 425 L 511 425 L 508 424 L 510 420 L 494 413 L 487 406 L 486 381 L 488 374 L 505 359 L 530 358 L 545 370 L 548 382 L 545 404 L 537 416 L 548 408 L 553 400 L 555 391 L 551 370 L 543 360 L 536 359 Z " fill="#070021" fill-rule="evenodd"/>
<path d="M 325 353 L 326 386 L 332 389 L 339 387 L 342 395 L 346 396 L 342 385 L 341 348 L 350 345 L 354 353 L 354 385 L 363 390 L 364 401 L 385 419 L 392 419 L 398 410 L 407 410 L 416 384 L 414 353 L 345 341 L 336 342 Z M 385 349 L 407 356 L 404 383 L 395 388 L 391 385 L 389 372 L 397 370 L 400 361 L 382 351 Z " fill="#070021" fill-rule="evenodd"/>
<path d="M 297 289 L 289 290 L 288 297 L 276 305 L 276 309 L 286 305 L 287 299 L 296 298 Z " fill="#070021" fill-rule="evenodd"/>
<path d="M 815 283 L 800 318 L 767 359 L 738 384 L 701 406 L 676 417 L 650 423 L 648 443 L 644 451 L 631 466 L 618 472 L 618 477 L 650 497 L 620 479 L 617 474 L 632 466 L 644 453 L 648 445 L 648 426 L 660 420 L 686 414 L 725 393 L 749 376 L 774 353 L 791 332 L 815 291 Z " fill="#070021" fill-rule="evenodd"/>
<path d="M 691 275 L 686 280 L 688 284 L 695 280 L 696 277 Z " fill="#070021" fill-rule="evenodd"/>
<path d="M 82 269 L 82 291 L 97 319 L 124 354 L 157 383 L 210 414 L 246 423 L 249 426 L 249 444 L 253 453 L 266 467 L 280 475 L 254 493 L 211 516 L 156 557 L 155 567 L 175 597 L 172 604 L 161 609 L 172 604 L 176 598 L 160 577 L 155 566 L 156 558 L 209 518 L 276 480 L 280 474 L 268 468 L 256 456 L 249 442 L 249 426 L 246 423 L 211 414 L 159 384 L 126 355 L 97 318 L 82 289 Z " fill="#070021" fill-rule="evenodd"/>
<path d="M 431 121 L 431 125 L 418 128 L 406 135 L 393 150 L 382 141 L 370 141 L 360 149 L 359 158 L 351 167 L 351 181 L 356 188 L 373 190 L 379 185 L 388 187 L 389 199 L 401 213 L 397 217 L 389 217 L 397 217 L 401 213 L 389 198 L 390 188 L 384 184 L 372 189 L 358 188 L 351 179 L 352 168 L 358 161 L 362 149 L 371 141 L 381 141 L 393 151 L 405 137 L 418 128 L 429 127 Z " fill="#070021" fill-rule="evenodd"/>
<path d="M 538 149 L 529 141 L 516 141 L 504 150 L 487 132 L 466 124 L 467 119 L 463 121 L 468 129 L 483 130 L 504 151 L 516 142 L 529 142 L 535 147 L 535 152 L 533 150 L 535 153 L 538 152 L 540 160 L 547 168 L 547 179 L 539 189 L 529 190 L 520 185 L 512 185 L 509 189 L 510 197 L 499 212 L 502 217 L 513 217 L 521 211 L 528 211 L 541 220 L 542 232 L 537 240 L 537 253 L 526 263 L 511 261 L 505 255 L 504 247 L 488 239 L 472 257 L 461 262 L 439 262 L 426 257 L 414 246 L 413 241 L 408 239 L 394 249 L 394 254 L 387 261 L 371 263 L 361 250 L 357 222 L 369 211 L 386 216 L 378 211 L 365 212 L 357 220 L 361 253 L 370 263 L 386 263 L 395 255 L 395 249 L 410 239 L 416 250 L 425 257 L 439 263 L 462 263 L 476 255 L 491 240 L 504 249 L 504 255 L 511 263 L 527 263 L 537 253 L 537 240 L 542 234 L 542 220 L 530 211 L 519 211 L 512 217 L 503 217 L 500 212 L 510 200 L 510 188 L 513 185 L 526 190 L 539 190 L 545 185 L 547 167 L 541 160 Z " fill="#070021" fill-rule="evenodd"/>
<path d="M 358 104 L 347 117 L 338 120 L 332 132 L 322 137 L 315 152 L 305 160 L 300 173 L 286 188 L 288 189 L 276 199 L 273 207 L 269 207 L 242 233 L 238 232 L 236 236 L 228 239 L 230 240 L 217 249 L 213 248 L 213 251 L 201 259 L 169 272 L 155 272 L 156 275 L 130 284 L 132 293 L 141 302 L 142 308 L 149 312 L 150 317 L 179 348 L 202 363 L 210 363 L 215 353 L 228 354 L 221 373 L 232 381 L 240 381 L 238 372 L 240 356 L 288 322 L 328 302 L 370 290 L 406 286 L 468 285 L 509 288 L 408 285 L 367 290 L 317 305 L 239 354 L 234 352 L 235 347 L 247 335 L 246 318 L 238 317 L 234 324 L 225 321 L 226 334 L 231 332 L 232 337 L 228 338 L 226 346 L 216 351 L 205 339 L 207 328 L 221 318 L 215 307 L 195 307 L 190 303 L 186 304 L 177 318 L 170 315 L 157 300 L 149 300 L 147 290 L 144 296 L 138 295 L 143 285 L 178 271 L 204 274 L 204 265 L 213 255 L 218 254 L 223 247 L 229 246 L 239 235 L 248 232 L 263 215 L 275 211 L 280 206 L 295 180 L 303 173 L 307 161 L 315 155 L 318 147 L 336 130 L 340 122 L 351 115 L 354 106 Z " fill="#070021" fill-rule="evenodd"/>
<path d="M 473 93 L 465 89 L 428 90 L 426 96 L 436 105 L 450 107 L 461 105 Z M 427 93 L 430 90 L 467 90 L 469 95 L 458 106 L 440 106 Z " fill="#070021" fill-rule="evenodd"/>
<path d="M 411 106 L 408 105 L 409 102 L 401 99 L 400 90 L 394 86 L 382 87 L 375 94 L 367 96 L 360 104 L 371 95 L 379 94 L 386 87 L 394 87 L 397 90 L 397 97 Z " fill="#070021" fill-rule="evenodd"/>
<path d="M 497 88 L 497 97 L 494 101 L 500 98 L 502 87 L 511 86 L 541 106 L 546 115 L 555 120 L 560 129 L 572 138 L 579 147 L 578 153 L 592 162 L 596 174 L 620 204 L 649 231 L 676 246 L 692 260 L 727 273 L 739 282 L 750 280 L 761 289 L 759 293 L 749 293 L 742 305 L 730 301 L 723 313 L 714 310 L 706 313 L 701 305 L 691 313 L 679 308 L 676 314 L 666 310 L 662 316 L 657 314 L 642 324 L 642 328 L 650 336 L 655 331 L 659 339 L 653 340 L 661 346 L 660 358 L 647 351 L 614 324 L 582 306 L 551 296 L 511 289 L 552 297 L 598 315 L 656 358 L 658 380 L 673 376 L 676 372 L 667 356 L 669 352 L 680 352 L 687 363 L 693 363 L 701 355 L 707 354 L 725 341 L 764 296 L 768 283 L 711 266 L 698 257 L 691 256 L 668 237 L 653 232 L 613 194 L 606 181 L 600 177 L 594 163 L 587 155 L 584 156 L 578 143 L 560 128 L 555 118 L 548 116 L 542 104 L 536 103 L 525 92 L 518 91 L 511 84 Z M 693 338 L 690 347 L 685 346 L 673 351 L 666 346 L 664 339 L 667 335 L 672 340 L 681 334 L 689 334 Z M 726 328 L 720 337 L 713 332 L 717 327 Z " fill="#070021" fill-rule="evenodd"/>
<path d="M 81 264 L 93 253 L 109 253 L 178 232 L 221 207 L 254 177 L 303 115 L 339 80 L 360 65 L 387 55 L 417 55 L 424 62 L 426 79 L 471 79 L 473 63 L 478 56 L 510 55 L 535 64 L 573 93 L 601 123 L 643 177 L 673 205 L 729 237 L 789 253 L 807 254 L 815 264 L 815 280 L 815 262 L 807 253 L 791 253 L 731 237 L 677 207 L 642 175 L 611 133 L 569 88 L 539 65 L 510 54 L 477 55 L 473 60 L 473 76 L 470 79 L 427 79 L 424 76 L 425 61 L 418 54 L 387 54 L 362 63 L 322 94 L 287 132 L 254 176 L 219 208 L 165 237 L 107 253 L 91 253 Z " fill="#070021" fill-rule="evenodd"/>
<path d="M 45 111 L 46 123 L 40 134 L 39 147 L 32 152 L 37 158 L 36 191 L 32 202 L 33 650 L 158 610 L 79 637 L 44 646 L 39 644 L 39 161 L 44 135 L 57 106 L 71 87 L 95 65 L 124 49 L 145 43 L 411 40 L 751 42 L 772 48 L 800 63 L 833 95 L 849 123 L 858 160 L 858 643 L 848 645 L 818 637 L 738 610 L 827 640 L 862 648 L 865 630 L 865 151 L 862 137 L 856 137 L 858 122 L 853 125 L 850 122 L 850 113 L 845 108 L 845 101 L 842 103 L 842 96 L 837 96 L 833 91 L 834 80 L 822 72 L 816 73 L 813 69 L 817 64 L 795 49 L 788 50 L 781 42 L 772 45 L 764 39 L 765 41 L 760 43 L 759 37 L 750 34 L 731 34 L 725 38 L 697 34 L 693 38 L 674 38 L 670 35 L 139 35 L 139 38 L 148 38 L 147 41 L 133 42 L 130 46 L 126 43 L 117 43 L 113 51 L 100 60 L 90 57 L 91 65 L 85 64 L 87 67 L 80 74 L 74 71 L 76 74 L 73 82 L 58 101 L 52 103 L 52 110 Z " fill="#070021" fill-rule="evenodd"/>
<path d="M 808 805 L 803 814 L 792 823 L 104 823 L 94 815 L 106 825 L 778 824 L 794 822 Z " fill="#39016f" fill-rule="evenodd"/>
<path d="M 87 698 L 86 804 L 92 813 L 88 805 Z " fill="#39016f" fill-rule="evenodd"/>
<path d="M 803 685 L 809 695 L 808 801 L 809 695 Z " fill="#39016f" fill-rule="evenodd"/>
<path d="M 802 665 L 826 686 L 827 704 L 833 713 L 836 714 L 850 704 L 854 697 L 854 680 L 846 671 L 816 663 Z " fill="#39016f" fill-rule="evenodd"/>
<path d="M 96 663 L 77 663 L 45 674 L 42 683 L 44 700 L 63 712 L 69 708 L 71 685 L 86 670 L 95 667 Z M 73 669 L 81 668 L 83 673 L 79 676 Z " fill="#39016f" fill-rule="evenodd"/>
<path d="M 129 652 L 130 662 L 137 666 L 159 664 L 160 655 L 156 649 L 163 647 L 176 658 L 190 657 L 193 654 L 177 631 L 167 635 L 158 635 L 155 631 L 152 637 L 141 641 L 139 638 L 135 640 L 136 643 Z " fill="#39016f" fill-rule="evenodd"/>
<path d="M 705 652 L 706 656 L 713 652 L 722 658 L 732 649 L 741 665 L 764 666 L 769 658 L 769 648 L 760 642 L 759 638 L 752 640 L 748 633 L 750 637 L 746 638 L 721 630 Z M 764 651 L 767 654 L 765 662 L 755 662 Z " fill="#39016f" fill-rule="evenodd"/>
<path d="M 663 547 L 657 552 L 656 559 L 649 565 L 649 569 L 642 574 L 638 587 L 633 592 L 633 603 L 625 615 L 625 621 L 618 626 L 625 632 L 626 641 L 629 643 L 636 635 L 640 635 L 640 630 L 633 633 L 634 630 L 643 626 L 645 616 L 659 606 L 664 594 L 680 586 L 690 575 L 690 568 Z M 669 558 L 678 563 L 686 573 L 678 584 L 671 583 L 665 590 L 661 602 L 646 613 L 643 607 L 647 602 L 646 592 L 651 589 L 651 582 L 661 567 L 662 559 Z " fill="#39016f" fill-rule="evenodd"/>
<path d="M 233 547 L 208 565 L 206 572 L 231 592 L 233 599 L 246 612 L 250 612 L 256 622 L 269 627 L 269 642 L 272 615 L 263 603 L 263 592 L 259 588 L 254 571 L 240 558 L 240 550 Z M 216 563 L 227 558 L 233 561 L 233 566 L 243 577 L 246 588 L 251 593 L 252 611 L 247 612 L 233 598 L 233 593 L 211 575 Z " fill="#39016f" fill-rule="evenodd"/>
<path d="M 217 328 L 209 335 L 217 344 L 221 337 Z " fill="#39016f" fill-rule="evenodd"/>
<path d="M 568 279 L 570 283 L 573 279 L 582 279 L 581 275 L 572 275 Z " fill="#39016f" fill-rule="evenodd"/>
<path d="M 219 258 L 212 263 L 214 281 L 217 283 L 222 272 Z " fill="#39016f" fill-rule="evenodd"/>
<path d="M 606 205 L 604 214 L 598 219 L 598 227 L 609 235 L 615 232 L 617 217 L 615 209 Z " fill="#39016f" fill-rule="evenodd"/>
<path d="M 49 167 L 49 171 L 60 173 L 56 163 Z " fill="#39016f" fill-rule="evenodd"/>
<path d="M 446 99 L 454 103 L 459 99 L 455 95 L 451 100 L 447 95 Z " fill="#39016f" fill-rule="evenodd"/>
<path d="M 663 249 L 650 234 L 633 248 L 633 254 L 626 260 L 622 278 L 611 289 L 611 295 L 618 297 L 622 303 L 622 312 L 618 315 L 607 305 L 601 305 L 589 297 L 551 282 L 549 260 L 556 254 L 556 243 L 570 226 L 576 215 L 576 207 L 582 202 L 581 189 L 586 183 L 589 166 L 581 158 L 573 160 L 571 152 L 575 147 L 570 140 L 564 139 L 554 122 L 548 120 L 538 107 L 534 107 L 522 95 L 517 95 L 509 88 L 503 90 L 502 98 L 479 117 L 491 105 L 503 102 L 504 107 L 497 115 L 500 112 L 504 113 L 501 119 L 497 117 L 498 121 L 503 120 L 508 114 L 510 118 L 505 122 L 501 133 L 496 136 L 485 129 L 506 147 L 514 139 L 531 139 L 540 147 L 542 158 L 549 166 L 550 180 L 538 195 L 528 195 L 514 190 L 512 194 L 521 200 L 521 204 L 509 208 L 504 213 L 507 215 L 516 209 L 530 209 L 543 219 L 543 236 L 539 241 L 538 256 L 526 268 L 521 278 L 515 278 L 508 274 L 507 266 L 494 248 L 488 248 L 479 259 L 462 268 L 446 270 L 422 260 L 408 247 L 399 253 L 387 269 L 379 272 L 383 272 L 384 275 L 376 277 L 375 271 L 360 256 L 360 245 L 355 236 L 355 219 L 365 210 L 380 210 L 389 215 L 397 213 L 388 205 L 379 205 L 376 201 L 383 196 L 382 191 L 368 196 L 362 196 L 355 191 L 349 182 L 350 163 L 357 158 L 358 147 L 367 139 L 381 138 L 391 146 L 413 129 L 404 131 L 397 123 L 406 122 L 406 117 L 397 109 L 397 104 L 404 105 L 412 115 L 420 118 L 396 100 L 393 89 L 387 89 L 382 96 L 376 97 L 355 111 L 351 120 L 345 122 L 341 129 L 328 139 L 323 148 L 324 153 L 312 161 L 315 183 L 321 188 L 320 196 L 328 212 L 328 226 L 337 236 L 344 238 L 340 241 L 344 256 L 348 258 L 347 281 L 341 287 L 324 291 L 274 315 L 247 342 L 258 340 L 313 302 L 357 288 L 420 279 L 479 279 L 533 287 L 538 292 L 550 292 L 583 302 L 614 320 L 647 348 L 652 348 L 641 332 L 624 317 L 632 312 L 632 300 L 638 294 L 636 284 L 639 281 L 656 287 L 666 282 L 665 275 L 660 271 Z M 558 291 L 564 289 L 573 293 L 573 296 L 563 296 Z M 479 276 L 480 273 L 490 272 L 494 275 L 504 275 L 506 280 L 501 283 L 484 280 Z M 465 273 L 470 268 L 480 269 L 478 275 Z M 526 282 L 541 275 L 543 266 L 547 269 L 544 284 L 549 284 L 552 288 L 541 290 Z M 539 263 L 531 275 L 531 267 Z M 416 263 L 420 260 L 435 271 L 434 274 L 437 270 L 437 276 L 432 275 L 432 272 L 423 279 L 416 275 Z M 519 194 L 525 194 L 531 199 L 524 204 Z M 380 192 L 381 197 L 372 206 L 368 201 L 369 197 Z " fill="#39016f" fill-rule="evenodd"/>
<path d="M 98 81 L 107 83 L 126 73 L 127 75 L 134 71 L 139 74 L 138 77 L 135 75 L 134 79 L 133 75 L 129 81 L 133 84 L 132 88 L 128 87 L 127 82 L 122 84 L 126 86 L 125 90 L 121 88 L 121 81 L 117 81 L 117 92 L 114 95 L 113 90 L 100 87 L 99 99 L 91 113 L 97 116 L 84 116 L 83 123 L 95 127 L 100 115 L 105 120 L 98 131 L 92 129 L 95 131 L 90 139 L 87 138 L 89 129 L 84 129 L 80 134 L 77 131 L 65 133 L 65 137 L 70 139 L 73 146 L 78 144 L 82 137 L 87 139 L 84 141 L 87 142 L 87 146 L 82 153 L 75 151 L 79 152 L 75 153 L 76 161 L 69 162 L 68 174 L 65 173 L 61 177 L 62 184 L 57 185 L 56 190 L 47 199 L 51 204 L 46 214 L 50 223 L 45 228 L 51 228 L 51 231 L 45 233 L 42 273 L 45 295 L 42 335 L 44 352 L 41 529 L 45 571 L 44 622 L 50 626 L 44 633 L 45 637 L 50 633 L 53 636 L 50 639 L 66 634 L 76 635 L 71 631 L 71 224 L 75 188 L 82 166 L 96 139 L 106 131 L 107 124 L 124 106 L 151 88 L 185 76 L 206 73 L 339 73 L 341 76 L 333 84 L 348 68 L 352 68 L 360 61 L 389 51 L 418 51 L 428 61 L 428 78 L 435 78 L 428 78 L 428 73 L 469 73 L 469 78 L 470 59 L 476 51 L 510 52 L 531 58 L 551 70 L 558 78 L 557 73 L 690 73 L 710 76 L 752 91 L 775 107 L 800 134 L 820 177 L 826 218 L 826 633 L 823 635 L 845 641 L 854 639 L 855 519 L 851 497 L 855 489 L 852 375 L 855 363 L 855 215 L 852 180 L 854 175 L 851 167 L 850 169 L 851 161 L 845 160 L 841 154 L 845 127 L 831 127 L 829 124 L 832 119 L 824 113 L 828 108 L 823 101 L 811 100 L 782 66 L 774 63 L 770 65 L 768 62 L 772 55 L 765 59 L 754 57 L 740 44 L 186 44 L 175 46 L 173 49 L 167 46 L 159 47 L 155 52 L 147 53 L 148 64 L 137 63 L 135 65 L 139 66 L 129 70 L 114 64 L 112 68 L 107 69 L 110 76 L 106 79 L 103 76 Z M 106 114 L 111 95 L 107 94 L 113 94 L 117 101 L 122 95 L 128 98 L 115 105 L 117 106 L 111 114 Z " fill="#39016f" fill-rule="evenodd"/>
<path d="M 81 693 L 81 811 L 87 819 L 104 831 L 112 831 L 105 831 L 102 828 L 113 825 L 786 825 L 789 828 L 786 831 L 792 826 L 801 826 L 814 811 L 814 788 L 814 809 L 809 808 L 809 702 L 809 807 L 792 824 L 106 826 L 93 816 L 85 804 L 86 694 Z M 84 692 L 85 804 L 92 817 L 88 818 L 81 809 L 81 694 Z " fill="#550299" fill-rule="evenodd"/>
<path d="M 802 677 L 805 679 L 800 682 L 809 694 L 810 689 L 815 693 L 815 719 L 815 691 Z " fill="#550299" fill-rule="evenodd"/>
<path d="M 92 681 L 128 682 L 113 682 L 108 679 L 117 677 L 240 676 L 94 677 Z " fill="#550299" fill-rule="evenodd"/>
<path d="M 764 652 L 760 654 L 761 659 L 756 663 L 764 662 Z " fill="#550299" fill-rule="evenodd"/>
<path d="M 669 559 L 663 559 L 662 567 L 652 582 L 652 589 L 646 593 L 646 612 L 660 602 L 666 587 L 671 582 L 679 582 L 685 572 Z " fill="#550299" fill-rule="evenodd"/>
<path d="M 216 564 L 212 575 L 234 593 L 234 598 L 247 611 L 252 610 L 249 602 L 250 593 L 246 590 L 242 577 L 232 566 L 232 561 L 227 559 Z " fill="#550299" fill-rule="evenodd"/>
<path d="M 480 274 L 484 279 L 501 282 L 505 280 L 504 276 Z " fill="#550299" fill-rule="evenodd"/>
<path d="M 466 271 L 469 274 L 478 274 L 479 269 Z " fill="#550299" fill-rule="evenodd"/>
<path d="M 543 267 L 541 276 L 527 282 L 541 289 L 551 287 L 544 285 L 546 271 Z " fill="#550299" fill-rule="evenodd"/>
<path d="M 417 263 L 419 277 L 423 278 L 432 271 L 433 275 L 437 275 L 437 271 L 436 275 L 433 274 L 435 272 L 420 261 Z " fill="#550299" fill-rule="evenodd"/>
<path d="M 519 195 L 524 203 L 530 199 L 525 195 Z " fill="#550299" fill-rule="evenodd"/>
<path d="M 397 105 L 407 117 L 405 124 L 399 122 L 404 130 L 426 123 L 412 116 L 404 106 Z " fill="#550299" fill-rule="evenodd"/>
<path d="M 503 103 L 491 106 L 484 115 L 472 120 L 472 125 L 498 135 L 504 122 L 509 118 L 506 116 L 501 122 L 496 120 Z " fill="#550299" fill-rule="evenodd"/>
<path d="M 557 74 L 586 101 L 656 187 L 679 206 L 729 234 L 777 248 L 808 251 L 817 260 L 817 292 L 793 333 L 775 355 L 750 377 L 774 360 L 779 350 L 784 348 L 795 334 L 798 335 L 795 340 L 801 349 L 795 353 L 794 347 L 790 348 L 794 349 L 790 352 L 798 359 L 794 368 L 797 371 L 788 371 L 795 379 L 792 382 L 795 381 L 796 385 L 795 379 L 803 370 L 815 372 L 815 378 L 808 376 L 809 388 L 805 388 L 806 393 L 803 396 L 808 392 L 810 396 L 811 392 L 816 395 L 814 403 L 815 400 L 823 405 L 821 417 L 811 417 L 808 411 L 806 415 L 808 426 L 814 427 L 808 436 L 814 438 L 819 432 L 822 439 L 818 440 L 820 443 L 808 449 L 810 453 L 814 453 L 813 459 L 809 460 L 810 472 L 816 469 L 823 473 L 822 479 L 820 478 L 814 486 L 819 484 L 823 489 L 823 505 L 819 512 L 818 506 L 811 512 L 813 518 L 822 513 L 824 517 L 823 543 L 818 546 L 822 545 L 824 553 L 813 558 L 814 562 L 822 566 L 823 571 L 816 576 L 822 577 L 818 580 L 813 579 L 810 584 L 814 586 L 812 598 L 818 598 L 815 584 L 818 583 L 823 588 L 820 593 L 822 605 L 813 607 L 808 603 L 805 606 L 808 609 L 811 627 L 801 628 L 795 624 L 755 614 L 822 635 L 825 218 L 822 189 L 810 153 L 799 134 L 775 108 L 752 92 L 724 81 L 690 74 Z M 819 446 L 822 449 L 822 455 L 819 457 L 812 451 Z M 775 224 L 781 230 L 775 233 L 775 236 L 769 230 L 772 230 Z M 641 160 L 646 160 L 649 166 L 654 166 L 661 160 L 665 162 L 667 169 L 656 172 L 664 181 L 676 178 L 669 178 L 666 175 L 673 162 L 674 165 L 677 162 L 680 164 L 678 172 L 682 174 L 687 168 L 686 182 L 729 178 L 733 182 L 730 190 L 740 199 L 747 195 L 756 197 L 749 202 L 753 204 L 753 210 L 746 208 L 748 219 L 751 216 L 747 215 L 749 213 L 757 213 L 759 220 L 755 224 L 750 223 L 738 228 L 743 226 L 754 230 L 756 226 L 760 227 L 762 239 L 756 241 L 749 238 L 748 234 L 740 233 L 740 230 L 728 232 L 718 225 L 713 225 L 710 219 L 703 219 L 681 207 L 648 176 L 640 163 Z " fill="#550299" fill-rule="evenodd"/>
<path d="M 339 74 L 206 74 L 167 82 L 124 107 L 108 124 L 106 132 L 97 139 L 86 159 L 76 188 L 72 224 L 72 631 L 77 635 L 131 617 L 126 615 L 121 619 L 115 618 L 110 622 L 99 623 L 96 620 L 94 624 L 94 618 L 90 619 L 97 611 L 100 616 L 106 615 L 108 609 L 112 611 L 104 602 L 99 607 L 93 603 L 95 593 L 102 595 L 104 584 L 98 585 L 91 592 L 90 587 L 94 584 L 96 586 L 96 576 L 90 567 L 92 558 L 87 553 L 95 549 L 99 552 L 101 546 L 108 544 L 105 535 L 99 535 L 102 532 L 100 528 L 90 527 L 85 531 L 83 513 L 89 509 L 92 514 L 95 507 L 82 505 L 87 502 L 85 492 L 94 490 L 90 486 L 94 483 L 92 481 L 98 478 L 96 474 L 100 465 L 84 467 L 86 462 L 80 454 L 87 453 L 90 462 L 92 454 L 82 451 L 87 447 L 91 450 L 99 446 L 98 442 L 106 438 L 109 432 L 110 434 L 108 413 L 122 404 L 112 403 L 110 399 L 119 387 L 122 389 L 122 395 L 125 394 L 131 382 L 130 377 L 136 376 L 134 372 L 121 365 L 119 357 L 150 379 L 122 355 L 83 300 L 80 291 L 80 260 L 89 251 L 105 251 L 164 235 L 191 223 L 219 205 L 254 173 L 299 115 L 339 77 Z M 91 568 L 91 576 L 86 576 L 89 584 L 83 580 L 83 574 Z M 197 161 L 202 167 L 193 175 L 191 165 Z M 261 156 L 256 169 L 228 198 L 211 207 L 208 200 L 206 204 L 210 207 L 195 219 L 192 216 L 187 223 L 182 221 L 184 213 L 189 214 L 200 208 L 198 204 L 184 200 L 186 205 L 181 212 L 178 209 L 182 204 L 179 194 L 180 197 L 181 195 L 188 198 L 192 193 L 199 190 L 200 192 L 204 185 L 202 183 L 208 178 L 207 172 L 210 172 L 210 155 L 214 155 L 212 156 L 216 159 L 215 170 L 212 170 L 213 176 L 222 177 L 222 180 L 230 176 L 234 178 L 234 181 L 228 182 L 236 179 L 224 165 L 229 152 L 232 153 L 230 160 L 238 161 L 236 164 L 246 169 L 245 156 L 251 159 L 247 160 L 251 161 L 250 164 Z M 236 143 L 240 143 L 239 160 L 234 159 L 238 158 L 231 147 Z M 305 97 L 308 105 L 294 120 L 288 122 L 287 128 L 280 131 L 280 137 L 271 146 L 270 136 L 265 138 L 261 134 L 262 138 L 266 139 L 267 146 L 271 147 L 268 151 L 264 151 L 260 144 L 253 144 L 246 134 L 247 129 L 255 128 L 258 132 L 264 128 L 266 130 L 267 127 L 268 132 L 273 128 L 276 130 L 280 124 L 278 119 L 282 116 L 281 113 L 285 110 L 286 112 L 283 103 L 285 96 L 294 102 L 290 99 L 296 96 L 300 99 Z " fill="#550299" fill-rule="evenodd"/>
<path d="M 103 829 L 785 831 L 788 828 L 113 826 Z " fill="#7810bb" fill-rule="evenodd"/>
<path d="M 84 693 L 82 809 L 91 817 L 84 804 Z " fill="#7810bb" fill-rule="evenodd"/>
<path d="M 810 690 L 811 810 L 814 787 L 814 693 Z " fill="#7810bb" fill-rule="evenodd"/>
<path d="M 806 648 L 809 654 L 855 669 L 857 667 L 857 661 L 852 657 L 822 648 Z " fill="#7810bb" fill-rule="evenodd"/>
<path d="M 91 650 L 84 646 L 42 659 L 41 667 L 44 669 L 91 653 Z " fill="#7810bb" fill-rule="evenodd"/>
<path d="M 728 621 L 730 625 L 761 638 L 768 637 L 765 631 L 743 628 Z " fill="#7810bb" fill-rule="evenodd"/>
<path d="M 169 621 L 153 628 L 132 631 L 129 637 L 136 638 L 167 625 Z " fill="#7810bb" fill-rule="evenodd"/>
<path d="M 121 358 L 119 361 L 123 362 L 122 365 L 135 372 L 137 376 L 131 377 L 132 382 L 126 394 L 122 396 L 119 392 L 121 389 L 111 399 L 113 403 L 123 404 L 109 413 L 112 426 L 110 435 L 109 433 L 106 439 L 98 443 L 100 446 L 90 451 L 85 447 L 86 450 L 83 451 L 90 451 L 93 454 L 90 463 L 89 457 L 85 456 L 86 453 L 81 454 L 87 462 L 85 467 L 92 463 L 102 466 L 97 471 L 98 479 L 95 479 L 94 485 L 91 486 L 94 492 L 85 494 L 88 500 L 83 505 L 94 505 L 97 510 L 93 510 L 95 513 L 92 515 L 89 510 L 84 513 L 85 530 L 90 526 L 101 528 L 103 532 L 100 535 L 105 534 L 109 540 L 109 544 L 102 546 L 100 552 L 95 550 L 88 554 L 92 557 L 91 567 L 97 577 L 96 587 L 94 585 L 89 589 L 91 591 L 98 584 L 105 584 L 102 596 L 95 594 L 94 603 L 99 606 L 105 601 L 112 607 L 112 612 L 109 609 L 104 617 L 99 616 L 97 612 L 91 617 L 94 617 L 96 622 L 93 623 L 96 624 L 98 620 L 110 621 L 126 614 L 133 616 L 148 608 L 168 604 L 172 597 L 152 568 L 153 556 L 211 513 L 276 477 L 276 473 L 266 470 L 250 453 L 245 425 L 209 416 L 156 386 Z " fill="#7810bb" fill-rule="evenodd"/>
<path d="M 795 335 L 785 348 L 779 351 L 775 360 L 728 394 L 687 416 L 652 425 L 647 452 L 632 469 L 620 476 L 687 515 L 729 544 L 745 559 L 743 572 L 725 597 L 728 603 L 805 628 L 812 626 L 804 606 L 808 602 L 813 606 L 822 604 L 819 593 L 822 587 L 815 585 L 815 588 L 816 586 L 819 589 L 819 598 L 816 600 L 811 598 L 813 585 L 809 584 L 813 578 L 821 577 L 821 566 L 814 563 L 812 558 L 817 555 L 822 557 L 823 553 L 822 546 L 817 546 L 822 543 L 823 517 L 822 514 L 814 519 L 810 512 L 817 506 L 819 511 L 822 505 L 822 489 L 819 485 L 813 486 L 822 478 L 822 473 L 815 469 L 810 473 L 808 466 L 809 458 L 813 458 L 809 448 L 821 439 L 819 433 L 814 439 L 807 436 L 813 427 L 808 427 L 805 415 L 808 410 L 809 415 L 820 417 L 822 405 L 815 401 L 814 404 L 815 395 L 811 393 L 806 397 L 802 396 L 805 395 L 804 389 L 809 387 L 808 375 L 815 377 L 815 373 L 812 375 L 811 372 L 803 371 L 794 383 L 791 382 L 794 379 L 787 371 L 792 368 L 796 371 L 793 367 L 797 359 L 789 352 L 793 349 L 789 348 L 794 346 L 795 352 L 796 349 L 798 353 L 800 349 L 794 340 L 796 336 L 797 339 Z " fill="#7810bb" fill-rule="evenodd"/>
<path d="M 197 162 L 192 165 L 193 174 L 200 168 Z " fill="#7810bb" fill-rule="evenodd"/>
<path d="M 641 161 L 655 183 L 679 205 L 703 218 L 710 218 L 713 224 L 716 223 L 728 231 L 740 229 L 741 233 L 748 233 L 749 237 L 761 239 L 759 227 L 754 231 L 742 226 L 758 220 L 757 214 L 748 215 L 752 216 L 746 219 L 745 214 L 746 207 L 753 209 L 753 205 L 748 202 L 755 197 L 747 196 L 740 200 L 730 192 L 732 182 L 729 179 L 705 180 L 690 184 L 684 180 L 687 169 L 682 175 L 677 172 L 679 164 L 674 166 L 673 163 L 667 175 L 677 178 L 670 181 L 666 179 L 663 182 L 655 172 L 667 168 L 665 163 L 661 161 L 654 167 L 649 167 L 645 160 Z M 709 182 L 715 182 L 716 190 L 708 190 L 707 186 L 713 184 Z " fill="#7810bb" fill-rule="evenodd"/>
<path d="M 261 157 L 254 159 L 254 164 L 248 162 L 250 161 L 246 160 L 250 159 L 245 157 L 248 168 L 246 170 L 235 164 L 237 161 L 229 160 L 231 153 L 226 153 L 228 154 L 225 165 L 236 176 L 234 182 L 231 179 L 233 177 L 224 181 L 221 177 L 216 179 L 212 176 L 215 159 L 211 155 L 210 173 L 207 174 L 209 178 L 205 180 L 200 193 L 194 193 L 184 199 L 179 195 L 179 199 L 182 199 L 182 205 L 179 207 L 181 211 L 185 205 L 184 199 L 198 203 L 201 208 L 190 214 L 183 213 L 184 222 L 189 221 L 192 215 L 195 218 L 208 209 L 208 205 L 205 204 L 208 199 L 211 206 L 228 197 L 255 169 Z " fill="#7810bb" fill-rule="evenodd"/>
<path d="M 239 143 L 232 147 L 239 158 L 235 159 L 239 159 Z " fill="#7810bb" fill-rule="evenodd"/>
<path d="M 305 98 L 291 99 L 295 100 L 293 103 L 285 97 L 284 103 L 287 108 L 286 113 L 282 113 L 279 119 L 279 128 L 268 133 L 267 128 L 266 131 L 264 129 L 257 133 L 255 129 L 247 130 L 247 134 L 253 138 L 253 143 L 260 143 L 267 151 L 269 146 L 266 146 L 266 141 L 261 136 L 271 136 L 271 145 L 279 137 L 278 132 L 287 127 L 287 122 L 294 119 L 307 105 Z " fill="#7810bb" fill-rule="evenodd"/>
<path d="M 81 691 L 84 688 L 87 691 L 95 684 L 798 685 L 806 694 L 805 809 L 793 821 L 105 822 L 90 807 L 90 699 L 87 693 L 89 805 L 93 814 L 104 822 L 792 822 L 802 814 L 808 804 L 808 695 L 800 683 L 95 683 L 89 687 L 87 684 L 92 676 Z " fill="#240150" fill-rule="evenodd"/>
<path d="M 94 654 L 46 671 L 39 668 L 39 660 L 42 657 L 39 660 L 40 708 L 45 714 L 50 713 L 62 719 L 71 716 L 72 686 L 83 676 L 72 685 L 71 706 L 62 713 L 42 699 L 42 676 L 77 662 L 96 662 Z " fill="#240150" fill-rule="evenodd"/>
<path d="M 803 653 L 800 664 L 803 670 L 808 671 L 801 665 L 804 662 L 816 662 L 846 670 L 855 680 L 854 699 L 846 709 L 836 715 L 826 704 L 825 686 L 812 673 L 825 687 L 825 714 L 839 717 L 855 712 L 858 660 L 854 657 L 858 660 L 857 670 L 854 671 Z " fill="#240150" fill-rule="evenodd"/>
<path d="M 208 652 L 201 646 L 196 648 L 190 644 L 191 640 L 201 641 L 192 630 L 187 617 L 156 633 L 167 634 L 178 630 L 187 646 L 194 652 L 193 656 L 176 659 L 163 648 L 157 650 L 161 655 L 160 664 L 145 666 L 164 665 L 162 659 L 165 656 L 171 659 L 202 661 L 202 653 Z " fill="#240150" fill-rule="evenodd"/>
<path d="M 710 616 L 712 634 L 707 639 L 709 645 L 696 659 L 698 661 L 714 658 L 725 663 L 729 655 L 732 655 L 735 666 L 760 666 L 741 666 L 731 650 L 722 659 L 713 653 L 706 657 L 704 652 L 721 629 L 746 637 L 750 635 L 720 623 Z " fill="#240150" fill-rule="evenodd"/>
<path d="M 609 518 L 609 540 L 605 549 L 607 569 L 610 575 L 618 580 L 620 592 L 616 607 L 615 636 L 616 639 L 622 639 L 624 645 L 631 649 L 658 627 L 668 612 L 666 611 L 669 610 L 669 605 L 673 604 L 678 592 L 692 576 L 692 567 L 686 560 L 653 538 L 634 531 L 626 531 L 622 527 L 622 521 Z M 663 546 L 691 568 L 691 575 L 680 587 L 665 594 L 660 606 L 646 616 L 644 626 L 634 631 L 640 629 L 641 635 L 636 636 L 628 644 L 624 632 L 619 632 L 617 626 L 624 621 L 624 615 L 632 603 L 632 592 L 637 587 L 641 574 L 648 569 L 648 565 L 655 559 L 656 552 Z M 619 533 L 623 544 L 618 547 L 614 542 L 619 541 L 614 538 Z " fill="#240150" fill-rule="evenodd"/>
<path d="M 287 518 L 271 524 L 267 531 L 248 536 L 230 546 L 204 566 L 204 574 L 214 589 L 221 585 L 224 588 L 221 592 L 221 601 L 228 606 L 234 620 L 256 643 L 269 651 L 272 642 L 280 638 L 282 631 L 277 589 L 291 567 Z M 259 632 L 268 634 L 267 640 L 260 637 Z M 233 546 L 241 550 L 241 558 L 256 572 L 260 588 L 264 592 L 264 603 L 273 615 L 273 630 L 270 632 L 269 643 L 268 627 L 256 623 L 252 615 L 246 613 L 232 599 L 231 593 L 205 572 L 208 564 Z " fill="#240150" fill-rule="evenodd"/>
<path d="M 579 439 L 574 442 L 576 444 L 573 447 L 570 445 L 565 454 L 570 456 L 575 464 L 582 459 L 582 445 Z " fill="#240150" fill-rule="evenodd"/>
<path d="M 274 392 L 273 406 L 268 411 L 269 415 L 275 418 L 275 426 Z " fill="#240150" fill-rule="evenodd"/>
<path d="M 383 351 L 392 357 L 398 357 L 401 361 L 400 368 L 390 372 L 391 382 L 395 387 L 404 382 L 406 356 Z " fill="#240150" fill-rule="evenodd"/>
<path d="M 692 338 L 689 335 L 681 335 L 672 341 L 665 337 L 671 350 L 685 345 L 690 346 Z " fill="#240150" fill-rule="evenodd"/>
<path d="M 714 332 L 720 336 L 725 328 L 716 329 Z " fill="#240150" fill-rule="evenodd"/>
<path d="M 542 235 L 538 240 L 537 255 L 527 264 L 511 264 L 504 257 L 503 249 L 491 241 L 476 256 L 462 264 L 439 264 L 425 258 L 415 250 L 409 240 L 396 249 L 396 255 L 386 264 L 370 264 L 361 256 L 376 271 L 376 276 L 383 275 L 379 271 L 387 268 L 398 253 L 408 246 L 423 260 L 446 269 L 462 267 L 479 258 L 488 247 L 494 247 L 508 266 L 509 274 L 521 277 L 525 268 L 537 256 L 538 241 Z " fill="#240150" fill-rule="evenodd"/>
<path d="M 541 156 L 548 167 L 546 185 L 539 191 L 526 191 L 513 186 L 511 200 L 501 212 L 503 216 L 512 216 L 519 210 L 530 210 L 542 219 L 530 210 L 516 210 L 506 216 L 503 213 L 509 207 L 520 204 L 520 200 L 511 194 L 514 189 L 528 194 L 538 194 L 547 184 L 548 166 Z " fill="#240150" fill-rule="evenodd"/>
<path d="M 417 128 L 398 140 L 394 146 L 381 139 L 367 140 L 359 147 L 358 158 L 351 163 L 352 186 L 362 195 L 382 190 L 384 196 L 377 202 L 388 204 L 398 213 L 389 216 L 379 211 L 387 216 L 397 216 L 400 213 L 389 201 L 387 187 L 379 186 L 373 191 L 356 189 L 350 181 L 350 167 L 357 160 L 359 149 L 370 140 L 382 140 L 393 149 L 401 138 Z " fill="#240150" fill-rule="evenodd"/>
<path d="M 523 95 L 534 106 L 538 106 L 548 119 L 556 123 L 566 140 L 571 140 L 576 148 L 572 152 L 574 160 L 581 157 L 590 166 L 587 183 L 582 189 L 583 202 L 577 207 L 577 215 L 571 226 L 557 243 L 557 254 L 550 260 L 552 282 L 589 296 L 601 304 L 607 304 L 619 314 L 620 300 L 610 295 L 610 289 L 621 278 L 625 260 L 632 254 L 632 248 L 648 233 L 664 249 L 661 271 L 667 277 L 667 282 L 659 288 L 639 282 L 639 294 L 633 300 L 633 312 L 625 317 L 654 346 L 647 349 L 614 321 L 589 306 L 558 295 L 539 293 L 590 309 L 614 323 L 658 357 L 661 356 L 660 346 L 652 340 L 658 339 L 655 332 L 653 336 L 649 336 L 641 328 L 641 324 L 657 313 L 662 315 L 669 309 L 674 313 L 679 307 L 691 312 L 701 304 L 709 313 L 714 309 L 724 311 L 730 300 L 735 300 L 739 304 L 743 303 L 749 292 L 758 293 L 760 287 L 750 281 L 739 283 L 727 274 L 694 262 L 676 247 L 649 232 L 619 204 L 595 174 L 591 162 L 578 154 L 578 147 L 571 138 L 559 129 L 555 121 L 545 115 L 541 107 Z M 689 274 L 697 277 L 691 285 L 685 280 Z M 567 282 L 572 274 L 583 276 L 581 281 L 573 280 L 569 284 Z M 589 263 L 592 266 L 585 273 L 584 266 Z M 602 253 L 596 262 L 592 260 L 595 253 Z M 606 204 L 616 209 L 618 217 L 616 232 L 609 236 L 597 227 L 597 219 L 603 214 L 603 207 Z " fill="#240150" fill-rule="evenodd"/>
<path d="M 128 96 L 122 96 L 117 102 L 112 94 L 108 94 L 112 95 L 108 115 L 115 108 L 114 105 Z " fill="#240150" fill-rule="evenodd"/>
<path d="M 428 94 L 440 105 L 458 105 L 468 95 L 467 91 L 430 91 Z M 445 96 L 447 94 L 451 99 L 455 94 L 460 99 L 454 104 L 448 102 Z " fill="#240150" fill-rule="evenodd"/>
<path d="M 537 292 L 533 288 L 479 280 L 420 280 L 367 287 L 313 303 L 258 341 L 247 343 L 247 339 L 274 314 L 324 290 L 341 286 L 346 281 L 346 257 L 342 255 L 342 245 L 339 241 L 343 238 L 337 237 L 327 226 L 327 212 L 319 196 L 320 188 L 314 183 L 311 161 L 323 153 L 327 139 L 335 134 L 345 121 L 350 120 L 355 110 L 383 94 L 387 88 L 393 88 L 397 100 L 406 104 L 415 115 L 410 111 L 411 107 L 396 97 L 394 88 L 386 88 L 379 95 L 373 95 L 362 105 L 354 107 L 352 115 L 341 122 L 337 130 L 319 147 L 316 155 L 308 161 L 304 173 L 296 180 L 281 206 L 275 212 L 263 216 L 248 233 L 239 236 L 229 247 L 223 248 L 217 256 L 213 256 L 205 265 L 204 275 L 178 272 L 143 286 L 139 293 L 143 296 L 147 289 L 149 299 L 157 299 L 172 315 L 179 316 L 182 306 L 190 302 L 195 306 L 214 305 L 222 318 L 208 328 L 206 339 L 216 350 L 226 345 L 226 340 L 231 337 L 231 333 L 225 334 L 225 320 L 229 319 L 234 323 L 238 316 L 246 317 L 248 335 L 236 347 L 235 352 L 239 353 L 305 310 L 328 300 L 367 289 L 408 284 L 474 284 Z M 217 327 L 222 337 L 216 345 L 208 335 Z M 299 290 L 299 296 L 294 300 L 288 299 L 285 307 L 276 310 L 274 308 L 287 297 L 289 289 Z M 219 257 L 222 260 L 223 272 L 216 284 L 213 281 L 211 263 Z " fill="#240150" fill-rule="evenodd"/>
<path d="M 471 59 L 470 78 L 472 60 L 479 53 L 510 53 L 529 59 L 551 72 L 580 98 L 551 71 L 531 59 L 510 53 L 476 52 Z " fill="#240150" fill-rule="evenodd"/>
<path d="M 427 61 L 418 52 L 389 52 L 348 69 L 322 93 L 349 70 L 387 53 L 418 53 L 426 61 L 427 78 Z " fill="#240150" fill-rule="evenodd"/>
<path d="M 63 98 L 45 135 L 40 161 L 41 645 L 83 634 L 66 635 L 54 640 L 49 639 L 52 634 L 47 638 L 43 636 L 49 626 L 43 622 L 44 571 L 40 529 L 43 352 L 41 335 L 44 295 L 41 272 L 45 232 L 50 231 L 50 228 L 44 227 L 49 219 L 45 216 L 50 204 L 46 198 L 55 190 L 57 184 L 60 185 L 61 176 L 68 173 L 66 165 L 69 161 L 76 160 L 74 153 L 82 152 L 86 146 L 86 142 L 83 141 L 86 139 L 82 138 L 78 139 L 79 144 L 73 147 L 63 135 L 72 130 L 80 133 L 83 129 L 90 129 L 90 138 L 95 129 L 98 130 L 104 118 L 98 116 L 96 127 L 89 128 L 83 124 L 82 117 L 96 116 L 90 115 L 100 94 L 100 86 L 113 89 L 114 94 L 117 80 L 122 81 L 122 90 L 125 86 L 121 84 L 127 81 L 131 88 L 132 84 L 128 81 L 133 74 L 134 78 L 135 74 L 138 76 L 134 73 L 136 72 L 119 76 L 117 80 L 107 84 L 97 81 L 101 75 L 106 78 L 110 75 L 106 69 L 114 63 L 124 65 L 126 69 L 138 66 L 136 63 L 142 64 L 140 61 L 148 63 L 147 52 L 154 52 L 158 47 L 165 45 L 174 48 L 175 45 L 186 43 L 240 42 L 740 43 L 754 56 L 765 58 L 772 54 L 774 57 L 770 60 L 771 64 L 781 64 L 812 100 L 824 101 L 829 108 L 825 114 L 833 119 L 831 126 L 837 124 L 846 127 L 842 154 L 845 159 L 852 161 L 850 168 L 854 168 L 855 175 L 853 180 L 856 215 L 856 363 L 853 375 L 856 489 L 853 498 L 849 500 L 855 503 L 856 625 L 853 641 L 834 639 L 848 644 L 857 643 L 857 160 L 848 123 L 837 102 L 822 83 L 803 66 L 772 49 L 743 42 L 157 42 L 124 50 L 101 62 L 82 77 Z M 49 166 L 56 162 L 61 173 L 49 172 Z M 53 150 L 58 154 L 57 161 L 52 161 L 50 157 Z " fill="#240150" fill-rule="evenodd"/>
<path d="M 252 871 L 301 877 L 543 878 L 583 877 L 602 872 L 594 867 L 566 865 L 263 866 Z " fill="#f9d42f" fill-rule="evenodd"/>
<path d="M 335 778 L 338 782 L 372 782 L 375 793 L 377 779 L 341 781 L 340 777 Z " fill="#f9d42f" fill-rule="evenodd"/>
<path d="M 516 742 L 472 743 L 472 754 L 516 755 Z " fill="#f9d42f" fill-rule="evenodd"/>
<path d="M 702 706 L 703 722 L 727 724 L 726 795 L 729 765 L 749 754 L 753 761 L 753 794 L 761 798 L 755 790 L 753 724 L 781 724 L 781 705 Z " fill="#f9d42f" fill-rule="evenodd"/>
<path d="M 337 705 L 309 706 L 311 794 L 314 766 L 325 764 L 334 756 L 336 772 Z " fill="#f9d42f" fill-rule="evenodd"/>
<path d="M 237 705 L 218 722 L 220 778 L 223 764 L 235 759 L 238 761 L 241 757 L 243 759 L 241 725 L 244 722 L 270 722 L 272 727 L 269 778 L 258 779 L 243 773 L 243 779 L 271 779 L 276 759 L 277 763 L 292 763 L 295 716 L 278 705 Z " fill="#f9d42f" fill-rule="evenodd"/>
<path d="M 613 721 L 613 776 L 618 761 L 636 763 L 637 727 L 640 724 L 665 724 L 668 727 L 665 731 L 664 776 L 651 779 L 640 773 L 639 778 L 665 779 L 670 765 L 684 758 L 690 762 L 690 774 L 694 777 L 692 716 L 689 717 L 674 705 L 633 704 Z " fill="#f9d42f" fill-rule="evenodd"/>
<path d="M 602 716 L 584 704 L 528 705 L 525 724 L 527 794 L 528 764 L 531 759 L 542 762 L 558 755 L 578 757 L 576 774 L 573 777 L 554 776 L 550 779 L 559 782 L 578 779 L 581 758 L 582 761 L 600 760 L 601 755 L 589 745 L 602 733 Z M 548 723 L 551 720 L 573 720 L 576 723 L 576 735 L 571 741 L 554 740 L 554 737 L 549 737 Z " fill="#f9d42f" fill-rule="evenodd"/>
<path d="M 386 705 L 386 792 L 389 791 L 389 767 L 394 760 L 407 760 L 411 755 L 438 757 L 437 774 L 434 777 L 412 777 L 413 781 L 419 782 L 439 779 L 440 759 L 454 755 L 462 760 L 462 755 L 450 744 L 463 733 L 463 717 L 461 718 L 447 704 Z M 409 722 L 412 719 L 434 719 L 437 723 L 436 735 L 432 741 L 415 740 L 414 736 L 411 736 Z " fill="#f9d42f" fill-rule="evenodd"/>
<path d="M 115 702 L 125 711 L 125 786 L 118 796 L 125 794 L 129 758 L 144 762 L 154 756 L 166 765 L 167 762 L 173 762 L 183 766 L 199 780 L 217 806 L 222 807 L 210 787 L 174 743 L 212 701 L 189 701 L 150 735 L 148 711 L 151 700 Z " fill="#f9d42f" fill-rule="evenodd"/>
<path d="M 769 665 L 787 668 L 774 658 Z " fill="#f9d42f" fill-rule="evenodd"/>
<path d="M 128 661 L 124 658 L 109 666 L 126 667 Z " fill="#f9d42f" fill-rule="evenodd"/>
<path d="M 345 620 L 345 653 L 359 660 L 396 656 L 383 651 L 378 643 L 363 641 L 361 630 L 354 625 L 353 619 Z " fill="#f9d42f" fill-rule="evenodd"/>
<path d="M 327 596 L 325 636 L 330 638 L 330 602 Z " fill="#f9d42f" fill-rule="evenodd"/>
<path d="M 327 564 L 325 572 L 328 578 L 330 570 Z " fill="#f9d42f" fill-rule="evenodd"/>
<path d="M 684 529 L 682 532 L 688 540 L 680 544 L 674 539 L 673 543 L 698 564 L 699 570 L 685 594 L 668 614 L 660 631 L 643 651 L 643 655 L 653 650 L 655 644 L 660 657 L 664 655 L 669 644 L 677 640 L 693 617 L 697 592 L 708 582 L 718 581 L 728 570 L 728 563 L 723 557 Z " fill="#f9d42f" fill-rule="evenodd"/>
<path d="M 679 526 L 671 519 L 667 520 L 659 534 L 667 537 Z " fill="#f9d42f" fill-rule="evenodd"/>
<path d="M 227 519 L 168 562 L 168 568 L 173 570 L 173 567 L 202 594 L 208 608 L 206 618 L 229 651 L 238 658 L 244 655 L 255 656 L 198 570 L 199 564 L 218 548 L 216 540 L 219 528 L 222 527 L 226 531 L 229 539 L 237 534 Z " fill="#f9d42f" fill-rule="evenodd"/>
<path d="M 464 513 L 459 513 L 455 520 L 444 520 L 438 525 L 457 524 L 462 520 Z " fill="#f9d42f" fill-rule="evenodd"/>
<path d="M 465 533 L 458 531 L 457 543 L 447 541 L 449 536 L 450 539 L 446 534 L 430 535 L 428 540 L 432 541 L 422 542 L 426 532 L 442 532 L 410 531 L 407 527 L 410 523 L 436 525 L 430 516 L 410 513 L 390 533 L 390 565 L 413 578 L 415 553 L 423 544 L 463 543 Z " fill="#f9d42f" fill-rule="evenodd"/>
<path d="M 650 509 L 640 520 L 644 525 L 649 521 Z " fill="#f9d42f" fill-rule="evenodd"/>
<path d="M 244 510 L 247 523 L 256 523 L 248 509 Z " fill="#f9d42f" fill-rule="evenodd"/>
<path d="M 405 472 L 397 476 L 399 480 L 392 481 L 403 479 L 406 476 Z " fill="#f9d42f" fill-rule="evenodd"/>
<path d="M 432 387 L 426 391 L 420 407 L 422 463 L 425 465 L 423 407 L 425 395 Z " fill="#f9d42f" fill-rule="evenodd"/>
<path d="M 309 371 L 307 375 L 310 380 L 310 400 L 317 405 L 318 421 L 325 423 L 325 436 L 333 440 L 334 455 L 343 464 L 346 476 L 338 481 L 338 493 L 349 494 L 361 503 L 363 482 L 366 479 L 378 481 L 381 473 L 385 473 L 390 480 L 390 475 L 395 476 L 394 471 L 406 460 L 402 454 L 407 450 L 407 441 L 398 436 L 383 443 L 355 441 L 337 430 L 328 421 L 326 414 L 325 418 L 320 420 L 319 415 L 323 410 L 325 412 L 316 391 L 316 382 L 313 382 L 310 376 L 314 371 Z " fill="#f9d42f" fill-rule="evenodd"/>
<path d="M 503 374 L 495 385 L 502 400 L 515 407 L 533 401 L 537 386 L 529 371 L 511 370 Z M 509 376 L 521 374 L 530 379 L 530 390 L 523 398 L 511 398 L 506 393 L 504 381 Z " fill="#f9d42f" fill-rule="evenodd"/>
<path d="M 461 310 L 386 311 L 381 315 L 343 320 L 312 339 L 310 347 L 317 348 L 335 330 L 368 333 L 423 344 L 462 318 Z " fill="#f9d42f" fill-rule="evenodd"/>
<path d="M 127 271 L 117 267 L 112 278 L 117 280 L 127 275 Z " fill="#f9d42f" fill-rule="evenodd"/>
<path d="M 139 266 L 140 273 L 148 273 L 153 269 L 143 264 Z " fill="#f9d42f" fill-rule="evenodd"/>
<path d="M 775 264 L 772 271 L 778 278 L 787 279 L 788 267 L 781 263 Z " fill="#f9d42f" fill-rule="evenodd"/>
<path d="M 166 261 L 168 265 L 197 253 L 174 252 Z " fill="#f9d42f" fill-rule="evenodd"/>
<path d="M 714 250 L 704 255 L 714 257 Z " fill="#f9d42f" fill-rule="evenodd"/>
<path d="M 667 231 L 668 235 L 689 248 L 696 247 L 696 241 L 685 238 L 671 227 Z " fill="#f9d42f" fill-rule="evenodd"/>
<path d="M 234 227 L 223 227 L 214 237 L 199 242 L 194 239 L 195 246 L 199 250 L 205 250 L 226 238 L 235 230 Z " fill="#f9d42f" fill-rule="evenodd"/>
<path d="M 259 212 L 241 221 L 239 226 L 244 228 Z " fill="#f9d42f" fill-rule="evenodd"/>
<path d="M 469 176 L 469 184 L 473 187 L 482 186 L 480 174 Z " fill="#f9d42f" fill-rule="evenodd"/>
<path d="M 604 149 L 611 163 L 616 165 L 615 159 Z " fill="#f9d42f" fill-rule="evenodd"/>
<path d="M 580 119 L 574 131 L 579 141 L 589 138 L 579 127 Z " fill="#f9d42f" fill-rule="evenodd"/>
<path d="M 562 118 L 567 129 L 570 119 Z " fill="#f9d42f" fill-rule="evenodd"/>
<path d="M 337 115 L 315 129 L 309 140 L 303 143 L 302 149 L 292 155 L 289 162 L 291 169 L 296 168 L 313 151 L 321 133 L 332 128 Z " fill="#f9d42f" fill-rule="evenodd"/>
<path d="M 469 105 L 460 111 L 438 112 L 430 108 L 427 112 L 423 110 L 423 113 L 432 111 L 435 119 L 461 120 L 470 114 Z " fill="#f9d42f" fill-rule="evenodd"/>
<path d="M 351 102 L 339 114 L 345 114 L 352 105 Z " fill="#f9d42f" fill-rule="evenodd"/>
<path d="M 559 100 L 559 112 L 569 108 Z " fill="#f9d42f" fill-rule="evenodd"/>
<path d="M 481 68 L 481 89 L 476 94 L 477 98 L 487 92 L 488 76 L 492 69 L 504 73 L 500 80 L 509 81 L 516 75 L 521 80 L 516 84 L 520 88 L 532 83 L 535 88 L 557 97 L 535 78 L 507 66 Z " fill="#f9d42f" fill-rule="evenodd"/>
<path d="M 358 83 L 369 86 L 367 92 L 380 86 L 377 78 L 380 75 L 391 73 L 394 69 L 409 69 L 412 72 L 412 84 L 408 91 L 421 101 L 425 101 L 416 89 L 414 66 L 389 66 L 365 76 Z " fill="#f9d42f" fill-rule="evenodd"/>
<path d="M 140 8 L 125 11 L 117 25 L 82 45 L 116 28 L 145 20 Z " fill="#f9d42f" fill-rule="evenodd"/>
<path d="M 209 19 L 700 19 L 679 8 L 607 5 L 283 6 L 247 8 L 221 18 Z " fill="#f9d42f" fill-rule="evenodd"/>
<path d="M 620 844 L 622 851 L 658 849 L 656 842 Z " fill="#974c28" fill-rule="evenodd"/>
<path d="M 429 844 L 436 852 L 440 850 L 438 842 Z " fill="#974c28" fill-rule="evenodd"/>
<path d="M 239 844 L 241 851 L 276 849 L 274 842 Z " fill="#974c28" fill-rule="evenodd"/>
<path d="M 456 843 L 460 844 L 461 849 L 458 852 L 456 850 L 488 851 L 484 841 Z " fill="#974c28" fill-rule="evenodd"/>
<path d="M 564 632 L 556 630 L 563 633 L 543 635 L 540 652 L 527 650 L 532 649 L 534 652 L 530 656 L 530 664 L 531 656 L 541 655 L 550 649 L 551 635 L 555 634 L 558 637 L 558 644 L 562 646 L 564 644 L 560 643 L 561 637 L 564 640 Z " fill="#974c28" fill-rule="evenodd"/>
<path d="M 373 625 L 380 627 L 383 633 L 392 634 L 394 639 L 400 640 L 403 645 L 418 649 L 421 653 L 437 655 L 442 660 L 461 661 L 466 656 L 484 657 L 489 650 L 504 649 L 504 663 L 501 666 L 416 666 L 504 664 L 501 637 L 492 637 L 487 644 L 471 647 L 466 651 L 431 651 L 426 647 L 417 647 L 397 639 L 388 630 Z " fill="#974c28" fill-rule="evenodd"/>
<path d="M 170 618 L 133 631 L 153 627 Z " fill="#974c28" fill-rule="evenodd"/>
<path d="M 722 615 L 743 627 L 765 630 L 769 635 L 769 642 L 771 632 Z " fill="#974c28" fill-rule="evenodd"/>
<path d="M 555 590 L 540 600 L 533 619 L 535 609 L 543 606 L 543 624 L 554 622 L 556 607 L 551 596 Z " fill="#974c28" fill-rule="evenodd"/>
<path d="M 498 584 L 494 588 L 494 597 L 501 603 L 503 586 Z " fill="#974c28" fill-rule="evenodd"/>
<path d="M 574 535 L 564 545 L 547 550 L 545 555 L 554 557 L 546 555 L 545 552 L 558 548 L 558 555 L 571 548 L 575 541 Z " fill="#974c28" fill-rule="evenodd"/>
<path d="M 486 530 L 484 550 L 489 559 L 496 564 L 495 567 L 499 570 L 523 570 L 529 561 L 529 536 L 527 550 L 520 551 L 515 556 L 498 556 L 493 543 L 486 537 Z " fill="#974c28" fill-rule="evenodd"/>
<path d="M 477 512 L 469 510 L 471 519 L 461 524 L 475 521 Z " fill="#974c28" fill-rule="evenodd"/>
<path d="M 611 490 L 605 503 L 627 517 L 621 511 L 627 509 L 630 498 L 637 500 L 616 489 Z " fill="#974c28" fill-rule="evenodd"/>
<path d="M 283 489 L 270 495 L 274 495 L 277 505 L 282 507 L 271 516 L 291 504 L 291 499 Z " fill="#974c28" fill-rule="evenodd"/>
<path d="M 324 479 L 324 487 L 333 492 L 333 507 L 346 517 L 345 530 L 350 521 L 357 516 L 359 527 L 360 525 L 365 529 L 367 539 L 370 531 L 374 533 L 374 542 L 370 547 L 371 565 L 375 564 L 379 557 L 381 573 L 389 578 L 390 585 L 399 580 L 401 582 L 402 603 L 405 591 L 409 587 L 424 587 L 428 592 L 436 594 L 446 587 L 452 598 L 452 605 L 455 606 L 458 596 L 462 595 L 465 598 L 466 611 L 468 613 L 473 609 L 474 594 L 467 579 L 470 574 L 467 548 L 471 543 L 422 546 L 416 554 L 417 576 L 410 579 L 389 566 L 391 529 L 388 528 L 388 524 L 403 510 L 407 513 L 422 511 L 420 505 L 429 496 L 439 500 L 469 487 L 476 491 L 478 498 L 487 502 L 489 491 L 471 475 L 477 481 L 470 481 L 465 477 L 468 474 L 463 473 L 460 480 L 450 484 L 429 484 L 424 480 L 415 479 L 410 469 L 406 471 L 407 478 L 399 483 L 389 482 L 384 475 L 386 478 L 382 480 L 380 477 L 381 481 L 378 484 L 367 481 L 365 502 L 363 504 L 354 500 L 347 504 L 337 497 L 337 483 Z " fill="#974c28" fill-rule="evenodd"/>
<path d="M 564 468 L 560 470 L 552 524 L 542 534 L 536 531 L 536 527 L 538 534 L 544 534 L 560 521 L 560 498 L 565 493 Z " fill="#974c28" fill-rule="evenodd"/>
<path d="M 599 436 L 597 442 L 598 438 L 601 439 L 602 476 L 596 483 L 604 475 L 605 468 Z " fill="#974c28" fill-rule="evenodd"/>
<path d="M 297 421 L 298 443 L 309 453 L 311 446 L 302 436 L 306 430 L 300 435 L 297 434 Z " fill="#974c28" fill-rule="evenodd"/>
<path d="M 261 417 L 261 430 L 264 431 L 261 437 L 262 444 L 274 457 L 279 457 L 283 437 L 279 437 L 274 445 L 270 445 L 264 438 Z " fill="#974c28" fill-rule="evenodd"/>
<path d="M 459 404 L 459 410 L 465 420 L 483 433 L 483 444 L 476 452 L 478 464 L 497 483 L 503 499 L 512 499 L 510 490 L 513 485 L 519 488 L 517 499 L 524 499 L 526 453 L 526 475 L 523 478 L 515 475 L 513 480 L 507 483 L 502 481 L 497 473 L 490 475 L 479 457 L 487 452 L 483 445 L 485 432 L 469 421 L 464 407 Z " fill="#974c28" fill-rule="evenodd"/>
<path d="M 586 385 L 586 393 L 573 407 L 570 419 L 563 423 L 562 430 L 554 435 L 558 439 L 551 446 L 533 453 L 531 451 L 543 451 L 556 443 L 582 435 L 587 419 L 584 415 L 578 415 L 575 406 L 578 403 L 584 408 L 593 406 Z M 574 420 L 576 430 L 567 438 L 562 438 L 568 431 L 570 422 Z " fill="#974c28" fill-rule="evenodd"/>
<path d="M 637 374 L 633 376 L 635 418 L 638 415 Z " fill="#974c28" fill-rule="evenodd"/>
<path d="M 617 365 L 611 370 L 614 367 L 618 368 L 619 452 L 616 456 L 613 454 L 615 457 L 621 456 L 622 452 L 617 446 L 617 424 L 621 419 L 618 405 L 626 385 L 626 379 Z " fill="#974c28" fill-rule="evenodd"/>
<path d="M 511 359 L 489 380 L 489 401 L 504 415 L 528 416 L 536 410 L 543 398 L 543 379 L 524 359 Z M 511 362 L 524 362 L 533 366 L 543 381 L 543 390 L 538 402 L 532 409 L 524 412 L 509 412 L 494 401 L 492 382 L 498 370 Z " fill="#974c28" fill-rule="evenodd"/>
<path d="M 277 356 L 273 355 L 257 371 L 257 408 L 261 411 L 262 374 L 268 367 L 272 370 L 276 379 L 276 390 L 272 366 L 276 357 L 278 364 Z " fill="#974c28" fill-rule="evenodd"/>
<path d="M 573 334 L 571 341 L 564 346 L 562 344 L 562 348 L 569 350 L 571 356 L 574 354 L 577 366 L 580 354 L 577 351 L 578 355 L 575 354 L 573 348 L 579 341 L 579 336 Z " fill="#974c28" fill-rule="evenodd"/>
<path d="M 508 309 L 514 314 L 526 317 L 524 309 Z " fill="#974c28" fill-rule="evenodd"/>
<path d="M 17 99 L 5 148 L 5 747 L 9 771 L 18 798 L 34 825 L 57 851 L 78 867 L 103 880 L 127 888 L 157 892 L 741 892 L 776 886 L 809 873 L 850 841 L 878 799 L 892 748 L 892 148 L 889 128 L 890 150 L 879 158 L 879 165 L 890 171 L 889 683 L 885 692 L 882 692 L 876 756 L 870 778 L 858 803 L 836 831 L 813 850 L 792 862 L 736 879 L 159 879 L 124 870 L 95 857 L 70 839 L 47 814 L 36 797 L 24 769 L 19 748 L 18 688 L 8 681 L 6 170 L 18 159 L 18 138 L 17 140 L 11 131 L 16 102 L 34 71 L 42 66 L 41 62 Z " fill="#974c28" fill-rule="evenodd"/>
<path d="M 855 60 L 855 64 L 848 72 L 855 68 L 862 69 L 872 84 Z " fill="#974c28" fill-rule="evenodd"/>
<path d="M 57 80 L 78 59 L 97 46 L 132 32 L 157 29 L 742 29 L 770 33 L 806 49 L 840 80 L 857 108 L 847 86 L 823 60 L 824 56 L 810 43 L 772 27 L 745 26 L 734 22 L 705 25 L 653 22 L 462 23 L 453 29 L 435 26 L 438 24 L 414 22 L 220 22 L 213 25 L 166 23 L 148 25 L 143 30 L 130 30 L 103 41 L 80 55 Z " fill="#974c28" fill-rule="evenodd"/>
<path d="M 726 797 L 728 801 L 756 799 L 752 797 L 728 800 Z " fill="#bf831c" fill-rule="evenodd"/>
<path d="M 115 795 L 117 800 L 148 800 L 146 795 L 119 798 Z " fill="#bf831c" fill-rule="evenodd"/>
<path d="M 310 797 L 375 798 L 372 794 L 316 794 L 315 797 Z " fill="#bf831c" fill-rule="evenodd"/>
<path d="M 612 777 L 612 780 L 631 798 L 677 798 L 693 783 L 688 782 L 677 793 L 632 793 L 619 780 Z " fill="#bf831c" fill-rule="evenodd"/>
<path d="M 298 770 L 297 776 L 279 793 L 236 793 L 222 780 L 218 781 L 235 798 L 280 798 L 296 783 Z " fill="#bf831c" fill-rule="evenodd"/>
<path d="M 148 762 L 150 767 L 157 768 L 187 808 L 216 809 L 214 805 L 190 804 L 152 758 Z " fill="#bf831c" fill-rule="evenodd"/>
<path d="M 603 757 L 602 785 L 597 785 L 588 794 L 578 794 L 577 797 L 567 794 L 529 794 L 527 798 L 589 798 L 603 784 Z " fill="#bf831c" fill-rule="evenodd"/>
<path d="M 552 774 L 552 763 L 555 760 L 575 762 L 574 757 L 552 758 Z " fill="#bf831c" fill-rule="evenodd"/>
<path d="M 464 757 L 459 783 L 449 796 L 386 796 L 450 798 L 464 784 Z " fill="#bf831c" fill-rule="evenodd"/>
<path d="M 413 775 L 413 763 L 416 760 L 435 762 L 436 759 L 413 757 Z " fill="#bf831c" fill-rule="evenodd"/>
<path d="M 517 746 L 517 756 L 514 759 L 472 759 L 515 761 Z " fill="#bf831c" fill-rule="evenodd"/>
<path d="M 664 725 L 646 725 L 640 728 L 642 771 L 642 732 L 645 729 L 661 729 L 664 733 Z " fill="#bf831c" fill-rule="evenodd"/>
<path d="M 552 735 L 552 726 L 555 723 L 574 724 L 573 722 L 551 722 Z " fill="#bf831c" fill-rule="evenodd"/>
<path d="M 413 735 L 413 726 L 416 723 L 435 725 L 434 722 L 413 721 Z " fill="#bf831c" fill-rule="evenodd"/>
<path d="M 219 699 L 181 736 L 177 744 L 180 748 L 178 743 Z " fill="#bf831c" fill-rule="evenodd"/>
<path d="M 114 651 L 106 654 L 106 664 L 116 660 L 117 655 Z " fill="#bf831c" fill-rule="evenodd"/>
<path d="M 778 651 L 780 661 L 792 664 L 788 662 L 792 656 Z " fill="#bf831c" fill-rule="evenodd"/>
<path d="M 542 635 L 537 637 L 537 645 L 534 648 L 537 653 L 542 644 Z " fill="#bf831c" fill-rule="evenodd"/>
<path d="M 127 634 L 110 637 L 110 641 L 108 638 L 96 642 L 95 652 L 97 654 L 105 648 L 121 645 L 123 635 Z " fill="#bf831c" fill-rule="evenodd"/>
<path d="M 770 634 L 774 635 L 775 642 L 794 651 L 799 650 L 802 643 L 804 647 L 799 641 L 784 636 L 777 637 L 778 635 L 772 632 Z " fill="#bf831c" fill-rule="evenodd"/>
<path d="M 330 566 L 332 638 L 329 641 L 326 639 L 334 643 L 344 654 L 344 620 L 353 617 L 356 625 L 362 630 L 364 640 L 379 641 L 384 650 L 406 658 L 410 663 L 407 666 L 375 665 L 503 663 L 503 658 L 500 660 L 494 654 L 495 651 L 503 652 L 503 649 L 489 651 L 484 658 L 466 657 L 461 662 L 442 661 L 437 656 L 422 655 L 418 650 L 403 646 L 401 642 L 396 642 L 392 635 L 384 635 L 380 628 L 374 627 L 366 620 L 360 602 L 346 593 Z " fill="#bf831c" fill-rule="evenodd"/>
<path d="M 487 529 L 487 537 L 494 543 L 498 555 L 515 555 L 528 547 L 528 544 L 508 554 L 502 554 L 487 537 Z " fill="#bf831c" fill-rule="evenodd"/>
<path d="M 622 511 L 630 517 L 639 504 L 647 506 L 633 499 L 629 500 L 628 509 Z " fill="#bf831c" fill-rule="evenodd"/>
<path d="M 273 495 L 255 503 L 264 511 L 266 517 L 259 522 L 281 509 Z " fill="#bf831c" fill-rule="evenodd"/>
<path d="M 338 494 L 338 497 L 347 503 L 353 499 Z " fill="#bf831c" fill-rule="evenodd"/>
<path d="M 559 470 L 553 475 L 555 477 L 550 504 L 551 524 Z " fill="#bf831c" fill-rule="evenodd"/>
<path d="M 482 455 L 481 462 L 488 468 L 489 473 L 497 472 L 502 480 L 498 472 L 491 473 L 488 470 L 487 453 Z " fill="#bf831c" fill-rule="evenodd"/>
<path d="M 525 443 L 520 445 L 519 469 L 516 474 L 523 477 Z " fill="#bf831c" fill-rule="evenodd"/>
<path d="M 554 433 L 539 441 L 535 452 L 551 445 Z " fill="#bf831c" fill-rule="evenodd"/>
<path d="M 465 410 L 470 421 L 485 430 L 484 445 L 487 449 L 491 445 L 496 449 L 498 445 L 494 436 L 489 435 Z " fill="#bf831c" fill-rule="evenodd"/>
<path d="M 419 407 L 417 416 L 397 435 L 400 434 L 409 440 L 409 450 L 404 455 L 407 458 L 416 448 L 420 450 Z " fill="#bf831c" fill-rule="evenodd"/>
<path d="M 585 387 L 572 395 L 571 412 L 561 420 L 562 428 L 562 423 L 569 419 L 572 407 L 585 392 Z " fill="#bf831c" fill-rule="evenodd"/>
<path d="M 299 369 L 298 434 L 304 431 L 309 423 L 313 430 L 320 428 L 324 431 L 324 436 L 318 444 L 317 459 L 325 465 L 324 478 L 337 482 L 344 477 L 339 461 L 332 456 L 332 442 L 323 437 L 324 424 L 316 421 L 316 405 L 309 400 L 309 380 L 306 372 L 310 370 Z " fill="#bf831c" fill-rule="evenodd"/>
<path d="M 276 358 L 273 369 L 277 378 L 277 398 L 281 403 L 284 400 L 281 397 L 281 373 Z " fill="#bf831c" fill-rule="evenodd"/>
<path d="M 436 355 L 427 363 L 426 387 L 432 379 L 432 359 Z " fill="#bf831c" fill-rule="evenodd"/>
<path d="M 476 305 L 469 301 L 411 301 L 407 304 L 353 310 L 317 326 L 302 338 L 302 347 L 311 350 L 309 340 L 343 318 L 349 319 L 385 310 L 461 309 L 464 312 L 462 319 L 474 310 Z " fill="#bf831c" fill-rule="evenodd"/>
<path d="M 800 284 L 794 287 L 782 282 L 775 307 L 741 346 L 698 378 L 678 387 L 674 385 L 675 382 L 659 389 L 655 394 L 655 404 L 660 406 L 671 403 L 712 381 L 732 366 L 779 319 L 779 314 L 789 301 L 790 291 Z " fill="#bf831c" fill-rule="evenodd"/>
<path d="M 99 264 L 98 287 L 108 291 L 108 300 L 118 313 L 119 320 L 145 348 L 180 378 L 203 393 L 238 406 L 238 390 L 223 383 L 227 387 L 225 389 L 216 387 L 202 372 L 206 377 L 203 380 L 198 379 L 152 343 L 138 321 L 122 306 L 122 300 L 117 295 L 117 285 L 114 282 L 107 282 L 102 286 L 97 284 Z " fill="#bf831c" fill-rule="evenodd"/>
<path d="M 415 22 L 437 22 L 439 24 L 436 26 L 453 28 L 462 22 L 489 22 Z " fill="#bf831c" fill-rule="evenodd"/>
<path d="M 219 22 L 154 22 L 114 30 L 71 55 L 51 76 L 38 97 L 39 88 L 51 71 L 46 57 L 65 38 L 44 58 L 43 66 L 35 71 L 17 102 L 13 116 L 12 131 L 13 138 L 18 137 L 19 159 L 7 170 L 9 681 L 19 688 L 20 748 L 30 783 L 51 817 L 44 807 L 45 800 L 87 839 L 55 808 L 34 772 L 27 736 L 27 616 L 26 688 L 22 707 L 20 704 L 20 158 L 22 154 L 26 161 L 23 165 L 28 172 L 28 614 L 27 156 L 32 126 L 41 103 L 59 76 L 80 54 L 103 40 L 130 29 L 143 29 L 148 24 Z M 36 111 L 32 124 L 24 127 L 23 124 L 30 122 L 31 112 Z " fill="#bf831c" fill-rule="evenodd"/>
<path d="M 753 6 L 752 18 L 777 23 L 807 34 L 820 45 L 823 42 L 817 41 L 815 35 L 817 32 L 823 33 L 852 57 L 846 72 L 859 89 L 858 92 L 841 70 L 815 46 L 825 56 L 823 59 L 848 86 L 867 133 L 869 162 L 871 143 L 875 140 L 878 146 L 878 180 L 875 195 L 870 193 L 870 165 L 869 224 L 869 207 L 877 201 L 874 231 L 870 227 L 869 232 L 870 432 L 875 411 L 878 433 L 874 446 L 875 439 L 870 434 L 869 440 L 870 728 L 866 760 L 858 782 L 845 805 L 822 830 L 802 845 L 775 858 L 746 864 L 704 864 L 740 864 L 747 870 L 746 874 L 707 878 L 736 878 L 785 864 L 824 841 L 829 836 L 827 838 L 825 828 L 831 821 L 836 821 L 835 826 L 840 825 L 837 828 L 857 803 L 872 769 L 882 691 L 887 688 L 890 654 L 889 171 L 878 165 L 878 158 L 889 150 L 888 127 L 873 86 L 861 69 L 847 72 L 855 61 L 836 41 L 799 18 Z M 783 856 L 791 851 L 793 856 L 798 857 L 796 859 L 790 856 L 785 859 Z M 876 544 L 879 550 L 876 570 L 874 565 L 869 563 L 869 555 Z M 876 462 L 876 508 L 869 498 L 870 481 L 874 479 Z M 875 269 L 875 295 L 873 288 L 872 291 L 870 289 Z " fill="#bf831c" fill-rule="evenodd"/>
<path d="M 835 821 L 825 829 L 827 837 L 839 825 L 836 826 Z " fill="#e9b326" fill-rule="evenodd"/>
<path d="M 45 801 L 46 809 L 60 828 L 89 852 L 130 870 L 163 874 L 168 878 L 361 878 L 301 878 L 291 875 L 254 874 L 251 871 L 263 865 L 566 864 L 594 866 L 603 872 L 583 878 L 544 878 L 706 878 L 746 873 L 744 866 L 703 864 L 146 864 L 116 856 L 79 835 L 49 802 Z " fill="#e9b326" fill-rule="evenodd"/>
<path d="M 151 758 L 144 763 L 129 759 L 128 786 L 124 795 L 146 794 L 149 800 L 151 798 L 151 768 L 147 764 Z " fill="#e9b326" fill-rule="evenodd"/>
<path d="M 525 794 L 528 797 L 529 793 L 568 796 L 588 793 L 597 784 L 602 784 L 602 759 L 582 762 L 581 759 L 579 779 L 569 783 L 552 782 L 549 779 L 550 759 L 556 757 L 542 763 L 530 761 L 527 795 Z " fill="#e9b326" fill-rule="evenodd"/>
<path d="M 153 758 L 190 803 L 215 805 L 220 809 L 198 780 L 183 767 L 173 763 L 166 766 Z " fill="#e9b326" fill-rule="evenodd"/>
<path d="M 386 793 L 387 796 L 405 796 L 406 793 L 409 796 L 418 796 L 419 793 L 435 796 L 436 793 L 448 796 L 449 792 L 462 783 L 463 759 L 461 761 L 454 756 L 441 759 L 440 779 L 437 782 L 424 783 L 411 780 L 412 776 L 415 776 L 411 775 L 410 759 L 413 756 L 434 756 L 436 762 L 438 758 L 411 756 L 408 760 L 394 761 L 390 767 L 390 791 Z " fill="#e9b326" fill-rule="evenodd"/>
<path d="M 749 755 L 730 765 L 726 796 L 728 799 L 730 796 L 756 798 L 752 794 L 752 761 Z " fill="#e9b326" fill-rule="evenodd"/>
<path d="M 612 723 L 612 776 L 619 779 L 630 791 L 677 792 L 688 781 L 693 782 L 694 778 L 690 777 L 689 762 L 686 759 L 678 760 L 670 766 L 665 780 L 639 779 L 639 773 L 645 774 L 640 771 L 639 728 L 645 725 L 638 727 L 636 764 L 618 762 L 615 777 L 612 776 Z " fill="#e9b326" fill-rule="evenodd"/>
<path d="M 242 726 L 247 727 L 244 725 L 270 725 L 270 728 L 270 723 L 244 723 Z " fill="#e9b326" fill-rule="evenodd"/>
<path d="M 297 718 L 294 722 L 292 764 L 283 764 L 282 761 L 278 763 L 276 760 L 274 777 L 271 780 L 244 781 L 242 775 L 245 772 L 241 758 L 239 761 L 223 765 L 222 776 L 218 778 L 220 781 L 223 779 L 236 792 L 279 792 L 295 777 L 298 769 Z " fill="#e9b326" fill-rule="evenodd"/>
<path d="M 338 703 L 338 771 L 336 773 L 333 757 L 325 765 L 314 767 L 313 792 L 309 796 L 315 796 L 316 793 L 372 793 L 374 797 L 377 796 L 377 782 L 375 794 L 372 783 L 338 783 L 334 780 L 338 775 Z " fill="#e9b326" fill-rule="evenodd"/>
<path d="M 364 661 L 377 665 L 409 663 L 386 651 L 398 658 Z " fill="#e9b326" fill-rule="evenodd"/>
<path d="M 223 644 L 241 665 L 263 664 L 256 654 L 255 657 L 235 658 Z " fill="#e9b326" fill-rule="evenodd"/>
<path d="M 675 642 L 669 645 L 664 656 L 659 657 L 654 650 L 655 645 L 654 650 L 647 656 L 641 654 L 635 666 L 654 666 Z " fill="#e9b326" fill-rule="evenodd"/>
<path d="M 770 635 L 772 658 L 786 664 L 788 668 L 795 669 L 803 649 L 801 644 L 801 649 L 794 652 L 775 643 L 772 634 Z M 779 649 L 793 656 L 789 659 L 788 665 L 778 660 L 776 653 Z " fill="#e9b326" fill-rule="evenodd"/>
<path d="M 126 634 L 121 646 L 113 646 L 98 654 L 103 668 L 112 668 L 108 666 L 120 658 L 126 658 Z M 115 651 L 118 655 L 117 660 L 109 665 L 105 664 L 105 654 Z " fill="#e9b326" fill-rule="evenodd"/>
<path d="M 724 576 L 718 582 L 708 583 L 698 592 L 694 600 L 696 612 L 685 630 Z " fill="#e9b326" fill-rule="evenodd"/>
<path d="M 325 573 L 325 601 L 327 595 L 330 601 L 331 574 L 328 579 Z " fill="#e9b326" fill-rule="evenodd"/>
<path d="M 168 569 L 222 641 L 205 618 L 207 608 L 200 593 L 174 569 Z " fill="#e9b326" fill-rule="evenodd"/>
<path d="M 876 545 L 870 555 L 871 564 L 875 565 L 876 569 Z " fill="#e9b326" fill-rule="evenodd"/>
<path d="M 222 528 L 219 529 L 220 535 L 217 540 L 219 547 L 229 540 Z " fill="#e9b326" fill-rule="evenodd"/>
<path d="M 678 524 L 679 529 L 673 530 L 667 538 L 662 537 L 674 545 L 674 538 L 680 543 L 687 540 Z " fill="#e9b326" fill-rule="evenodd"/>
<path d="M 651 509 L 647 526 L 658 533 L 668 518 Z " fill="#e9b326" fill-rule="evenodd"/>
<path d="M 644 505 L 638 506 L 631 515 L 631 518 L 641 524 L 639 520 L 649 508 Z " fill="#e9b326" fill-rule="evenodd"/>
<path d="M 258 505 L 253 504 L 228 519 L 238 533 L 251 526 L 245 521 L 242 512 L 245 508 L 249 509 L 257 523 L 265 517 Z " fill="#e9b326" fill-rule="evenodd"/>
<path d="M 876 463 L 875 479 L 873 482 L 872 479 L 870 498 L 876 507 Z " fill="#e9b326" fill-rule="evenodd"/>
<path d="M 875 412 L 870 433 L 876 439 L 876 446 Z " fill="#e9b326" fill-rule="evenodd"/>
<path d="M 209 380 L 216 386 L 226 386 L 211 378 Z " fill="#e9b326" fill-rule="evenodd"/>
<path d="M 512 364 L 500 370 L 493 382 L 494 390 L 501 405 L 511 410 L 524 410 L 537 400 L 541 382 L 532 368 L 524 364 Z M 504 372 L 511 369 L 527 369 L 533 374 L 538 386 L 533 402 L 515 408 L 501 400 L 494 385 Z " fill="#e9b326" fill-rule="evenodd"/>
<path d="M 876 201 L 870 207 L 870 226 L 876 231 Z " fill="#e9b326" fill-rule="evenodd"/>
<path d="M 473 171 L 467 177 L 466 184 L 471 190 L 479 191 L 486 185 L 487 177 L 481 171 Z M 471 173 L 480 173 L 484 180 L 482 187 L 473 188 L 466 180 Z " fill="#e9b326" fill-rule="evenodd"/>
<path d="M 22 155 L 19 460 L 22 706 L 27 657 L 27 172 L 22 165 L 25 161 Z " fill="#e9b326" fill-rule="evenodd"/>
<path d="M 875 141 L 871 146 L 870 183 L 871 193 L 876 194 Z " fill="#e9b326" fill-rule="evenodd"/>
<path d="M 380 87 L 368 92 L 368 86 L 357 83 L 359 81 L 341 94 L 314 120 L 282 158 L 277 169 L 279 175 L 274 179 L 270 176 L 234 213 L 200 234 L 172 247 L 125 261 L 100 264 L 99 285 L 114 281 L 118 285 L 118 295 L 123 300 L 123 306 L 139 321 L 153 343 L 171 359 L 203 379 L 204 375 L 172 350 L 130 302 L 123 280 L 140 274 L 138 266 L 141 263 L 154 269 L 152 271 L 181 261 L 168 266 L 166 264 L 166 257 L 174 251 L 196 251 L 199 254 L 206 250 L 202 252 L 194 246 L 193 239 L 196 237 L 199 241 L 214 236 L 223 226 L 231 224 L 235 231 L 230 234 L 239 230 L 239 222 L 247 216 L 253 215 L 254 218 L 273 202 L 268 206 L 266 202 L 279 194 L 283 188 L 283 178 L 287 178 L 288 182 L 298 170 L 298 167 L 294 170 L 288 167 L 289 159 L 301 149 L 304 141 L 308 142 L 307 137 L 311 132 L 337 114 L 337 119 L 346 115 L 348 111 L 345 115 L 338 114 L 351 101 L 353 104 L 362 100 L 356 101 L 357 96 L 361 94 L 363 98 Z M 130 306 L 133 305 L 137 310 L 135 314 L 129 311 Z M 124 267 L 128 275 L 117 281 L 111 278 L 117 266 Z " fill="#e9b326" fill-rule="evenodd"/>
<path d="M 466 105 L 470 105 L 470 115 L 483 109 L 487 101 L 494 99 L 495 85 L 498 82 L 513 82 L 520 90 L 527 91 L 535 100 L 549 106 L 550 113 L 558 116 L 562 123 L 561 118 L 568 116 L 571 119 L 569 128 L 565 128 L 575 134 L 573 130 L 580 118 L 580 127 L 590 139 L 580 141 L 584 151 L 597 163 L 600 171 L 623 200 L 652 227 L 666 233 L 671 226 L 685 237 L 698 242 L 694 250 L 690 249 L 698 255 L 705 257 L 704 253 L 714 249 L 715 257 L 707 258 L 719 264 L 773 278 L 774 287 L 766 303 L 725 351 L 689 377 L 675 383 L 676 386 L 712 369 L 741 345 L 774 307 L 774 300 L 779 295 L 779 284 L 782 281 L 792 285 L 800 283 L 798 264 L 753 257 L 748 253 L 724 247 L 684 227 L 668 214 L 660 212 L 651 200 L 635 187 L 630 178 L 625 175 L 619 181 L 616 177 L 621 171 L 617 163 L 616 166 L 612 165 L 603 153 L 605 149 L 600 146 L 600 139 L 573 113 L 569 105 L 569 109 L 558 112 L 558 100 L 561 99 L 565 103 L 556 94 L 558 97 L 555 99 L 549 93 L 535 89 L 532 84 L 520 89 L 515 84 L 520 80 L 516 76 L 512 81 L 505 82 L 499 80 L 503 73 L 494 70 L 489 76 L 488 92 L 477 99 L 477 92 Z M 771 267 L 779 262 L 788 266 L 788 279 L 778 279 L 771 271 Z " fill="#e9b326" fill-rule="evenodd"/>
<path d="M 378 78 L 381 85 L 384 82 L 399 82 L 402 85 L 402 97 L 409 100 L 414 109 L 424 114 L 421 111 L 427 111 L 429 108 L 452 111 L 438 111 L 425 100 L 423 103 L 407 91 L 411 84 L 409 70 L 394 70 L 390 75 Z " fill="#e9b326" fill-rule="evenodd"/>
<path d="M 128 9 L 102 17 L 68 36 L 47 57 L 46 61 L 52 68 L 48 76 L 69 54 L 87 43 L 81 45 L 85 41 L 117 24 L 124 11 Z " fill="#e9b326" fill-rule="evenodd"/>
<path d="M 608 5 L 679 7 L 703 19 L 696 21 L 756 21 L 787 29 L 808 40 L 826 54 L 860 94 L 853 81 L 844 73 L 851 57 L 825 35 L 817 33 L 816 43 L 808 36 L 786 27 L 751 18 L 750 6 Z " fill="#e9b326" fill-rule="evenodd"/>
<path d="M 137 7 L 142 9 L 145 22 L 209 21 L 212 17 L 221 17 L 247 7 L 322 5 Z " fill="#e9b326" fill-rule="evenodd"/>
<path d="M 341 780 L 376 780 L 375 777 Z " fill="#fcf5af" fill-rule="evenodd"/>
<path d="M 644 775 L 651 778 L 663 776 Z " fill="#fcf5af" fill-rule="evenodd"/>
<path d="M 472 742 L 512 743 L 515 740 Z " fill="#fcf5af" fill-rule="evenodd"/>
<path d="M 701 704 L 703 706 L 781 703 L 703 701 Z " fill="#fcf5af" fill-rule="evenodd"/>
<path d="M 613 720 L 633 703 L 674 704 L 690 716 L 675 700 L 632 700 Z " fill="#fcf5af" fill-rule="evenodd"/>
<path d="M 218 721 L 237 704 L 278 704 L 294 715 L 279 700 L 238 700 Z " fill="#fcf5af" fill-rule="evenodd"/>
<path d="M 525 701 L 525 723 L 527 705 L 530 702 L 584 703 L 601 715 L 585 699 Z " fill="#fcf5af" fill-rule="evenodd"/>
<path d="M 386 701 L 388 705 L 392 702 L 447 703 L 463 716 L 446 699 Z " fill="#fcf5af" fill-rule="evenodd"/>
<path d="M 309 701 L 311 706 L 338 702 L 334 699 Z " fill="#fcf5af" fill-rule="evenodd"/>
<path d="M 216 697 L 187 697 L 155 731 L 157 732 L 189 700 L 213 700 Z " fill="#fcf5af" fill-rule="evenodd"/>
<path d="M 115 701 L 149 701 L 151 698 L 127 697 Z " fill="#fcf5af" fill-rule="evenodd"/>
<path d="M 550 631 L 533 630 L 527 644 L 528 649 L 535 646 L 539 634 Z " fill="#fcf5af" fill-rule="evenodd"/>
<path d="M 542 607 L 536 609 L 536 617 L 528 621 L 529 624 L 543 623 Z " fill="#fcf5af" fill-rule="evenodd"/>
<path d="M 572 572 L 569 598 L 574 614 Z " fill="#fcf5af" fill-rule="evenodd"/>
<path d="M 458 533 L 426 533 L 423 542 L 431 541 L 427 539 L 434 533 L 450 534 L 452 536 L 448 542 L 458 541 Z " fill="#fcf5af" fill-rule="evenodd"/>
<path d="M 488 527 L 488 537 L 495 542 L 501 552 L 508 553 L 528 543 L 527 525 Z " fill="#fcf5af" fill-rule="evenodd"/>
<path d="M 422 513 L 430 515 L 437 525 L 444 519 L 455 519 L 459 515 Z " fill="#fcf5af" fill-rule="evenodd"/>
<path d="M 514 486 L 513 499 L 516 499 L 518 494 Z " fill="#fcf5af" fill-rule="evenodd"/>
<path d="M 561 464 L 540 469 L 540 504 L 537 508 L 539 533 L 550 525 L 549 504 L 554 477 L 552 474 L 556 469 L 560 469 Z " fill="#fcf5af" fill-rule="evenodd"/>
<path d="M 611 423 L 610 446 L 616 453 L 616 427 Z " fill="#fcf5af" fill-rule="evenodd"/>
<path d="M 509 377 L 505 381 L 507 393 L 511 397 L 523 397 L 529 390 L 528 378 L 521 375 Z " fill="#fcf5af" fill-rule="evenodd"/>
<path d="M 614 369 L 611 372 L 612 401 L 609 405 L 612 418 L 617 414 L 617 375 Z " fill="#fcf5af" fill-rule="evenodd"/>
<path d="M 446 351 L 434 363 L 433 387 L 425 399 L 424 459 L 427 469 L 447 468 L 450 464 L 451 368 Z " fill="#fcf5af" fill-rule="evenodd"/>
<path d="M 505 309 L 457 342 L 457 357 L 461 365 L 473 368 L 481 354 L 509 343 L 542 343 L 562 361 L 567 383 L 566 396 L 561 407 L 542 424 L 503 426 L 491 423 L 476 409 L 470 396 L 460 403 L 480 425 L 491 433 L 492 430 L 495 431 L 496 442 L 501 451 L 498 454 L 493 446 L 489 447 L 489 470 L 498 471 L 505 481 L 511 480 L 517 473 L 518 446 L 530 435 L 534 452 L 539 440 L 559 431 L 561 428 L 558 422 L 564 414 L 570 412 L 571 395 L 585 386 L 585 381 L 575 374 L 575 362 L 572 362 L 569 353 L 561 348 L 559 336 L 554 336 L 549 328 L 538 328 L 533 334 L 529 334 L 526 329 L 533 324 L 532 322 L 528 322 L 523 316 L 510 315 Z M 509 443 L 512 446 L 512 470 L 507 473 L 504 470 L 502 456 L 505 446 Z " fill="#fcf5af" fill-rule="evenodd"/>
<path d="M 421 241 L 437 253 L 459 253 L 468 249 L 476 238 L 469 243 L 464 233 L 459 245 L 456 242 L 456 235 L 451 233 L 444 245 L 442 234 L 438 232 L 432 243 L 427 237 L 421 238 Z " fill="#fcf5af" fill-rule="evenodd"/>
<path d="M 493 218 L 491 230 L 511 243 L 510 249 L 515 254 L 524 254 L 528 251 L 530 244 L 520 237 L 535 231 L 535 223 L 530 218 L 521 218 L 516 222 L 497 222 Z " fill="#fcf5af" fill-rule="evenodd"/>
<path d="M 405 219 L 400 222 L 381 222 L 376 217 L 370 217 L 363 224 L 363 231 L 378 237 L 368 243 L 370 252 L 382 255 L 385 253 L 388 243 L 407 230 Z " fill="#fcf5af" fill-rule="evenodd"/>
<path d="M 516 148 L 511 158 L 518 161 L 511 167 L 511 176 L 535 183 L 541 177 L 541 170 L 530 162 L 534 157 L 533 152 L 525 147 Z " fill="#fcf5af" fill-rule="evenodd"/>
<path d="M 381 148 L 373 147 L 365 153 L 365 158 L 371 163 L 361 165 L 357 169 L 357 176 L 362 182 L 370 182 L 376 177 L 388 175 L 388 167 L 380 160 L 382 157 L 388 158 Z " fill="#fcf5af" fill-rule="evenodd"/>
<path d="M 430 130 L 404 147 L 396 163 L 396 189 L 402 199 L 420 210 L 427 222 L 431 223 L 438 219 L 439 226 L 444 228 L 450 221 L 454 228 L 458 228 L 462 220 L 467 226 L 470 225 L 480 210 L 489 208 L 501 196 L 503 165 L 496 150 L 476 134 L 466 130 Z M 447 189 L 454 193 L 461 205 L 457 212 L 446 209 L 440 213 L 437 210 L 437 204 Z M 471 161 L 484 161 L 494 173 L 494 188 L 483 199 L 468 199 L 455 185 L 455 175 Z M 416 155 L 429 155 L 445 167 L 440 186 L 429 195 L 417 195 L 406 186 L 406 164 Z " fill="#fcf5af" fill-rule="evenodd"/>
<path d="M 533 843 L 495 844 L 491 849 L 487 847 L 487 844 L 488 852 L 507 852 Z " fill="#421a47" fill-rule="evenodd"/>
<path d="M 441 843 L 374 842 L 362 847 L 390 852 L 435 852 L 429 842 L 438 841 L 441 844 L 439 852 Z " fill="#421a47" fill-rule="evenodd"/>
<path d="M 557 637 L 551 636 L 552 647 L 541 656 L 532 656 L 532 664 L 525 663 L 526 665 L 552 657 L 561 647 L 557 644 Z " fill="#421a47" fill-rule="evenodd"/>
<path d="M 522 630 L 514 654 L 517 663 L 523 641 L 520 641 Z " fill="#421a47" fill-rule="evenodd"/>
<path d="M 597 620 L 589 639 L 562 663 L 564 665 L 596 636 L 599 629 Z " fill="#421a47" fill-rule="evenodd"/>
<path d="M 297 620 L 297 629 L 302 637 L 331 666 L 336 664 L 305 635 L 300 618 Z " fill="#421a47" fill-rule="evenodd"/>
<path d="M 491 583 L 489 591 L 493 596 L 493 611 L 502 613 L 503 583 Z M 498 583 L 504 586 L 504 600 L 501 604 L 493 597 L 493 588 Z " fill="#421a47" fill-rule="evenodd"/>
<path d="M 547 581 L 531 595 L 527 604 L 527 617 L 532 619 L 539 600 L 547 592 L 555 589 L 552 596 L 556 602 L 557 616 L 552 624 L 562 624 L 564 608 L 557 603 L 556 596 L 563 587 L 561 583 L 556 588 L 551 581 Z " fill="#421a47" fill-rule="evenodd"/>
<path d="M 484 551 L 483 560 L 488 570 L 509 571 L 499 571 Z " fill="#421a47" fill-rule="evenodd"/>
<path d="M 579 495 L 578 510 L 575 509 L 575 494 L 571 498 L 570 529 L 545 548 L 540 555 L 540 562 L 543 564 L 555 557 L 547 558 L 544 555 L 547 549 L 564 544 L 575 536 L 575 523 L 579 518 Z " fill="#421a47" fill-rule="evenodd"/>
<path d="M 499 490 L 505 506 L 521 507 L 526 502 L 526 498 L 503 500 Z " fill="#421a47" fill-rule="evenodd"/>
<path d="M 493 515 L 492 499 L 490 497 L 488 502 L 484 503 L 477 498 L 476 492 L 469 488 L 457 491 L 453 496 L 439 501 L 429 497 L 421 505 L 423 511 L 458 511 L 456 502 L 461 494 L 466 505 L 480 506 L 486 517 Z " fill="#421a47" fill-rule="evenodd"/>
<path d="M 408 469 L 412 470 L 414 477 L 429 483 L 450 483 L 461 478 L 464 472 L 459 472 L 454 477 L 429 477 L 424 471 L 417 473 L 415 471 L 419 467 L 411 465 Z " fill="#421a47" fill-rule="evenodd"/>
<path d="M 297 440 L 297 469 L 303 474 L 303 484 L 317 499 L 317 520 L 326 533 L 329 533 L 332 524 L 335 527 L 337 548 L 344 551 L 348 545 L 350 547 L 350 568 L 352 570 L 355 565 L 358 566 L 358 580 L 367 585 L 372 576 L 375 579 L 376 604 L 391 611 L 393 600 L 397 597 L 400 600 L 401 619 L 410 612 L 413 622 L 426 630 L 431 623 L 436 623 L 441 634 L 446 626 L 449 626 L 453 633 L 457 632 L 457 604 L 461 597 L 464 600 L 464 628 L 469 628 L 469 616 L 472 613 L 477 620 L 486 619 L 486 596 L 481 597 L 477 593 L 471 578 L 471 544 L 468 548 L 471 563 L 468 580 L 475 598 L 474 608 L 470 613 L 465 611 L 462 596 L 458 597 L 455 607 L 451 605 L 446 588 L 442 589 L 439 595 L 428 593 L 422 588 L 407 589 L 404 604 L 401 603 L 398 581 L 393 586 L 389 585 L 388 578 L 380 573 L 378 558 L 374 566 L 369 564 L 372 532 L 366 540 L 364 529 L 359 528 L 357 517 L 345 531 L 343 529 L 345 516 L 335 511 L 332 507 L 332 492 L 323 487 L 323 465 L 314 460 L 316 450 L 312 448 L 309 454 Z " fill="#421a47" fill-rule="evenodd"/>
<path d="M 574 421 L 563 438 L 575 430 Z " fill="#421a47" fill-rule="evenodd"/>
<path d="M 460 399 L 459 437 L 469 425 L 480 430 L 464 420 L 458 410 Z " fill="#421a47" fill-rule="evenodd"/>
<path d="M 460 367 L 460 390 L 467 394 L 464 397 L 468 395 L 469 374 L 474 369 L 471 371 Z " fill="#421a47" fill-rule="evenodd"/>
<path d="M 259 367 L 256 370 L 256 409 L 264 417 L 264 428 L 264 379 L 276 395 L 274 444 L 276 439 L 283 436 L 280 457 L 285 442 L 285 410 L 283 413 L 276 402 L 275 379 L 268 368 L 263 374 L 263 409 L 260 412 L 256 408 L 256 371 Z " fill="#421a47" fill-rule="evenodd"/>
<path d="M 617 360 L 615 365 L 618 365 L 627 379 L 619 405 L 621 414 L 627 408 L 627 377 L 624 372 L 627 370 L 631 374 L 632 388 L 632 376 L 635 373 L 639 375 L 639 415 L 635 419 L 632 416 L 632 395 L 633 440 L 620 449 L 623 452 L 620 457 L 629 449 L 635 438 L 635 424 L 639 417 L 639 374 Z " fill="#421a47" fill-rule="evenodd"/>
<path d="M 505 360 L 489 374 L 487 391 L 488 380 L 511 358 L 524 358 L 543 377 L 544 398 L 537 410 L 528 417 L 504 416 L 490 405 L 488 396 L 488 406 L 494 412 L 511 420 L 524 420 L 536 416 L 544 404 L 547 385 L 544 370 L 533 364 L 530 359 Z " fill="#421a47" fill-rule="evenodd"/>
<path d="M 576 326 L 570 327 L 568 343 L 573 333 L 580 336 L 576 346 L 578 344 L 581 347 L 578 351 L 581 360 L 577 373 L 589 381 L 587 387 L 593 397 L 594 406 L 584 409 L 578 404 L 576 406 L 587 411 L 584 414 L 588 419 L 588 425 L 581 437 L 556 444 L 543 452 L 531 452 L 534 462 L 555 452 L 565 453 L 573 441 L 588 433 L 599 413 L 599 366 L 588 337 Z M 581 361 L 586 361 L 593 372 L 587 378 L 580 375 Z " fill="#421a47" fill-rule="evenodd"/>
<path d="M 525 309 L 529 320 L 533 320 L 537 326 L 550 326 L 553 333 L 559 335 L 562 343 L 566 344 L 562 341 L 559 319 L 533 309 Z " fill="#421a47" fill-rule="evenodd"/>
</svg>