<?xml version="1.0" standalone="no"?>
<!DOCTYPE svg PUBLIC "-//W3C//DTD SVG 20010904//EN"
 "http://www.w3.org/TR/2001/REC-SVG-20010904/DTD/svg10.dtd">
<svg version="1.0" xmlns="http://www.w3.org/2000/svg"
 width="1024.000000pt" height="1536.000000pt" viewBox="0 0 1024.000000 1536.000000"
 preserveAspectRatio="xMidYMid meet">
<metadata>
Created by potrace 1.16, written by Peter Selinger 2001-2019
</metadata>
<g transform="translate(0.000000,1536.000000) scale(0.100000,-0.100000)"
fill="#000000" stroke="none">
<path d="M2916 13715 c-8 -9 -19 -16 -23 -15 -4 0 -8 -7 -8 -16 0 -9 -10 -24
-23 -34 -22 -18 -22 -19 -22 -339 0 -177 3 -321 8 -321 4 0 7 -212 7 -472 0
-368 -3 -472 -12 -475 -10 -4 -13 -117 -13 -523 0 -335 -4 -521 -10 -525 -6
-4 -10 -193 -10 -534 l0 -528 -42 -21 c-24 -11 -63 -28 -88 -38 -25 -10 -54
-25 -65 -34 -11 -10 -28 -20 -37 -23 -10 -4 -18 -16 -18 -27 0 -11 -7 -23 -15
-26 -9 -4 -15 -19 -15 -38 0 -19 -9 -40 -22 -53 -90 -88 -113 -115 -144 -171
-20 -35 -38 -61 -42 -58 -13 14 -119 -116 -156 -190 -21 -44 -54 -100 -72
-127 -19 -26 -34 -50 -34 -54 0 -26 -75 -237 -93 -259 -20 -26 -22 -42 -25
-175 -3 -151 0 -169 49 -261 5 -10 9 -24 9 -33 0 -8 9 -19 20 -25 11 -6 20
-16 20 -23 0 -12 104 -114 152 -149 73 -54 102 -77 121 -94 7 -6 42 -20 79
-32 85 -28 171 -29 222 -3 24 13 49 18 69 14 28 -4 35 -1 47 21 7 15 18 25 24
23 15 -5 21 -1517 6 -1517 -5 0 -10 -6 -10 -14 0 -7 -9 -16 -20 -19 -19 -5
-19 -21 -22 -1263 -3 -1343 -1 -1272 -48 -1323 -8 -9 -26 -31 -40 -49 -14 -18
-33 -43 -42 -54 -10 -12 -18 -25 -18 -30 0 -4 -6 -7 -12 -6 -10 2 -14 -28 -16
-119 -3 -142 -8 -135 109 -154 41 -7 79 -15 84 -19 6 -4 44 -8 85 -9 41 0 109
-5 150 -11 96 -12 263 -12 365 0 148 17 167 20 189 33 11 6 28 12 36 14 14 1
36 5 108 19 18 4 37 15 43 25 9 18 23 19 259 17 189 -2 252 0 261 9 7 7 20 13
29 13 8 0 24 13 35 28 18 24 20 40 17 141 -3 107 -5 115 -28 133 -24 19 -24
20 -24 203 l0 184 -30 21 -30 22 2 211 3 212 51 5 c55 6 104 33 170 95 l39 37
-2 89 c-1 84 -3 91 -27 112 -25 22 -26 27 -26 123 0 85 -3 104 -18 117 -10 10
-23 17 -29 17 -18 0 -22 26 -11 63 13 43 41 52 228 72 30 4 63 8 73 11 12 4
17 0 17 -15 0 -11 5 -23 10 -26 6 -3 10 -18 10 -33 0 -46 11 -69 38 -83 56
-30 77 -62 78 -120 3 -154 32 -309 58 -309 6 0 22 -20 35 -45 13 -25 27 -45
31 -45 3 0 17 -23 29 -51 14 -30 32 -54 46 -59 18 -7 25 -21 35 -77 15 -78 21
-89 67 -108 21 -9 33 -21 33 -33 0 -26 38 -109 54 -119 25 -15 26 -42 2 -70
-12 -16 -26 -39 -29 -53 -12 -45 39 -179 68 -180 7 0 9 -75 7 -215 l-4 -215
30 -29 c21 -18 51 -32 89 -40 66 -15 100 -37 105 -72 2 -17 8 -23 22 -21 18 3
140 -20 200 -39 16 -5 42 -9 57 -9 15 0 32 -7 36 -15 8 -13 60 -15 368 -15
492 -1 495 0 495 166 0 77 -3 95 -20 114 -11 13 -20 35 -20 49 0 27 -44 101
-60 101 -10 0 -65 56 -65 68 -2 25 -19 53 -30 48 -18 -7 -27 5 -14 20 8 9 5
11 -9 7 -20 -5 -72 31 -72 50 0 5 -7 25 -17 44 -13 29 -20 34 -41 30 -30 -6
-63 20 -42 33 15 9 15 26 1 143 -10 83 -12 89 -53 133 -24 25 -47 54 -52 65
-5 10 -13 19 -18 19 -4 0 -8 65 -8 145 0 133 2 148 21 175 21 27 21 34 11 107
-16 115 -23 146 -38 168 -8 11 -14 27 -14 37 0 9 -8 23 -19 30 -10 7 -21 24
-25 38 -12 43 -29 70 -43 70 -7 0 -13 7 -13 15 0 8 -11 22 -24 30 -19 13 -22
21 -17 47 7 34 -7 31 178 47 61 5 116 12 122 15 6 4 13 34 17 67 l7 60 76 -2
c74 -1 131 -14 131 -29 0 -4 9 -10 20 -13 11 -3 20 -12 20 -20 0 -18 45 -26
136 -25 57 0 64 3 108 42 55 51 60 84 21 164 -14 29 -25 57 -25 62 0 25 -62
107 -158 209 -24 25 -50 58 -60 74 -9 15 -22 27 -29 27 -7 0 -13 4 -13 9 0 12
-163 174 -203 201 -18 12 -48 43 -67 69 -19 25 -51 61 -72 79 -20 19 -39 44
-42 57 -3 13 -15 27 -26 30 -11 3 -20 10 -20 16 0 5 -8 18 -17 29 -10 11 -27
37 -39 58 -11 20 -30 38 -41 40 -15 2 -19 9 -15 28 2 14 0 24 -7 24 -6 0 -11
4 -11 9 0 5 -13 23 -30 39 -22 22 -30 40 -30 65 0 40 -18 97 -31 97 -15 0 -39
71 -33 96 5 19 0 27 -25 41 -17 10 -31 22 -31 26 0 16 -50 117 -58 117 -4 0
-16 20 -26 45 -11 25 -22 45 -25 45 -9 0 -61 96 -55 103 3 3 5 87 4 187 0 173
-2 184 -23 211 -12 15 -27 26 -33 24 -20 -6 -54 39 -54 73 0 17 5 34 10 37 15
9 12 72 -4 78 -9 4 -12 15 -8 33 6 34 27 76 34 69 6 -6 18 25 39 95 7 25 21
56 31 69 10 13 18 38 18 56 0 94 30 123 91 88 17 -10 42 -24 55 -31 37 -20 47
-47 33 -87 -26 -71 16 -262 52 -239 5 3 9 0 9 -6 0 -6 4 -9 9 -6 8 5 11 -4 27
-86 8 -39 45 -95 108 -162 25 -27 51 -64 57 -83 6 -18 15 -33 20 -33 5 0 9 -7
9 -15 0 -9 8 -19 17 -22 9 -4 40 -30 67 -59 28 -28 60 -56 71 -62 17 -9 20
-22 21 -115 2 -72 8 -115 18 -136 9 -16 16 -39 16 -50 0 -13 31 -47 90 -97 50
-42 90 -80 90 -84 0 -7 74 -26 90 -23 97 16 105 15 138 -16 26 -25 40 -31 78
-31 25 0 54 -5 65 -11 23 -12 104 -2 122 15 15 15 79 33 141 41 27 4 55 12 62
18 7 7 28 23 46 36 39 28 108 114 108 134 0 8 8 29 17 48 20 39 24 152 7 169
-9 9 -9 21 -1 46 15 51 -13 133 -72 204 -84 103 -91 114 -85 130 50 117 27
228 -69 333 -26 29 -36 50 -40 89 -9 70 -37 140 -54 134 -7 -3 -13 1 -13 10 0
19 -60 138 -71 142 -5 2 -9 9 -9 15 0 7 -9 18 -20 25 -11 7 -20 17 -20 23 0
16 -27 36 -77 59 -42 19 -43 20 -43 68 0 35 -6 57 -21 75 -47 61 -127 129
-166 141 -11 4 -24 13 -27 21 -3 8 -16 15 -29 15 -23 0 -25 4 -29 70 -4 55
-11 77 -32 104 -14 19 -26 39 -26 44 0 6 -3 12 -7 14 -13 5 -73 86 -73 98 0 6
7 18 15 26 21 22 21 147 0 164 -9 7 -14 19 -11 26 3 7 1 16 -4 19 -6 4 -10 15
-10 25 0 19 -79 105 -135 148 -16 12 -53 40 -82 62 -29 22 -56 40 -61 40 -5 0
-15 7 -22 15 -6 8 -15 14 -18 13 -12 -2 -92 35 -92 42 0 4 -12 10 -27 13 -16
3 -45 17 -66 31 -21 14 -42 26 -47 26 -6 0 -10 5 -10 10 0 6 -13 10 -29 10
-16 0 -48 7 -71 15 -23 8 -68 15 -100 15 -60 0 -71 8 -66 46 2 11 11 20 22 22
53 8 64 13 64 32 0 11 -6 20 -13 20 -7 0 -23 10 -37 23 -14 12 -41 33 -60 47
-19 13 -37 27 -40 30 -11 14 -127 69 -160 76 -19 3 -45 14 -57 23 l-21 17 26
12 c15 6 34 16 42 21 8 6 36 20 62 32 42 19 58 20 135 14 269 -21 275 -21 299
-3 12 10 36 18 52 18 21 0 37 8 50 25 21 27 48 31 135 19 44 -6 46 -8 52 -45
6 -36 9 -38 48 -44 23 -3 83 -5 132 -3 l90 3 1 32 c0 18 2 35 5 37 6 7 224
-29 364 -59 25 -5 85 -25 106 -36 9 -4 34 -11 55 -15 22 -4 42 -12 46 -18 11
-17 276 -16 290 1 6 8 33 13 67 13 56 0 57 -1 66 -32 l10 -33 94 -3 c56 -2 98
1 105 8 15 15 45 12 80 -9 44 -27 123 -40 256 -42 63 -2 131 -6 150 -11 19 -5
69 -13 110 -18 71 -9 76 -9 92 13 16 21 23 22 187 22 167 0 170 0 196 25 24
22 34 25 93 22 43 -1 79 3 102 13 19 8 71 24 115 34 181 44 232 62 242 84 14
31 -2 62 -64 125 -29 30 -53 58 -53 63 0 5 -8 9 -19 9 -21 0 -45 23 -34 33 3
4 19 7 34 7 16 0 44 7 63 17 29 13 36 22 38 51 3 30 8 37 35 46 17 6 34 14 38
17 11 11 -21 75 -49 96 -18 15 -26 30 -26 53 0 17 -4 50 -9 73 -8 36 -21 101
-37 185 -3 15 -11 22 -28 22 -20 0 -25 6 -30 38 -3 20 -6 45 -7 54 0 10 -4 20
-10 23 -5 4 -9 24 -9 45 0 21 -4 42 -10 45 -5 3 -10 23 -10 44 0 26 -8 47 -25
67 -26 30 -33 68 -15 79 6 3 10 27 10 53 0 41 -4 49 -31 67 -16 11 -34 19 -40
18 -5 -2 -9 23 -9 55 0 31 -3 73 -6 93 -5 32 -3 37 16 42 21 5 23 10 17 62 -3
32 -13 65 -21 74 -11 12 -13 29 -9 61 3 25 9 47 12 50 13 11 32 81 26 99 -3
12 0 21 10 25 8 3 15 14 15 25 0 11 11 28 24 38 14 10 27 32 30 53 12 80 33
131 55 143 15 7 29 29 37 57 8 25 21 68 30 95 8 28 17 66 19 86 1 20 10 47 18
60 17 26 44 248 33 274 -9 25 -49 35 -66 16 -27 -29 -124 -83 -133 -74 -9 9
-75 -36 -82 -56 -4 -12 -28 -23 -83 -37 -42 -10 -82 -25 -89 -34 -7 -8 -13
-10 -13 -5 0 6 -4 3 -10 -5 -21 -34 -357 -68 -680 -69 -319 -1 -552 20 -805
73 -38 8 -114 22 -167 32 -64 10 -98 21 -98 29 0 12 -123 43 -134 34 -2 -2
-12 3 -22 12 -11 9 -39 17 -64 18 -43 2 -174 44 -195 62 -5 5 -21 9 -36 9 -15
0 -34 7 -43 15 -8 8 -22 15 -31 15 -22 0 -171 38 -215 54 -19 7 -62 17 -95 21
-32 4 -64 13 -70 20 -5 7 -44 17 -85 23 -109 16 -133 22 -150 37 -18 16 -91
34 -141 35 -19 0 -40 5 -45 10 -15 15 -224 57 -325 65 -50 5 -99 15 -122 27
-35 18 -70 20 -427 25 -279 4 -393 3 -403 -5 -7 -6 -66 -14 -131 -18 -66 -3
-134 -13 -153 -21 -19 -7 -82 -22 -140 -33 -74 -13 -112 -25 -127 -39 -17 -16
-36 -21 -75 -21 -50 0 -101 -22 -123 -54 -4 -6 -24 -11 -45 -11 -49 -1 -133
-25 -156 -44 -13 -11 -26 -12 -55 -5 -30 7 -38 14 -40 37 -2 15 -12 32 -23 37
-25 14 -24 51 1 92 17 28 20 51 20 150 l0 116 -40 35 c-22 19 -40 39 -40 44 0
16 -53 23 -181 23 -92 0 -121 -3 -133 -15z m236 -51 c11 -7 10 -46 -2 -64 -8
-12 -10 -9 -10 13 0 15 -4 27 -9 27 -6 0 -9 -45 -8 -102 l2 -103 -43 0 -43 0
-3 85 c-4 111 -12 140 -40 141 -19 1 -19 2 4 10 24 8 136 3 152 -7z m1639
-442 c15 -9 38 -31 53 -48 l26 -32 0 -196 c0 -166 -2 -198 -15 -202 -8 -4 -15
-12 -15 -18 0 -21 -54 -63 -90 -71 -19 -4 -76 -9 -127 -12 l-91 -4 -36 36 -36
36 0 215 0 215 43 43 c49 52 54 53 172 55 70 1 96 -3 116 -17z m258 12 l31 -6
0 -229 0 -229 94 0 94 0 6 -31 c3 -17 6 -42 6 -55 l0 -24 -159 0 c-115 0 -161
3 -168 13 -10 12 -17 543 -7 558 6 10 58 12 103 3z m-654 -56 c-4 -18 -18 -51
-31 -73 -64 -112 -114 -206 -114 -218 0 -7 16 -36 35 -64 19 -29 35 -55 35
-58 0 -3 29 -41 65 -85 36 -44 65 -84 65 -90 0 -5 -22 -10 -49 -10 -27 0 -62
-3 -80 -6 -24 -5 -32 -3 -38 12 -4 11 -12 24 -17 30 -6 7 -19 22 -28 35 -9 13
-33 47 -53 74 -19 28 -38 58 -41 68 -4 9 -15 17 -25 17 -18 0 -19 -10 -19
-160 l0 -160 -65 0 -65 0 2 337 3 337 63 11 c34 7 64 9 67 7 3 -3 5 -65 5
-139 0 -73 3 -133 8 -133 4 0 25 35 47 78 22 42 42 79 45 82 3 3 15 26 27 53
13 26 27 47 33 47 5 0 10 9 10 20 0 18 7 20 61 20 l61 0 -7 -32z m1105 2 c120
-15 147 -26 181 -72 37 -52 41 -133 8 -180 -19 -26 -20 -30 -6 -41 9 -7 21
-25 27 -40 14 -39 12 -136 -3 -167 -20 -40 -73 -62 -137 -56 -50 5 -221 24
-227 25 -2 1 -3 123 -3 271 l0 270 38 0 c21 0 76 -5 122 -10z m715 -172 c157
-32 205 -76 205 -192 0 -48 -3 -58 -25 -72 l-25 -16 30 -35 c27 -30 30 -41 30
-98 0 -57 -3 -69 -28 -96 -36 -40 -92 -47 -238 -28 l-104 13 0 277 0 276 28
-4 c15 -2 72 -13 127 -25z m-3110 -463 l0 -465 -32 0 -33 0 0 459 c0 429 1
460 18 464 50 13 47 41 47 -458z m3589 345 c96 -21 155 -54 175 -96 7 -16 11
-90 11 -199 l0 -174 -35 -27 c-34 -25 -38 -26 -137 -22 -57 3 -121 11 -143 19
l-40 14 -6 65 c-9 94 -10 383 -1 397 8 13 62 43 77 43 6 0 50 -9 99 -20z
m-795 -6 c32 -4 65 -10 71 -14 7 -4 15 -31 18 -59 5 -59 13 -57 -119 -39 l-89
12 0 51 c0 59 6 68 37 60 12 -3 49 -8 82 -11z m-2613 -62 c27 -18 55 -148 61
-285 6 -124 8 -140 25 -146 18 -6 19 -24 18 -396 l0 -390 -25 -22 -25 -22 0
-216 c0 -197 -2 -216 -17 -221 -10 -3 -25 -9 -33 -13 -13 -7 -15 10 -15 123
-1 72 -5 461 -9 864 -5 432 -5 732 0 732 5 0 14 -4 20 -8z m3732 -13 c26 -6
76 -19 112 -30 36 -10 92 -20 124 -23 33 -3 63 -9 68 -14 11 -11 -3 -112 -16
-112 -6 0 -33 7 -60 15 -27 8 -53 15 -57 15 -5 0 -10 -82 -11 -182 -3 -206 1
-196 -85 -183 l-44 6 2 195 c1 107 0 196 -2 197 -2 2 -24 10 -49 18 -38 13
-46 21 -51 50 -5 20 -3 39 3 46 13 16 9 16 66 2z m-1298 -401 c0 -70 47 -218
63 -201 4 3 7 1 7 -6 0 -35 80 -64 158 -58 50 4 92 27 92 49 0 5 6 16 14 23
18 18 27 100 17 153 l-8 42 46 0 c29 0 64 -9 95 -25 27 -14 54 -25 60 -25 16
0 166 -151 166 -167 1 -13 48 -63 60 -63 5 0 10 -6 10 -13 0 -7 9 -18 20 -25
11 -7 20 -19 20 -26 0 -8 9 -17 19 -21 11 -3 23 -15 26 -26 4 -10 10 -19 15
-19 4 0 23 -15 41 -33 53 -51 62 -56 128 -71 l63 -15 -7 45 c-7 47 -1 52 30
30 11 -7 32 -16 47 -20 17 -4 25 -11 22 -19 -3 -9 10 -20 36 -32 28 -12 40
-24 40 -38 0 -27 -22 -87 -32 -87 -4 0 -8 -9 -8 -19 0 -10 -7 -21 -15 -25 -8
-3 -15 -11 -15 -17 0 -16 -57 -66 -104 -90 -21 -12 -48 -29 -59 -40 -24 -22
-102 -26 -129 -5 -15 11 -13 14 23 30 22 10 43 24 46 32 3 8 14 14 24 14 10 0
19 5 19 10 0 6 6 10 13 10 34 1 151 140 133 158 -3 3 -30 4 -60 3 -51 -2 -156
23 -156 38 0 11 -59 33 -70 26 -5 -3 -10 0 -10 8 0 7 -18 23 -40 36 -25 14
-40 29 -40 42 0 12 -7 19 -19 19 -11 0 -23 12 -31 30 -7 16 -17 28 -24 27 -6
-1 -10 8 -9 20 2 16 -2 21 -12 17 -9 -4 -16 3 -20 19 -4 14 -13 28 -21 31 -8
3 -14 12 -14 20 0 9 -9 20 -20 26 -11 6 -20 17 -20 25 0 8 -4 15 -10 15 -5 0
-20 10 -33 23 -55 52 -103 87 -116 85 -9 -2 -20 -29 -28 -73 -8 -38 -19 -73
-25 -76 -5 -3 -9 -10 -9 -15 1 -23 -25 -62 -62 -90 -35 -28 -43 -30 -68 -20
-16 6 -29 14 -29 18 0 13 -30 9 -31 -4 0 -10 -2 -10 -6 -1 -3 9 -17 11 -43 7
-29 -5 -43 -2 -55 10 -9 9 -24 16 -32 16 -9 0 -14 2 -11 5 3 3 -12 23 -33 44
-22 21 -39 45 -39 54 0 10 -4 17 -9 17 -11 0 -31 78 -31 119 0 24 -4 31 -19
31 -11 0 -23 -5 -26 -10 -4 -6 -11 -8 -16 -5 -5 4 -9 2 -9 -4 0 -6 -11 -13
-25 -17 -13 -3 -27 -15 -30 -25 -4 -10 -11 -19 -16 -19 -5 0 -9 -7 -9 -15 0
-8 -4 -14 -9 -12 -10 2 -61 -50 -61 -64 0 -5 -5 -9 -11 -9 -15 0 -79 -62 -79
-77 0 -7 -11 -13 -26 -13 -14 0 -23 -4 -19 -10 3 -5 -2 -10 -12 -10 -10 0 -25
-9 -33 -20 -8 -11 -22 -20 -32 -20 -10 0 -18 -4 -18 -8 0 -16 -167 -78 -178
-67 -3 3 -10 1 -16 -4 -7 -6 -39 -6 -81 -1 -78 10 -99 2 -72 -28 9 -10 17 -24
17 -31 0 -6 6 -14 14 -17 8 -3 18 -19 21 -35 4 -16 10 -29 14 -29 12 0 71 -59
71 -70 0 -6 5 -10 10 -10 6 0 20 -9 32 -20 12 -10 25 -17 30 -14 4 3 8 1 8 -4
0 -6 11 -13 25 -16 14 -4 23 -11 20 -16 -3 -6 -1 -10 6 -10 7 0 9 -3 6 -7 -4
-3 -15 0 -24 9 -20 16 -67 22 -58 7 4 -5 -4 -9 -17 -8 -13 0 -17 3 -10 6 19 8
14 23 -8 23 -11 0 -20 5 -20 10 0 6 -16 10 -36 10 -22 0 -33 4 -29 11 4 6 13
8 21 5 8 -3 14 -1 14 4 0 6 -16 10 -35 10 -28 0 -36 4 -41 25 -3 13 -15 27
-25 30 -10 4 -19 13 -19 21 0 8 -5 14 -11 14 -6 0 -8 10 -5 23 3 12 3 16 0 10
-8 -18 -24 -16 -24 2 0 8 -4 15 -8 15 -15 0 -51 88 -58 139 l-7 51 32 0 c17 0
51 5 76 12 41 11 46 15 43 38 -4 35 37 42 47 8 4 -13 14 -42 23 -66 17 -43 18
-44 55 -39 43 6 181 71 209 99 10 10 22 18 28 18 14 0 119 107 112 115 -4 4
-2 6 3 5 22 -5 35 1 35 13 0 8 11 19 25 25 14 6 25 16 25 22 0 5 7 10 15 10 8
0 15 6 15 13 0 15 53 57 72 57 8 0 23 6 34 14 21 15 51 23 102 25 30 1 32 -1
32 -31z m-2634 -425 c-3 -21 -5 -217 -5 -435 l-1 -398 -35 0 -34 0 -1 426 c0
235 -3 430 -6 435 -3 5 15 9 41 9 l46 0 -5 -37z m2904 12 c106 -17 171 -42
163 -62 -3 -8 0 -13 8 -11 9 2 13 -6 13 -25 -1 -17 0 -20 3 -7 2 11 9 20 14
20 20 0 79 -29 79 -39 0 -6 6 -11 13 -11 13 0 71 -53 107 -96 21 -26 25 -217
5 -248 -8 -12 -12 -26 -9 -29 4 -4 -1 -9 -10 -13 -9 -3 -16 -14 -17 -23 0 -10
-2 -11 -6 -3 -9 22 -20 13 -15 -13 3 -18 0 -25 -12 -25 -9 0 -16 5 -16 11 0 5
-5 7 -11 4 -6 -5 -4 -12 8 -21 13 -11 14 -14 3 -12 -8 2 -14 -3 -12 -9 1 -7
-2 -13 -8 -13 -5 0 -10 6 -10 13 0 9 -2 9 -8 0 -4 -7 -26 -13 -49 -14 l-42 -3
-12 -55 c-13 -66 -28 -101 -43 -101 -6 0 -16 -20 -22 -45 -6 -25 -8 -45 -5
-45 2 0 21 8 42 18 34 15 40 24 55 80 9 34 21 62 25 62 5 0 6 7 3 15 -5 11 -2
13 10 9 13 -5 16 -22 16 -86 0 -50 -4 -77 -10 -73 -6 4 -10 -5 -10 -19 0 -35
-32 -66 -61 -59 -15 4 -20 3 -15 -5 4 -6 2 -21 -4 -32 -8 -15 -18 -18 -43 -15
-24 4 -27 3 -12 -3 17 -8 14 -10 -18 -16 -21 -4 -35 -11 -32 -16 3 -6 -1 -7
-9 -4 -9 3 -16 1 -16 -5 0 -17 -100 -10 -135 9 -19 11 -29 24 -27 36 2 18 2
18 -11 2 -8 -10 -19 -18 -25 -18 -18 0 -52 33 -45 43 3 6 1 7 -5 3 -7 -4 -12
-2 -12 3 0 6 -11 11 -25 11 -14 0 -28 7 -31 15 -4 8 -10 15 -14 15 -17 0 -90
84 -91 104 0 12 -3 33 -5 47 -3 16 3 34 16 49 26 30 25 38 -2 43 -21 4 -20 4
3 6 16 0 29 -5 33 -14 3 -8 1 -15 -4 -15 -5 0 5 -15 21 -32 16 -18 32 -43 35
-55 4 -13 12 -23 20 -23 17 0 34 -31 34 -62 0 -13 5 -30 11 -38 7 -11 9 -2 6
32 -2 26 0 45 5 42 4 -3 8 -22 9 -42 l1 -37 9 30 c5 17 7 35 5 42 -7 17 18 23
100 23 72 0 75 -1 85 -27 5 -15 9 -39 8 -53 0 -14 0 -50 1 -80 l3 -55 7 50 c5
28 9 76 9 108 1 50 3 57 21 57 11 0 20 5 20 10 0 6 -5 10 -12 10 -6 0 -2 10 9
23 23 25 37 83 23 92 -6 3 -10 15 -10 26 0 10 -3 19 -7 19 -5 0 -6 -27 -5 -61
3 -47 0 -65 -14 -80 -18 -20 -44 -26 -44 -9 0 6 -8 10 -18 10 -27 0 -19 89 12
143 31 52 26 80 -20 123 -19 17 -34 39 -35 50 0 10 -3 13 -6 7 -2 -7 -13 -13
-24 -13 -47 0 -76 -73 -82 -208 -2 -34 -8 -67 -13 -72 -19 -19 -72 0 -87 33
-8 17 -13 36 -11 42 3 6 -2 18 -11 25 -8 7 -15 19 -15 26 0 21 -40 17 -41 -3
-1 -16 -2 -16 -6 -2 -4 17 -63 33 -63 17 0 -17 -24 -7 -71 29 -33 25 -49 44
-49 59 0 13 -4 26 -10 29 -5 3 -10 12 -9 18 0 9 2 8 6 -1 2 -6 9 -10 14 -6 5
3 3 17 -5 33 -11 20 -14 54 -11 132 6 130 5 129 22 129 8 0 20 14 27 30 7 17
15 27 19 23 4 -3 7 0 7 8 0 12 47 49 63 49 2 0 2 -11 -1 -25 -2 -15 0 -25 7
-25 6 0 11 16 11 35 0 29 4 36 25 41 14 3 22 10 20 15 -3 5 7 12 22 15 18 5
28 3 31 -6 4 -10 6 -10 12 0 18 30 161 37 290 15z m-1720 -322 c-1 -51 10
-113 20 -113 5 0 11 -18 15 -39 13 -75 112 -115 184 -73 17 9 31 22 31 28 0 7
6 14 13 17 14 5 32 72 43 156 l6 53 72 -6 c79 -8 136 -23 136 -37 0 -5 7 -9
15 -9 8 0 20 -9 27 -20 7 -11 18 -20 25 -20 7 0 10 -7 7 -15 -4 -8 -1 -15 6
-15 14 0 40 -25 40 -39 0 -6 6 -11 13 -11 12 0 20 -12 62 -97 8 -18 20 -33 25
-33 6 0 10 -9 10 -20 0 -23 70 -160 82 -160 4 0 8 -9 8 -21 0 -11 13 -34 30
-52 16 -18 30 -36 30 -41 0 -9 56 -66 65 -66 3 0 20 -14 38 -31 17 -17 61 -45
97 -62 36 -17 67 -35 68 -39 2 -4 15 -8 28 -8 13 0 24 -4 24 -9 0 -6 21 -11
47 -13 45 -3 48 -5 56 -39 7 -30 3 -47 -19 -98 -15 -33 -31 -61 -36 -61 -4 0
-8 -9 -8 -20 0 -11 -9 -25 -20 -32 -11 -7 -20 -19 -20 -26 0 -7 -7 -15 -15
-18 -8 -3 -17 -14 -20 -25 -4 -10 -15 -19 -26 -19 -10 0 -19 -7 -19 -15 0 -8
-6 -15 -14 -15 -7 0 -16 -9 -19 -20 -3 -13 -11 -18 -20 -14 -8 3 -18 1 -22 -5
-3 -6 -17 -11 -31 -11 -13 0 -23 -3 -22 -7 3 -9 -5 -13 -24 -13 -9 0 -8 4 2
10 11 7 3 10 -30 11 -34 2 -38 3 -15 6 16 3 32 8 35 12 3 4 22 17 43 30 20 12
37 27 37 32 0 4 7 5 17 2 11 -4 14 -3 9 5 -4 7 6 26 26 45 88 88 128 150 128
198 0 23 -4 29 -22 29 -13 0 -36 8 -53 18 -16 10 -43 22 -58 26 -15 3 -26 10
-23 15 3 4 -5 6 -18 4 -18 -4 -26 0 -31 16 -3 12 -15 21 -26 21 -10 0 -19 5
-19 10 0 6 -6 10 -13 10 -21 0 -190 167 -183 179 4 6 2 11 -4 11 -6 0 -16 11
-22 25 -6 14 -16 25 -22 25 -7 0 -12 10 -13 22 -1 11 -6 24 -11 27 -5 3 -12
17 -16 31 -8 28 -28 72 -36 80 -3 3 -14 23 -24 46 -25 58 -146 194 -171 194
-8 0 -17 9 -20 20 -9 29 -65 28 -65 -1 0 -11 -4 -28 -9 -38 -6 -10 -11 -29
-13 -42 -2 -14 -9 -32 -15 -40 -47 -56 -79 -89 -89 -89 -6 0 -17 -6 -23 -14
-9 -10 -34 -15 -82 -15 -38 0 -74 -3 -79 -6 -6 -3 -10 -1 -10 4 0 6 -12 11
-27 11 -22 0 -25 2 -13 10 12 8 9 10 -12 10 -21 0 -28 5 -28 20 0 11 -6 20
-13 20 -14 0 -43 84 -40 113 2 9 -1 17 -5 17 -4 0 -14 16 -21 35 -13 36 -51
51 -51 20 0 -8 -5 -15 -11 -15 -5 0 -8 -4 -5 -9 4 -5 -7 -12 -24 -16 -17 -4
-35 -15 -41 -26 -5 -11 -14 -17 -20 -14 -5 4 -9 -1 -9 -10 0 -9 -13 -30 -30
-47 -16 -16 -30 -34 -30 -39 0 -5 -7 -9 -15 -9 -9 0 -18 -7 -21 -15 -4 -8 -11
-15 -18 -15 -18 0 -66 -60 -66 -84 -1 -26 -39 -71 -69 -81 -11 -3 -21 -13 -21
-21 0 -8 -5 -14 -12 -14 -6 0 -9 -3 -5 -6 6 -6 -16 -34 -27 -34 -3 0 -16 -10
-29 -22 -46 -45 -77 -68 -91 -68 -8 0 -16 -7 -20 -15 -3 -8 -12 -15 -21 -15
-8 0 -15 -4 -15 -10 0 -5 -7 -10 -15 -10 -8 0 -15 -7 -15 -15 0 -8 -8 -15 -17
-15 -10 0 -31 -7 -47 -15 -15 -8 -37 -15 -47 -15 -11 0 -19 -4 -19 -9 0 -5 -6
-9 -12 -8 -39 1 -58 -5 -58 -17 0 -8 -14 -17 -30 -21 -17 -4 -28 -11 -24 -16
3 -5 -11 -9 -30 -9 -22 0 -36 -5 -38 -15 -3 -13 -6 -13 -30 -1 -28 15 -28 14
-28 -15 0 -16 -5 -29 -11 -29 -7 0 -9 -10 -5 -26 6 -24 5 -25 -26 -22 -27 2
-34 9 -41 35 -5 17 -7 47 -3 67 6 32 11 36 79 61 40 15 85 34 101 41 16 8 33
14 38 14 12 0 211 98 217 108 7 9 36 27 79 49 17 9 32 22 32 29 0 7 9 16 20
19 11 3 20 11 20 16 0 5 5 9 10 9 9 0 70 55 70 64 0 9 79 86 88 86 7 0 12 9
12 20 0 11 5 20 11 20 5 0 7 5 4 10 -3 6 -2 10 4 10 5 0 12 9 16 19 3 11 15
23 26 26 10 4 19 14 19 24 0 9 14 30 30 46 17 16 30 35 30 42 0 7 11 13 25 13
16 0 25 6 25 15 0 8 7 15 16 15 8 0 12 5 9 10 -4 6 7 10 25 10 17 0 29 4 25
10 -3 5 20 16 52 25 32 9 63 18 68 20 6 2 27 4 48 4 37 1 37 0 37 -36z m2645
-164 c5 -5 20 -9 35 -10 23 0 23 -1 5 -9 -11 -5 -14 -9 -7 -9 17 -1 43 -27 35
-35 -4 -3 -1 -6 5 -6 7 0 11 -3 11 -7 -4 -23 3 -43 14 -43 6 0 13 -11 13 -25
2 -21 0 -22 -13 -10 -8 8 -19 15 -24 15 -5 0 -9 6 -9 13 0 8 -18 12 -55 13
-31 0 -61 6 -67 12 -7 7 -21 12 -33 12 -11 0 -31 10 -45 23 -14 13 -31 22 -38
19 -6 -2 -12 1 -12 7 0 6 7 11 15 11 8 0 15 7 15 15 0 25 32 35 90 29 30 -4
59 -10 65 -15z m-1817 -17 c2 -7 12 -12 22 -12 10 0 20 -7 24 -15 3 -8 15 -15
26 -15 11 0 20 -4 20 -8 0 -5 19 -15 43 -22 47 -14 138 -20 131 -8 -11 17 10
7 27 -14 24 -26 24 -34 2 -42 -10 -3 -24 -9 -32 -12 -8 -4 -11 -3 -8 2 3 5
-13 8 -35 6 -26 -3 -36 -7 -27 -13 7 -4 18 -5 24 -3 5 3 1 -2 -10 -11 -19 -15
-99 -19 -90 -5 2 4 -9 7 -25 8 -37 1 -102 31 -94 44 4 5 17 8 30 5 13 -2 21 0
18 5 -4 6 -18 8 -31 5 -31 -6 -67 26 -60 54 3 10 2 17 -3 14 -4 -3 -10 8 -12
23 -3 24 -1 27 26 26 17 0 32 -6 34 -12z m1733 -87 c9 2 24 -8 34 -21 10 -13
24 -24 32 -24 8 0 21 -7 29 -15 9 -8 26 -15 38 -15 13 0 29 -7 36 -15 7 -8 21
-15 31 -15 15 0 19 -7 19 -34 0 -43 -9 -66 -25 -66 -7 0 -16 -7 -19 -16 -5
-13 -14 -15 -38 -10 -30 6 -31 5 -13 -8 19 -15 18 -15 -12 -16 -18 0 -33 5
-33 11 0 5 -4 7 -10 4 -5 -3 -12 5 -16 19 -4 17 -11 23 -22 19 -10 -4 -13 -2
-8 5 4 7 1 15 -8 18 -9 3 -16 12 -16 20 0 8 -10 15 -22 15 -17 1 -19 2 -5 6 9
2 17 10 17 17 0 10 -12 11 -47 5 -27 -4 -73 -8 -103 -8 -31 -1 -60 -5 -65 -9
-18 -15 -154 -44 -184 -40 -21 3 -28 1 -24 -9 4 -9 0 -11 -11 -7 -9 3 -16 4
-16 1 0 -6 69 -39 115 -55 101 -35 124 -45 119 -53 -12 -20 94 -28 189 -14 62
9 98 0 90 -22 -4 -11 -2 -14 5 -9 14 9 30 -21 38 -73 5 -29 3 -41 -5 -41 -7 0
-9 -4 -6 -10 4 -6 -7 -10 -24 -10 -17 0 -31 4 -31 8 0 4 -35 3 -77 -2 l-78
-11 45 -7 c63 -9 120 -26 95 -27 -15 -1 -17 -3 -6 -10 11 -7 10 -13 -4 -35
-10 -14 -21 -26 -25 -26 -4 0 -19 -11 -35 -26 -25 -23 -29 -24 -44 -10 -10 9
-21 16 -26 16 -11 0 -65 58 -65 70 0 5 -5 10 -11 10 -6 0 -9 6 -6 14 3 8 0 17
-7 19 -7 3 -16 19 -19 35 -5 23 -14 33 -42 42 -19 6 -35 15 -35 18 0 4 -12 14
-26 23 -24 14 -24 17 -10 32 20 20 20 27 1 27 -8 0 -14 -5 -12 -12 3 -19 -41
-17 -67 3 -13 11 -29 19 -35 19 -6 0 -11 5 -11 10 0 6 -12 10 -26 10 -26 0
-27 1 -20 48 3 26 14 52 23 60 10 7 12 12 5 12 -20 0 6 40 26 41 14 0 14 2 -3
9 -19 8 -19 9 -1 9 24 1 89 23 96 33 3 4 29 8 57 9 29 1 50 6 47 11 -3 4 5 9
18 9 53 3 71 7 161 30 21 5 35 14 32 19 -4 6 3 7 17 1 13 -4 30 -7 39 -6z
m-898 -65 c-4 -110 -4 -110 -75 -110 -60 0 -61 0 -43 19 10 12 19 42 22 73 7
76 17 90 61 86 l37 -3 -2 -65z m-1390 -42 c35 -12 37 -15 37 -55 0 -23 -4 -45
-10 -48 -5 -3 -10 1 -10 11 0 14 -3 14 -15 4 -18 -15 -16 -16 -38 30 -12 25
-17 29 -17 15 0 -11 7 -32 14 -47 8 -16 13 -28 11 -28 -2 0 -10 -3 -19 -6 -13
-5 -16 1 -16 26 0 17 -4 29 -9 25 -5 -3 -7 -21 -4 -40 6 -34 5 -35 -30 -35
-33 0 -35 2 -40 38 -2 20 0 46 6 57 10 19 9 19 -10 3 -11 -10 -27 -18 -36 -18
-9 0 -17 -7 -17 -15 0 -11 -5 -12 -25 -5 -20 8 -25 6 -25 -6 0 -8 7 -17 15
-20 17 -7 21 -74 4 -74 -16 0 -69 33 -69 43 0 4 -4 5 -10 2 -5 -3 -7 0 -4 8 4
11 -1 13 -20 10 -20 -4 -28 1 -41 27 -9 18 -13 35 -8 39 4 3 13 15 19 26 12
22 35 27 46 10 4 -5 8 -28 9 -50 0 -32 2 -36 9 -20 l9 20 2 -20 c1 -11 1 -28
0 -39 -1 -16 1 -17 14 -6 10 8 15 30 15 64 0 31 4 46 9 38 6 -10 10 -5 14 17
5 25 12 30 39 33 61 6 163 -1 201 -14z m969 -52 c25 -53 15 -76 -33 -76 -16 0
-29 -4 -29 -10 0 -5 8 -10 18 -10 12 0 8 -6 -13 -20 -39 -26 -57 -25 -26 0 13
11 19 20 13 20 -6 0 -9 12 -6 26 3 17 1 23 -6 19 -6 -4 -9 -13 -6 -21 3 -8 1
-14 -4 -14 -6 0 -10 6 -10 14 0 16 -18 31 -27 23 -3 -3 4 -16 16 -28 23 -25
27 -39 10 -39 -6 0 -9 -9 -6 -20 4 -15 0 -20 -14 -20 -10 0 -19 -6 -19 -13 0
-20 -25 -17 -39 5 -8 12 -8 18 0 18 5 0 8 4 4 10 -9 14 -32 1 -38 -21 -4 -15
-2 -19 8 -15 8 3 16 2 19 -2 3 -4 -5 -9 -16 -9 -19 -2 -67 42 -68 61 0 5 -10
17 -22 27 l-21 19 21 0 c12 0 22 5 22 10 0 6 -6 10 -12 10 -27 0 42 28 86 34
25 4 46 11 46 17 0 5 9 9 19 9 11 0 26 6 33 13 40 40 75 34 100 -17z m-1128
-132 c3 -9 3 -21 -1 -26 -4 -7 -1 -8 8 -2 18 11 46 6 74 -12 12 -8 25 -11 28
-7 4 3 7 -1 7 -11 0 -9 4 -14 10 -11 5 3 2 -8 -8 -24 -24 -43 -73 -65 -128
-56 -24 3 -46 11 -50 17 -10 16 -6 88 7 119 12 32 43 39 53 13z m356 -344 c18
-6 20 -8 7 -9 -41 -2 -2 -21 44 -21 36 0 49 -4 49 -14 0 -8 5 -16 10 -18 13
-4 16 -34 7 -70 -6 -22 -4 -28 8 -28 8 0 15 -4 15 -10 0 -14 -4 -13 -44 11
-40 23 -47 34 -16 24 14 -4 20 -2 20 8 0 9 -12 17 -30 19 -16 3 -30 2 -30 -1
0 -3 -33 -6 -74 -6 -68 0 -78 -3 -121 -34 -44 -32 -47 -32 -60 -15 -8 11 -15
15 -15 10 0 -6 -7 -1 -15 10 -13 17 -14 17 -15 2 0 -10 -4 -18 -9 -18 -4 0 -8
-13 -7 -29 1 -16 4 -27 9 -24 4 2 7 -3 7 -12 0 -9 -5 -13 -10 -10 -13 8 -12
-237 1 -310 18 -99 18 -95 -6 -95 -13 0 -26 -8 -29 -17 -6 -15 -8 -15 -17 -3
-7 10 -12 11 -15 4 -7 -16 -44 -5 -44 12 0 7 -10 20 -23 29 -25 16 -25 5 -2
200 l6 50 -19 -35 c-10 -19 -19 -51 -20 -70 -3 -52 -42 -120 -69 -120 -12 0
-25 -4 -28 -10 -4 -6 7 -10 24 -10 33 0 39 -15 21 -50 -13 -24 -128 -39 -141
-19 -8 12 -11 12 -18 -1 -5 -8 -7 -18 -4 -22 8 -15 -18 -38 -43 -38 -15 0 -24
6 -24 15 0 9 -7 18 -16 22 -9 3 -14 13 -11 24 4 13 0 19 -13 19 -12 0 -20 10
-24 35 -4 19 -10 35 -14 35 -4 0 -7 12 -6 28 1 15 -2 32 -6 37 -11 15 -24 68
-21 85 4 22 9 24 23 12 8 -6 40 -25 72 -42 54 -28 65 -30 118 -24 55 6 114 38
127 68 2 4 12 16 22 24 11 9 19 22 19 29 0 7 5 13 10 13 6 0 10 8 10 19 0 10
7 24 15 31 8 7 15 21 15 31 0 10 5 21 10 24 6 3 10 16 10 28 0 12 14 38 30 57
16 19 35 41 41 48 6 7 17 11 25 8 9 -4 14 2 14 16 0 26 27 58 49 58 9 0 27 12
40 25 20 22 31 25 90 24 36 -1 77 -5 91 -9z m-616 -9 c31 10 304 11 319 2 9
-5 -33 -39 -43 -36 -3 1 -7 -8 -7 -19 -3 -39 -54 -50 -107 -23 -19 10 -73 18
-153 22 -68 3 -123 9 -123 12 0 3 39 5 87 5 49 -1 68 1 43 3 -25 2 -49 8 -54
14 -6 5 -27 9 -49 9 -21 0 -36 4 -33 9 3 4 24 5 47 1 23 -4 56 -4 73 1z
m-1164 -161 c19 -19 20 -33 20 -335 l0 -315 -25 0 -25 0 0 335 c0 184 2 335 5
335 3 0 14 -9 25 -20z m1745 0 c-3 -5 3 -10 14 -10 12 0 21 -3 21 -8 0 -4 16
-16 35 -26 32 -17 35 -23 35 -62 0 -31 -7 -50 -27 -73 -25 -28 -33 -31 -86
-31 -50 0 -60 3 -64 20 -3 11 -9 18 -13 15 -23 -14 -20 104 3 136 19 25 96 62
82 39z m239 -73 c9 -35 7 -185 -3 -191 -5 -3 -12 10 -15 29 -7 36 -22 46 -32
20 -4 -8 -10 -13 -14 -10 -5 3 -11 -13 -15 -35 -5 -32 -10 -40 -24 -35 -10 3
-22 -3 -31 -15 -8 -11 -20 -20 -27 -20 -7 0 -14 -8 -14 -17 -1 -16 -2 -16 -6
-1 -2 9 -10 18 -16 21 -9 3 -11 -21 -9 -94 4 -91 2 -99 -15 -98 -10 0 -27 5
-38 10 -16 7 -14 9 13 6 25 -3 32 0 32 14 0 12 -9 19 -27 21 -16 2 -27 8 -25
16 1 6 -2 12 -8 12 -5 0 -19 9 -30 20 -11 11 -20 16 -20 10 0 -5 -4 -10 -9
-10 -6 0 -9 11 -8 24 1 14 -2 24 -8 23 -5 -1 -9 -5 -7 -9 1 -5 -3 -8 -8 -8 -6
0 -10 8 -8 18 2 9 -4 18 -12 18 -8 1 -21 2 -27 3 -9 1 -13 24 -13 82 0 68 -2
80 -15 75 -8 -3 -15 -1 -15 4 0 6 7 10 15 10 10 0 16 11 17 33 l1 32 4 -31 c5
-36 19 -51 83 -85 25 -13 47 -26 50 -29 24 -24 52 -30 78 -16 15 7 41 17 57
20 33 7 78 42 84 66 12 42 17 127 10 142 -8 15 -6 16 20 7 16 -6 32 -20 35
-32z m-1691 -174 c9 -3 17 -9 17 -14 0 -5 10 -9 23 -9 12 0 31 -6 42 -13 11
-8 36 -17 54 -21 19 -3 52 -11 73 -16 40 -11 37 -5 54 -116 4 -29 9 -32 60
-42 30 -7 71 -19 91 -29 36 -17 36 -17 15 -34 -12 -9 -43 -20 -69 -24 -26 -4
-52 -11 -58 -15 -5 -4 -30 -13 -54 -20 -24 -6 -50 -18 -58 -26 -8 -8 -21 -14
-28 -14 -8 0 -19 -8 -24 -19 -6 -10 -26 -21 -46 -24 -19 -3 -49 -15 -66 -27
-28 -20 -33 -21 -74 -9 l-45 13 0 247 0 247 38 -15 c20 -7 45 -16 55 -20z
m1805 -269 c33 -9 28 -45 -11 -71 -17 -13 -48 -37 -67 -54 -19 -17 -46 -37
-60 -44 -14 -8 -34 -27 -45 -44 -11 -17 -33 -36 -48 -42 -16 -7 -41 -25 -57
-41 -16 -15 -33 -28 -38 -28 -5 0 -20 -11 -34 -24 -14 -12 -33 -26 -42 -29 -9
-4 -16 -13 -16 -22 0 -8 -6 -15 -14 -15 -8 0 -27 -12 -43 -27 -29 -27 -30 -30
-32 -143 -1 -63 -4 -117 -7 -121 -2 -4 -18 -4 -36 0 l-33 7 -3 119 c-4 173 -5
171 86 238 42 31 82 61 88 66 5 4 21 14 35 21 13 7 26 16 29 19 3 3 32 24 65
46 33 22 65 45 70 51 6 6 28 24 50 40 42 31 60 45 103 81 30 26 28 25 60 17z
m-550 -76 c18 -18 14 -34 -8 -35 -27 -2 -67 -51 -75 -90 -5 -27 -10 -31 -33
-30 -25 2 -27 -1 -27 -39 0 -29 -4 -40 -12 -37 -17 7 -16 -2 2 -21 13 -13 12
-15 -15 -21 -16 -4 -37 -2 -47 4 -10 6 -12 11 -5 11 19 0 14 30 -5 30 -9 0
-31 5 -49 12 -26 9 -33 18 -38 50 -4 24 -12 38 -21 38 -9 0 -15 10 -15 25 0
21 5 25 30 25 25 0 30 4 30 24 0 32 32 43 155 54 55 5 105 10 111 11 5 0 15
-4 22 -11z m-753 -47 c6 -3 -3 -8 -20 -11 -16 -4 -29 -11 -28 -17 1 -6 -12
-15 -30 -18 -17 -4 -47 -16 -65 -26 -18 -10 -47 -19 -63 -19 -17 0 -28 -3 -26
-7 3 -5 -13 -19 -34 -33 -21 -13 -39 -28 -39 -32 0 -4 -7 -8 -16 -8 -13 0 -15
-6 -9 -27 3 -15 10 -30 15 -33 4 -3 11 -21 15 -40 4 -19 10 -37 14 -40 13 -11
61 -118 61 -138 0 -11 4 -23 8 -26 5 -3 15 -30 22 -61 13 -55 13 -57 -12 -80
-14 -13 -50 -36 -80 -51 -29 -14 -63 -32 -75 -38 -13 -6 -23 -14 -23 -18 0 -3
-13 -9 -30 -13 -16 -4 -30 -11 -30 -16 0 -5 -9 -9 -20 -9 -18 0 -20 -7 -20
-65 0 -68 7 -77 48 -56 38 21 91 41 105 41 16 0 27 -29 27 -73 0 -31 -12 -38
-102 -58 l-58 -12 0 -66 c0 -36 -3 -77 -7 -90 -5 -20 -3 -23 13 -19 114 33
112 33 134 13 32 -29 26 -58 -18 -77 -21 -9 -54 -19 -73 -23 l-35 -6 3 -72 c2
-40 6 -91 9 -114 l5 -43 62 6 c34 3 74 10 90 14 27 9 27 8 27 -35 0 -39 -3
-44 -29 -53 -18 -6 -31 -7 -33 -1 -4 11 -78 -9 -78 -21 0 -5 6 -27 14 -47 7
-21 24 -71 36 -111 22 -71 24 -73 54 -72 51 3 54 1 58 -37 4 -34 2 -37 -34
-51 -21 -8 -38 -21 -38 -27 0 -30 13 -74 21 -70 11 7 39 -48 39 -78 0 -12 -6
-29 -12 -36 -9 -10 -10 -12 -1 -7 14 8 33 -23 33 -53 0 -10 6 -21 13 -24 20
-7 -8 -31 -42 -33 -25 -2 -30 2 -39 34 -6 21 -9 48 -8 62 2 14 1 17 -1 8 -8
-32 -18 -19 -32 39 -7 31 -17 64 -23 73 -7 10 -8 32 -3 56 4 21 10 33 12 27 6
-18 23 -16 23 2 0 9 -9 15 -25 15 -15 0 -25 6 -25 14 0 7 -7 19 -15 26 -8 7
-13 16 -10 20 3 5 1 11 -4 14 -5 3 -12 27 -16 52 -4 26 -13 53 -20 60 -7 8
-16 36 -20 64 -4 27 -10 50 -15 50 -11 0 -44 155 -55 260 -3 30 -10 93 -15
139 -10 89 -6 431 5 469 4 12 13 22 20 22 8 0 17 9 20 20 4 14 15 20 36 20 16
0 29 5 29 10 0 6 11 10 25 10 14 0 25 5 25 10 0 6 6 10 13 10 21 0 67 43 67
63 0 9 5 17 10 17 14 0 12 48 -2 57 -22 14 -38 51 -38 87 0 21 -6 36 -15 40
-8 3 -15 17 -15 31 0 15 -4 24 -10 20 -6 -4 -10 5 -10 20 0 14 -4 24 -9 21 -5
-3 -11 8 -15 24 -3 17 -17 43 -31 58 -29 31 -31 42 -10 42 9 0 26 10 38 23 27
28 79 62 90 59 4 -1 10 5 13 13 4 9 19 15 40 15 19 0 34 5 34 11 0 5 -4 7 -10
4 -5 -3 -10 1 -10 9 0 16 39 24 140 29 57 3 97 -1 115 -12z m1914 -92 c57 -5
113 -16 124 -24 18 -13 18 -14 -14 -19 -19 -3 -58 -7 -88 -10 -30 -3 -57 -9
-60 -13 -3 -5 -17 -8 -30 -8 -14 0 -36 -10 -49 -22 -14 -13 -32 -23 -41 -23
-20 -1 -51 -24 -51 -39 0 -6 -5 -11 -10 -11 -6 0 -37 -25 -68 -55 -31 -30 -60
-55 -64 -55 -5 0 -8 -9 -8 -20 0 -11 -6 -20 -13 -20 -23 0 -54 -42 -98 -133
l-43 -89 -35 5 c-95 13 -182 29 -243 44 l-66 17 43 43 c24 24 49 43 55 43 6 0
14 8 17 17 11 29 42 53 68 53 29 0 31 -13 9 -65 -8 -20 -14 -38 -12 -40 2 -2
27 -10 56 -18 l52 -16 15 37 c8 20 19 44 24 52 6 8 22 38 37 65 14 28 32 57
40 66 18 20 18 29 -1 29 -8 0 -15 -7 -15 -15 0 -8 -4 -15 -10 -15 -15 0 -12
11 10 48 17 28 25 32 61 32 41 0 60 11 72 43 5 13 1 17 -17 17 -35 0 -38 11
-9 36 19 16 34 21 58 17 32 -5 95 19 95 37 0 19 77 22 209 9z m211 -109 c8 -5
12 -10 7 -10 -10 0 87 -100 97 -100 5 0 17 -10 28 -22 11 -13 27 -23 36 -23
10 0 24 -15 32 -32 8 -18 18 -33 23 -33 4 0 1 13 -8 30 -8 16 -15 32 -15 35 1
25 -4 35 -32 66 -18 18 -40 35 -48 37 -8 2 -17 7 -20 11 -5 8 -39 24 -52 25
-16 2 -11 21 5 24 9 2 17 -1 17 -7 0 -6 7 -11 15 -11 34 0 149 -67 203 -117
31 -29 69 -65 85 -79 15 -14 27 -32 27 -40 0 -8 5 -14 10 -14 6 0 10 -10 9
-22 0 -15 -3 -18 -6 -8 -16 41 -51 51 -187 57 -67 3 -102 1 -110 -7 -8 -9 2
-11 41 -8 28 1 49 -1 46 -6 -3 -4 -40 -5 -82 -2 -44 4 -87 3 -101 -3 -14 -5
-20 -10 -14 -10 6 -1 11 -7 11 -15 0 -8 -8 -13 -18 -11 -9 2 -27 -4 -40 -13
-13 -9 -30 -17 -38 -19 -20 -3 -32 -26 -18 -35 7 -5 0 -8 -16 -8 -20 0 -30 -6
-34 -20 -3 -11 -13 -21 -22 -22 -9 0 -23 -2 -31 -2 -18 -2 -40 18 -40 34 0 8
-9 10 -27 6 -20 -5 -24 -4 -13 3 12 8 12 12 -3 29 -9 10 -20 33 -23 50 -4 22
-12 32 -25 32 -9 0 -24 7 -33 15 -8 8 -22 15 -31 15 -9 0 -13 5 -10 10 10 16
-35 12 -51 -4 -8 -8 -14 -25 -13 -38 1 -23 1 -23 8 2 l7 25 8 -22 c4 -13 12
-23 17 -23 5 0 9 -7 9 -15 0 -9 8 -18 18 -21 41 -14 82 -40 87 -55 3 -10 12
-20 20 -23 8 -3 15 -17 15 -31 0 -14 5 -25 10 -25 6 0 10 -22 10 -50 0 -27 -2
-50 -5 -50 -3 0 -17 7 -31 17 -19 12 -24 22 -19 40 4 16 1 23 -10 23 -8 0 -16
5 -16 10 -1 6 -2 16 -3 23 -1 6 -7 11 -14 9 -7 -1 -12 6 -12 16 0 10 -11 25
-25 32 -14 8 -24 18 -22 24 4 13 -56 46 -83 46 -11 0 -20 5 -20 10 0 6 -9 10
-20 10 -34 0 -26 17 29 63 12 9 26 17 31 17 6 0 10 9 10 21 0 27 52 79 79 79
14 0 21 6 21 20 0 11 7 20 15 20 8 0 31 11 51 25 20 14 45 25 55 25 11 0 19 4
19 9 0 18 205 27 230 11z m-1987 -195 c-6 -103 -6 -105 15 -105 13 0 22 -6 22
-16 0 -9 7 -14 18 -12 14 3 17 16 19 81 1 43 4 81 7 84 10 10 77 -8 73 -20 -2
-7 -12 -11 -21 -11 -9 1 -16 -2 -16 -7 0 -12 67 -11 75 1 11 18 25 10 25 -14
0 -25 -26 -43 -33 -23 -2 7 -3 5 -3 -3 1 -9 10 -14 24 -13 23 3 30 -11 12 -22
-5 -3 -9 -16 -9 -28 1 -17 2 -18 6 -4 2 9 12 17 22 17 28 0 71 -24 72 -40 0
-10 2 -11 6 -2 8 21 23 13 23 -12 0 -35 -10 -56 -26 -56 -8 0 -14 -4 -14 -10
0 -5 -5 -10 -11 -10 -6 0 -24 -9 -40 -21 -37 -26 -92 -23 -98 6 -4 25 -30 44
-58 45 -14 0 -29 11 -38 28 -9 15 -14 20 -12 11 4 -12 -1 -14 -24 -11 l-29 4
0 82 c0 80 9 186 16 186 2 0 1 -47 -3 -105z m-1114 18 c1 -27 -5 -56 -14 -69
-19 -29 -19 -44 0 -44 11 0 15 -14 16 -57 1 -32 2 -73 3 -90 1 -29 -2 -33 -24
-33 -24 0 -27 6 -43 78 -10 42 -17 113 -17 158 0 74 2 82 23 92 44 21 54 15
56 -35z m-306 -56 c-4 -6 -10 -58 -13 -115 -4 -78 -2 -102 8 -102 12 0 13 -5
17 -63 1 -16 6 -32 12 -35 5 -4 16 -23 25 -42 24 -51 78 -95 163 -133 22 -10
30 -16 18 -13 -15 3 -23 -1 -23 -10 0 -8 -9 -14 -19 -14 -11 0 -27 -3 -37 -7
-11 -4 -15 -3 -11 4 4 6 1 10 -6 9 -18 -1 -61 30 -111 80 -60 62 -65 68 -76
121 -6 26 -16 50 -22 54 -5 4 -10 43 -11 90 0 86 5 102 58 186 15 25 22 29 28
17 4 -8 5 -20 0 -27z m445 -3 c23 -6 29 -33 13 -49 -6 -6 -11 -38 -13 -73 -3
-54 -5 -62 -20 -58 -21 5 -23 -5 -6 -22 9 -9 9 -12 -3 -12 -28 0 -48 53 -50
131 0 41 -1 77 0 82 1 8 47 9 79 1z m3057 -165 c-9 -13 4 -81 13 -75 5 3 14 0
22 -6 12 -8 12 -9 -2 -4 -10 3 -20 1 -23 -4 -4 -6 1 -10 9 -10 9 0 16 -6 16
-12 0 -9 3 -10 8 -2 4 6 17 13 30 16 21 6 27 -4 23 -39 -1 -6 3 -14 9 -18 18
-11 11 -35 -10 -35 -11 0 -20 -4 -20 -10 0 -14 22 -12 44 5 27 20 35 19 29 -5
-3 -11 -1 -20 5 -20 6 0 12 -10 14 -22 2 -15 11 -24 26 -26 12 -2 22 -10 22
-17 0 -8 9 -19 19 -25 29 -15 38 -12 15 5 -10 8 -14 14 -9 15 18 0 38 -18 31
-28 -3 -6 4 -12 16 -14 13 -2 -5 -4 -39 -3 -58 0 -62 2 -65 24 -3 22 -4 22
-15 -8 -11 -31 -11 -31 23 -31 19 0 34 -4 34 -9 0 -9 -100 -51 -120 -51 -6 0
-10 -4 -10 -10 0 -5 -10 -10 -22 -10 -17 0 -19 -3 -10 -9 11 -7 10 -10 -3 -15
-21 -8 -67 3 -59 15 3 5 0 9 -5 9 -6 0 -11 -9 -11 -21 0 -16 4 -19 21 -14 15
5 19 4 15 -4 -9 -14 -76 -14 -76 0 0 5 -5 7 -10 4 -8 -5 -7 -11 1 -21 6 -7 9
-21 5 -29 -8 -23 -44 -18 -52 7 -3 12 -13 28 -20 36 -8 7 -14 20 -14 28 0 8
-4 14 -10 14 -5 0 -10 11 -10 25 0 14 -5 25 -11 25 -14 0 -38 30 -39 48 0 9 7
11 23 6 21 -6 21 -6 -3 16 -17 16 -21 24 -12 27 10 4 10 8 1 19 -8 10 -8 14 0
14 6 0 12 -4 12 -10 1 -5 3 -14 4 -20 1 -5 3 -15 4 -21 0 -5 5 -8 10 -5 9 6
26 -22 23 -36 -1 -5 3 -8 8 -8 7 0 9 15 5 42 -8 49 -12 58 -28 58 -8 0 -8 -3
2 -9 8 -5 9 -11 3 -15 -5 -3 -12 1 -16 9 -3 8 -1 17 5 20 5 4 7 11 4 16 -4 5
1 9 9 9 8 0 17 -8 20 -18 7 -20 46 -48 46 -32 0 5 -4 10 -10 10 -5 0 -10 9
-10 20 0 11 -7 20 -15 20 -8 0 -15 5 -15 10 0 12 -22 9 -32 -5 -5 -7 -11 -6
-15 1 -5 7 -16 8 -28 3 -19 -7 -19 -8 3 -8 12 -1 22 -5 22 -10 0 -12 -29 -23
-41 -15 -5 3 -9 1 -9 -5 0 -5 5 -13 10 -16 6 -3 10 -24 10 -46 0 -25 -4 -38
-10 -34 -6 4 -8 10 -5 15 3 5 0 29 -7 54 -11 40 -10 50 5 76 10 17 13 30 8 30
-6 0 -11 -5 -11 -11 0 -7 -9 -9 -21 -6 -13 3 -19 1 -16 -6 3 -7 9 -11 14 -10
6 1 8 -10 5 -25 -4 -19 -7 -22 -10 -9 -2 9 -8 17 -13 17 -5 0 -9 11 -9 25 0
14 3 25 8 25 4 0 16 13 27 29 10 16 23 27 27 25 7 -5 12 10 9 29 -1 7 14 11
36 8 7 -1 10 5 7 12 -4 11 1 13 20 10 19 -4 26 -1 26 11 0 9 7 16 15 16 9 0
27 7 40 16 14 9 31 14 40 11 8 -4 17 -2 20 3 4 6 11 10 16 10 6 0 7 -5 4 -11z
m-3688 -46 c-13 -46 -16 -280 -3 -308 12 -25 13 -31 15 -52 0 -9 4 -14 7 -10
4 3 16 -13 28 -36 12 -23 27 -41 34 -39 6 1 12 -2 12 -8 0 -17 33 -50 73 -72
20 -12 37 -25 37 -30 0 -4 7 -8 16 -8 8 0 35 -9 59 -20 24 -11 62 -21 85 -22
24 -1 40 -6 40 -14 0 -7 6 -15 13 -17 6 -3 3 -6 -8 -6 -12 -1 -25 -5 -30 -10
-6 -4 -26 -11 -45 -15 -25 -4 -31 -3 -20 4 13 8 13 10 -2 10 -9 0 -19 -4 -23
-10 -3 -5 -13 -6 -21 -3 -13 5 -13 7 -2 14 8 6 2 9 -20 9 -18 0 -31 4 -28 9 7
10 -17 21 -45 21 -35 0 -111 63 -184 152 -49 60 -74 158 -75 291 0 103 4 115
59 178 34 39 42 36 28 -8z m3114 17 c22 0 29 -5 29 -20 0 -11 5 -20 11 -20 16
0 6 -75 -17 -127 -17 -38 -44 -59 -44 -34 0 5 -12 11 -27 13 -14 2 -28 9 -31
16 -3 9 3 11 22 6 16 -4 26 -2 26 5 0 6 -13 11 -30 11 -25 0 -30 -4 -30 -24 0
-25 23 -41 43 -30 7 4 7 1 -1 -7 -21 -23 -48 2 -44 42 2 19 5 64 8 102 5 58 8
67 25 67 10 0 19 6 20 13 0 10 2 10 6 0 2 -7 18 -13 34 -13z m-844 -22 c6 -5
32 -10 57 -11 25 -1 46 -6 46 -10 0 -4 17 -5 38 -2 27 4 32 3 17 -4 -16 -8
-12 -10 23 -10 23 -1 42 -5 42 -11 0 -5 11 -10 24 -10 14 0 27 -4 30 -9 3 -4
20 -11 37 -15 l31 -6 -7 -52 c-4 -29 -12 -61 -17 -71 -5 -10 -15 -50 -23 -90
-7 -40 -25 -114 -39 -164 -14 -51 -27 -103 -30 -115 -2 -13 -11 -57 -19 -98
-9 -41 -19 -100 -23 -130 -4 -30 -11 -58 -16 -61 -18 -12 -36 -278 -31 -444 3
-88 6 -189 7 -225 l1 -65 -35 3 c-74 7 -70 -3 -70 166 l0 154 -40 0 c-53 1
-60 7 -60 48 l0 34 50 0 50 0 0 134 0 133 -74 13 c-69 12 -74 14 -80 41 -11
57 -3 61 103 57 l96 -3 6 70 c4 39 10 84 14 101 7 31 7 31 -42 37 -170 20
-159 17 -157 46 1 14 3 37 3 51 l1 26 88 -8 c48 -4 99 -9 114 -12 24 -5 27 -2
33 27 3 18 11 51 17 75 6 23 8 45 5 48 -3 3 -50 11 -104 17 l-98 10 4 51 c2
28 8 55 15 59 15 11 133 -2 173 -18 38 -16 48 -8 58 47 8 45 -5 62 -56 73 -54
11 -184 48 -189 54 -3 4 -11 6 -17 7 -7 1 -20 2 -28 3 -10 1 -15 13 -15 39 0
38 0 38 38 34 20 -2 42 -9 49 -14z m-1585 -570 c-2 -360 -5 -474 -15 -480 -9
-6 -9 -10 2 -17 12 -7 13 -69 8 -377 -4 -203 -7 -579 -7 -836 0 -461 0 -468
-20 -468 -23 0 -23 1 -21 1060 0 344 1 842 1 1108 l0 482 28 0 27 0 -3 -472z
m1338 406 c0 -17 -6 -28 -20 -31 -11 -3 -20 -9 -20 -14 0 -5 -7 -9 -15 -9 -18
0 -55 -30 -55 -46 0 -6 -18 -16 -40 -23 -22 -6 -40 -16 -40 -21 0 -6 -11 -10
-24 -10 -21 0 -24 -4 -23 -37 1 -21 -3 -50 -7 -65 -7 -26 -6 -28 18 -28 24 0
26 -3 20 -27 -8 -31 -21 -46 -46 -56 -16 -6 -18 -21 -18 -124 0 -65 4 -133 9
-150 12 -40 3 -47 -48 -38 l-39 6 -6 77 c-6 88 -6 77 0 164 6 66 5 68 -21 78
-18 7 -25 15 -21 25 3 8 0 15 -6 15 -6 0 -5 6 3 17 11 13 11 17 2 20 -7 3 -13
12 -12 21 0 11 2 12 6 5 5 -14 41 -17 67 -7 13 5 16 22 16 83 0 42 4 81 8 86
4 6 33 10 65 11 44 0 60 5 71 20 11 14 26 19 63 18 26 -1 40 1 31 3 -23 6 -11
33 14 33 11 0 26 7 34 15 23 22 34 18 34 -11z m1318 -30 c6 -7 12 -22 12 -33
0 -12 6 -21 14 -21 23 0 29 -36 11 -63 -8 -13 -13 -31 -10 -39 7 -17 -60 -82
-75 -73 -6 3 -10 1 -10 -5 0 -7 -6 -8 -18 -1 -13 7 -18 22 -18 53 -1 24 1 33
3 21 3 -13 9 -23 14 -23 12 0 12 57 0 62 -16 5 -21 108 -6 108 7 0 12 -7 11
-16 0 -9 5 -19 13 -22 10 -3 12 1 8 17 -3 13 -1 19 5 15 7 -5 9 2 4 19 -5 22
-4 25 11 20 10 -4 24 -12 31 -19z m102 -169 c0 -8 5 -15 10 -15 6 0 10 -7 10
-15 0 -8 4 -15 10 -15 5 0 12 -11 16 -24 3 -13 16 -29 30 -36 23 -13 33 -30
17 -30 -5 0 -23 -22 -42 -49 -21 -31 -38 -48 -47 -44 -20 8 -17 24 6 30 23 6
27 23 6 23 -10 0 -13 9 -10 30 4 24 2 30 -13 30 -15 0 -16 -2 -3 -10 13 -8 12
-10 -2 -10 -10 0 -18 6 -18 14 0 8 -11 23 -25 34 -28 23 -33 42 -9 42 9 0 21
14 27 30 12 31 37 41 37 15z m493 -39 c9 -7 17 -25 17 -40 0 -14 3 -25 8 -25
39 6 24 -7 -41 -35 -43 -19 -85 -40 -93 -47 -8 -6 -17 -9 -21 -5 -3 3 -1 6 5
6 18 0 15 18 -6 41 -19 19 -19 19 -20 -12 -1 -41 -12 -51 -12 -11 0 36 -14 40
-43 15 -11 -10 -17 -12 -13 -5 9 16 1 15 -34 -3 -46 -24 -36 -12 20 24 31 20
59 31 70 28 21 -5 28 9 8 15 -6 2 4 10 23 17 19 7 50 21 69 32 42 22 40 22 63
5z m317 -64 c0 -8 10 -14 84 -49 26 -12 46 -29 46 -37 0 -9 7 -16 15 -16 8 0
15 -7 15 -15 0 -9 8 -27 17 -42 17 -26 17 -26 -6 -14 -12 7 -25 10 -29 7 -3
-3 0 -6 7 -6 7 0 10 -3 7 -8 -2 -4 -25 -6 -49 -4 -47 4 -70 27 -45 44 9 6 5 7
-9 3 -23 -6 -29 -3 -85 48 -17 15 -35 27 -39 27 -10 0 -12 31 -3 54 6 16 74
24 74 8z m0 -197 c-1 -31 -95 -87 -114 -67 -3 3 -6 0 -6 -7 0 -9 -9 -12 -25
-9 -13 3 -23 2 -20 -1 2 -4 -10 -13 -27 -20 -25 -12 -32 -11 -40 0 -8 11 -9
10 -4 -3 6 -20 -9 -25 -18 -5 -3 6 -3 2 0 -10 3 -13 1 -23 -4 -23 -15 0 -20
23 -10 43 5 9 5 17 1 17 -4 0 -14 4 -22 9 -12 8 -12 12 2 25 8 9 23 16 32 16
9 0 13 5 10 10 -4 6 6 10 22 10 15 1 39 7 53 15 29 17 170 17 170 0z m204 -71
c13 -34 7 -46 -19 -40 -14 4 -25 2 -25 -4 0 -5 16 -10 35 -10 19 0 35 -2 35
-4 0 -2 3 -13 6 -23 5 -15 4 -15 -5 -3 -5 8 -13 11 -17 7 -4 -3 5 -24 20 -45
14 -21 26 -43 26 -48 0 -6 11 -31 25 -55 13 -24 29 -54 35 -66 11 -25 11 -26
35 -17 13 5 14 9 4 15 -8 4 -11 10 -8 13 2 3 11 1 19 -4 11 -7 11 -11 1 -24
-12 -14 -10 -16 9 -16 13 0 20 -3 17 -6 -11 -12 13 -44 33 -44 16 0 17 4 10
29 -4 16 -6 32 -4 34 3 3 -6 7 -18 10 -15 4 -24 14 -25 28 -1 12 -7 27 -14 33
-9 8 -10 8 -6 0 4 -7 -2 -14 -13 -17 -11 -3 -19 -2 -18 2 3 27 -2 33 -19 20
-14 -12 -14 -10 2 14 15 23 16 30 5 40 -10 10 -12 8 -6 -8 4 -11 4 -16 0 -12
-5 4 -9 27 -10 50 -1 23 -7 43 -13 45 -6 2 -11 12 -11 22 0 10 -7 26 -16 34
-18 18 -3 21 27 6 11 -6 19 -21 19 -35 0 -14 5 -25 11 -25 13 0 39 -25 39 -38
0 -5 14 -26 30 -47 17 -21 33 -49 36 -62 4 -12 10 -23 15 -23 9 0 29 -64 29
-93 0 -10 -4 -15 -10 -12 -5 3 -10 0 -10 -8 0 -12 -6 -13 -32 -3 -18 6 -39 15
-45 19 -22 14 -262 6 -292 -9 -31 -16 -51 -18 -51 -4 0 6 -4 10 -10 10 -5 0
-10 -7 -10 -15 0 -8 -9 -15 -20 -15 -11 0 -23 -6 -26 -14 -3 -8 -13 -15 -22
-15 -9 0 -29 -3 -44 -7 -22 -5 -28 -3 -28 10 0 15 -6 28 -31 76 -5 8 -20 39
-35 68 -14 28 -31 52 -36 52 -6 0 -8 7 -4 15 3 8 1 15 -4 15 -9 0 -26 39 -22
53 1 4 -4 7 -12 7 -9 0 -12 7 -9 18 3 12 22 23 54 32 28 8 52 18 55 22 3 4 14
8 25 8 10 0 19 4 19 8 0 8 89 40 170 61 61 16 147 13 154 -5z m-619 -34 c-3
-5 -1 -10 4 -10 6 0 11 -12 11 -26 0 -14 5 -34 10 -45 9 -16 7 -19 -10 -19
-11 0 -20 -5 -20 -11 0 -5 5 -7 10 -4 6 3 10 1 10 -4 0 -6 -7 -11 -16 -11 -14
0 -44 -22 -44 -33 0 -3 -24 -30 -54 -61 -31 -33 -69 -88 -91 -131 -20 -41 -41
-77 -46 -81 -13 -8 -10 8 6 29 7 11 11 26 8 34 -5 13 4 36 43 114 16 31 7 46
-12 21 -23 -30 -16 5 12 61 15 29 32 55 38 59 6 4 7 8 3 8 -4 0 3 12 17 27 14
15 23 30 20 34 -2 4 1 19 7 33 10 22 19 26 56 26 27 0 42 -4 38 -10z m-2049
-148 c6 -4 14 -32 18 -62 15 -117 23 -164 25 -150 1 8 8 2 15 -15 18 -39 9
-47 -50 -43 -46 3 -49 4 -56 38 -4 19 -10 81 -14 138 l-7 102 29 0 c16 0 34
-4 40 -8z m2166 -52 c6 0 8 -7 4 -15 -3 -9 0 -15 9 -15 8 0 15 -6 15 -14 0 -8
3 -16 8 -18 15 -7 52 -68 52 -88 0 -11 7 -20 15 -20 8 0 19 -9 25 -20 6 -11
18 -20 27 -20 9 0 13 -3 9 -7 -4 -5 -11 -7 -14 -7 -4 1 -23 -7 -42 -18 l-35
-19 -9 26 c-6 14 -13 25 -18 25 -4 0 -8 7 -8 15 0 8 -3 15 -8 15 -4 0 -23 26
-42 58 -18 31 -40 63 -47 71 -12 11 -13 9 -8 -15 4 -23 1 -20 -15 13 -22 45
-15 83 14 83 8 0 17 8 21 17 5 15 9 12 22 -15 8 -17 20 -32 25 -32z m-3046
-286 c10 -38 24 -76 31 -85 7 -8 13 -27 13 -41 0 -15 7 -29 16 -32 13 -5 15
-15 10 -44 -3 -21 -1 -54 4 -73 10 -35 -4 -104 -20 -94 -15 9 -20 -39 -20
-185 0 -162 4 -187 30 -195 10 -3 20 -11 23 -18 5 -14 -24 -187 -35 -202 -3
-6 -9 -27 -13 -48 -4 -20 -11 -37 -15 -37 -11 0 -41 -73 -45 -111 -2 -19 -10
-64 -18 -101 -8 -37 -12 -70 -9 -73 4 -3 -2 -3 -12 1 -13 5 -16 12 -10 28 4
11 9 329 11 706 1 377 6 696 9 710 l7 25 13 -31 c7 -17 21 -62 30 -100z m3754
95 c0 -5 9 -9 19 -9 11 0 22 -4 25 -9 3 -4 19 -11 36 -14 18 -4 30 -13 30 -22
0 -8 6 -15 14 -15 8 0 18 -9 21 -20 3 -11 10 -20 15 -20 23 0 47 -110 42 -187
-3 -33 -19 -28 -27 7 -4 17 -10 30 -15 30 -5 0 -11 14 -15 30 -4 17 -11 28
-16 24 -5 -3 -12 2 -15 10 -3 9 -15 16 -26 16 -12 0 -19 6 -17 18 3 30 -1 37
-11 22 -6 -10 -13 -11 -17 -5 -16 21 -62 45 -92 47 -31 2 -35 7 -31 43 1 15
-1 17 -12 8 -7 -6 -29 -10 -48 -9 -33 2 -35 3 -33 36 2 33 1 32 -16 -15 -10
-27 -17 -53 -15 -56 2 -4 -25 -10 -61 -14 -38 -4 -84 -17 -110 -31 l-45 -23 0
69 c0 65 2 70 21 70 12 0 28 8 35 18 10 14 33 18 131 22 119 5 233 -5 233 -21z
m-439 -131 c-5 -35 -10 -44 -28 -46 -13 -2 -23 -10 -23 -18 0 -8 -6 -14 -13
-14 -15 0 -61 -48 -69 -71 -3 -8 -10 0 -16 21 l-11 35 3 -40 c2 -32 -3 -45
-24 -65 -14 -14 -26 -36 -27 -49 -1 -13 -9 -31 -17 -40 -10 -11 -17 -39 -18
-72 -1 -49 -2 -50 -5 -12 -3 31 -8 41 -18 36 -10 -3 -18 5 -25 23 -5 16 -14
35 -18 43 -8 15 6 81 24 116 6 11 14 32 18 48 3 15 13 27 21 27 8 0 15 3 15 8
0 4 14 23 30 42 16 19 30 37 30 40 0 5 65 40 130 70 25 12 47 -33 41 -82z
m-2344 -1 c2 -37 16 -132 29 -194 4 -21 1 -23 -43 -23 -54 1 -80 16 -80 45 2
81 -6 177 -12 155 l-7 -25 -7 25 c-15 56 -12 60 56 60 l62 0 2 -43z m2719
-192 c20 -8 40 -13 44 -10 5 3 11 1 14 -4 3 -5 22 -12 41 -15 20 -4 33 -11 30
-16 -3 -5 2 -17 12 -27 23 -23 28 -149 6 -131 -8 6 -11 20 -8 32 5 20 5 20 -6
-1 -6 -12 -19 -25 -27 -28 -13 -5 -12 -2 2 14 10 11 16 28 13 38 -4 16 -5 16
-12 -3 -5 -17 -13 -20 -43 -18 -20 2 -47 3 -60 3 -14 1 -26 10 -31 24 -5 13
-16 29 -25 36 -9 7 -16 19 -16 26 0 7 -16 26 -35 42 -19 17 -35 33 -35 36 0 6
35 13 78 16 12 0 39 -6 58 -14z m-288 -91 c14 -4 22 -14 22 -28 0 -12 8 -31
18 -42 14 -14 17 -26 11 -42 -5 -12 -4 -22 1 -22 5 0 8 -9 7 -20 -1 -15 -8
-20 -29 -20 -15 0 -30 5 -33 10 -3 6 -19 10 -35 10 -50 0 -55 6 -52 58 3 34
11 55 30 75 28 30 27 29 60 21z m-1558 -274 l0 -200 -795 0 c-523 0 -795 3
-795 10 0 7 268 10 785 10 l785 0 0 180 0 180 -665 0 c-421 0 -665 4 -665 10
0 6 247 9 675 9 l675 1 0 -200z m1920 160 c8 -5 11 -10 7 -10 -5 0 5 -12 22
-26 17 -14 31 -36 32 -47 0 -12 3 -16 6 -9 2 6 9 10 13 7 14 -9 0 -35 -19 -36
-13 0 -13 -2 2 -8 16 -6 16 -9 5 -18 -7 -6 -22 -12 -32 -14 -11 -2 -18 -8 -16
-14 3 -5 11 -9 18 -7 8 2 11 -1 7 -7 -3 -6 -13 -11 -21 -11 -16 0 -44 -23 -44
-36 0 -3 -10 -15 -22 -25 -17 -16 -18 -19 -4 -19 14 0 14 -3 4 -20 -9 -13 -14
-16 -17 -8 -6 18 -22 28 -48 28 -13 0 -23 3 -23 8 0 4 -14 15 -30 24 -33 19
-39 48 -15 68 8 7 15 21 15 31 0 10 4 20 9 23 5 3 19 35 32 71 l23 65 40 0
c23 0 48 -5 56 -10z m-2657 -114 c6 -8 10 -8 14 2 7 19 133 17 133 -3 0 -9 -9
-15 -25 -15 -24 0 -25 -2 -25 -70 0 -56 -3 -70 -15 -70 -12 0 -15 14 -15 70
l0 70 -34 0 c-19 0 -36 -6 -38 -12 -3 -9 -9 -8 -22 4 -18 18 -46 14 -46 -7 0
-6 18 -20 40 -30 31 -14 40 -24 40 -42 0 -45 -17 -63 -60 -63 -42 0 -60 15
-40 33 9 9 14 9 17 1 2 -6 15 -9 29 -6 28 5 29 30 2 43 -10 5 -26 13 -35 18
-25 11 -28 58 -7 82 14 15 25 18 48 13 17 -4 35 -12 39 -18z m340 10 c9 -7 17
-18 17 -25 0 -6 4 -11 10 -11 5 0 17 -16 26 -35 23 -50 31 -43 24 21 -7 59 -1
69 30 59 16 -5 18 -10 9 -26 -6 -11 -9 -50 -8 -87 2 -62 1 -67 -19 -70 -17 -3
-22 2 -22 17 0 12 -4 21 -10 21 -12 0 -51 75 -43 84 4 3 1 6 -5 6 -7 0 -12
-17 -12 -45 0 -25 5 -45 10 -45 6 0 10 -8 10 -17 0 -12 -8 -18 -24 -18 -24 0
-24 2 -25 93 -1 50 2 92 6 92 5 0 16 -7 26 -14z m-1083 -86 c15 -47 26 -87 24
-89 -8 -9 -36 11 -41 29 -8 31 -58 26 -89 -7 l-25 -28 4 25 c3 14 13 56 23 93
17 66 18 68 47 65 28 -3 31 -8 57 -88z m3592 25 c4 -5 2 -13 -5 -17 -9 -6 -9
-10 2 -17 20 -13 5 -108 -20 -122 -11 -5 -17 -14 -14 -18 2 -5 -2 -14 -10 -21
-8 -7 -15 -19 -15 -26 0 -8 -4 -14 -10 -14 -5 0 -10 9 -10 20 0 18 -10 25 -32
21 -5 0 -8 10 -8 24 0 14 5 25 11 25 5 0 7 -6 4 -12 -4 -7 0 -5 8 5 17 20 33
7 23 -18 -7 -19 6 -26 24 -14 10 6 11 9 3 9 -7 0 -13 5 -13 11 0 5 4 8 9 5 13
-9 32 19 25 38 -4 9 0 18 9 22 16 6 20 54 5 54 -6 0 -8 -9 -5 -21 5 -17 2 -20
-14 -16 -12 3 -19 0 -19 -10 0 -8 -4 -12 -9 -8 -6 3 -15 -4 -21 -15 -8 -14
-17 -19 -30 -15 -12 4 -20 0 -23 -12 -3 -12 -5 -8 -6 10 0 15 10 44 23 65 13
20 30 54 37 74 l13 37 30 -17 c17 -9 34 -21 38 -27z m89 -82 c1 -21 1 -42 0
-46 -1 -5 3 -5 10 -2 6 4 8 18 4 32 -9 35 11 20 35 -28 12 -22 16 -39 10 -39
-6 0 -8 -5 -5 -10 10 -16 -17 -82 -45 -110 -36 -38 -75 -37 -90 0 -11 26 -9
36 14 86 15 31 29 54 33 51 3 -3 -6 -28 -19 -54 -22 -46 -23 -50 -7 -67 21
-21 37 -3 18 20 -9 11 -9 18 -1 26 7 7 12 18 12 26 0 8 7 20 15 26 11 8 14 20
9 44 -4 17 -10 32 -15 32 -5 0 -9 11 -9 25 0 43 30 31 31 -12z m-3585 -223
c12 -52 10 -58 -11 -40 -19 16 -19 1 0 -24 9 -12 11 -24 6 -30 -9 -12 -27 -81
-41 -161 -10 -56 -42 -161 -53 -171 -4 -4 -7 -18 -7 -31 0 -12 -4 -23 -10 -23
-5 0 -10 -10 -10 -22 0 -12 -12 -50 -26 -86 -14 -35 -27 -74 -30 -86 -4 -25
-9 -37 -63 -147 -22 -47 -41 -91 -41 -97 0 -10 -11 -15 -30 -14 -3 0 -5 -12
-6 -28 -1 -25 -39 -89 -50 -82 -2 1 -10 2 -16 2 -10 0 -9 -3 1 -9 11 -7 11
-15 0 -45 -17 -48 -69 -63 -69 -20 0 23 -16 16 -29 -12 -6 -15 -14 -24 -17
-21 -8 7 7 57 17 57 5 0 9 4 9 9 0 6 14 25 30 43 17 18 30 42 30 55 0 12 8 27
18 33 15 10 14 11 -6 7 -15 -4 -26 1 -32 14 -9 17 -7 19 20 19 20 0 30 5 30
15 0 8 4 15 8 15 9 0 48 75 68 127 18 49 -1 78 -49 77 -21 -1 -35 1 -32 4 2 3
0 11 -6 19 -9 9 -8 13 0 13 6 0 11 7 11 15 0 17 46 21 69 6 19 -12 51 -1 51
18 0 14 2 14 10 1 8 -12 10 -11 10 8 0 13 6 22 15 22 8 0 15 5 15 11 0 5 -4 7
-10 4 -6 -4 -10 5 -10 19 0 14 5 26 10 26 6 0 10 18 10 39 0 22 7 46 15 55 8
8 15 24 15 35 0 12 6 21 14 21 17 0 25 39 15 68 -5 13 -4 24 2 28 6 3 7 19 4
35 -5 22 -3 29 9 29 9 0 16 7 16 15 0 8 4 15 9 15 5 0 12 13 16 29 3 16 12 34
19 40 7 6 11 24 8 42 -3 22 -7 27 -13 18 -7 -12 -9 -12 -9 -1 0 8 9 16 20 19
21 6 27 28 10 38 -5 3 -10 13 -10 21 0 11 9 14 33 12 29 -3 33 -7 43 -48z
m1004 22 c12 -11 20 -34 21 -60 2 -30 7 -42 18 -42 12 0 16 -12 18 -52 1 -35
7 -54 17 -60 9 -5 16 -22 16 -38 0 -19 7 -33 20 -40 11 -6 20 -19 20 -29 0
-10 6 -24 14 -31 8 -6 16 -28 18 -48 2 -20 7 -36 13 -34 5 2 12 -5 16 -15 7
-17 8 -17 8 0 1 9 4 17 9 17 4 0 45 5 91 10 84 11 141 6 141 -11 0 -5 14 -22
30 -37 21 -19 27 -31 21 -41 -11 -16 -115 -28 -193 -21 l-56 5 35 -65 c43 -78
82 -140 87 -140 3 0 12 7 20 16 15 15 76 30 163 41 50 6 67 -7 88 -66 13 -38
13 -41 -5 -51 -11 -6 -20 -9 -20 -7 0 3 -26 -2 -57 -11 -32 -8 -79 -17 -105
-19 -46 -5 -59 -15 -38 -28 5 -3 26 -35 46 -71 20 -35 41 -70 48 -77 7 -7 18
-27 25 -44 7 -18 18 -33 23 -33 5 0 18 -19 29 -42 11 -24 23 -50 28 -58 4 -8
13 -25 20 -38 7 -13 21 -41 33 -63 20 -40 47 -67 35 -36 -3 9 -2 19 3 22 5 3
11 -3 13 -12 3 -12 5 -8 6 9 1 21 7 28 34 34 17 3 77 21 132 39 193 62 305 77
555 76 200 -1 243 -5 323 -32 31 -10 64 -19 72 -19 8 0 15 -6 15 -14 0 -8 9
-17 19 -21 11 -3 23 -15 26 -26 4 -10 13 -19 21 -19 8 0 14 -5 14 -10 0 -6 11
-22 25 -36 14 -14 27 -35 31 -49 3 -13 12 -26 20 -29 8 -3 14 -17 14 -30 0
-20 -4 -24 -17 -19 -31 11 -73 46 -79 65 -3 10 -12 18 -20 18 -8 0 -38 24 -67
54 -35 35 -64 55 -87 60 -81 16 -191 28 -270 30 -77 1 -85 -1 -83 -17 1 -17
-6 -18 -65 -17 -108 3 -152 1 -152 -9 0 -5 8 -11 18 -14 18 -4 -2 -8 -128 -27
-41 -6 -77 -15 -80 -19 -3 -5 -21 -9 -40 -9 -48 -1 -100 -13 -100 -23 0 -5 -6
-6 -14 -3 -7 3 -16 -2 -20 -11 -4 -10 -12 -15 -22 -11 -8 3 -12 2 -9 -4 3 -6
-1 -10 -10 -10 -8 0 -23 -4 -33 -9 -77 -39 -93 -45 -100 -35 -4 5 -19 26 -33
45 -15 19 -41 60 -59 93 -17 32 -38 65 -46 73 -8 8 -14 19 -14 24 0 6 -7 18
-16 26 -23 23 -158 229 -185 283 -12 25 -33 58 -46 74 -13 16 -22 35 -19 43 6
15 -27 87 -44 98 -6 4 -22 29 -35 56 -14 27 -29 49 -34 49 -8 0 -21 30 -25 56
-2 16 -40 89 -48 92 -5 2 -8 9 -8 17 0 7 -12 38 -26 69 -14 31 -23 64 -20 72
3 8 1 12 -4 9 -5 -3 -12 7 -16 22 -4 15 -11 31 -16 34 -5 3 -10 29 -10 57 -1
28 -5 49 -10 46 -5 -3 -8 20 -7 50 1 32 7 56 13 57 6 1 0 5 -14 9 -21 7 -18 8
18 9 28 1 49 -5 62 -17z m-1710 -1892 l0 -1170 -45 0 -45 0 0 1170 0 1170 45
0 45 0 0 -1170z m1843 963 c-15 -6 -17 -39 -3 -48 5 -3 7 0 4 8 -3 8 1 17 10
20 11 5 13 0 6 -23 -9 -33 13 -75 36 -66 10 4 14 -4 14 -28 0 -18 9 -54 20
-79 16 -35 24 -45 37 -40 11 4 13 8 5 11 -16 5 -16 112 -1 112 8 0 9 -13 5
-39 -3 -22 -2 -42 3 -46 5 -3 12 9 14 27 3 18 4 0 2 -41 -2 -42 -8 -77 -15
-81 -6 -4 -10 -11 -8 -16 1 -5 -12 -10 -29 -12 -18 -2 -33 -7 -33 -13 0 -5 -5
-9 -11 -9 -5 0 -7 5 -4 10 3 6 -4 10 -17 11 -13 0 -31 2 -40 4 -13 2 -18 -3
-18 -18 0 -18 2 -19 10 -7 8 12 10 10 10 -8 0 -15 4 -21 12 -16 6 4 8 3 4 -4
-3 -6 2 -13 11 -15 15 -4 15 -5 -2 -6 -37 -1 -57 24 -53 66 2 26 -1 37 -9 36
-8 -2 -13 7 -13 21 0 13 -7 27 -16 30 -10 4 -14 14 -11 25 3 13 -1 21 -14 24
-12 3 -19 14 -18 29 l0 23 9 -22 c5 -13 18 -23 29 -23 11 0 22 -8 24 -17 3
-10 5 -1 6 20 1 21 -4 37 -10 37 -8 0 -9 22 -4 73 7 73 21 98 54 96 11 0 12
-2 4 -6z m585 -11 c18 -12 52 -78 52 -101 0 -21 -12 -27 -90 -47 -76 -18 -86
-18 -115 11 -54 55 -26 104 73 131 57 15 64 16 80 6z m-270 -348 c15 -27 -10
-85 -45 -106 -17 -11 -34 -31 -38 -46 -4 -15 -10 -29 -14 -32 -17 -11 -51
-133 -51 -182 0 -53 18 -118 32 -118 4 0 8 -5 8 -10 0 -12 15 -32 43 -58 9 -9
17 -22 17 -29 0 -7 4 -13 10 -13 5 0 17 -9 27 -19 39 -41 183 -67 211 -39 7 7
12 10 13 7 0 -2 3 -32 6 -66 l5 -63 -60 0 c-34 0 -64 5 -67 10 -3 6 -14 10
-23 10 -10 0 -24 9 -32 20 -8 11 -23 20 -33 20 -10 0 -28 5 -39 11 -17 9 -18
13 -7 20 10 6 7 9 -11 9 -54 0 -147 106 -168 191 -24 97 -11 282 23 319 8 9
15 21 15 27 0 6 16 21 35 34 19 13 35 28 35 33 0 10 81 86 92 86 4 0 11 -7 16
-16z m-2314 -879 c0 -415 -3 -757 -7 -761 -4 -4 -7 336 -7 755 0 418 3 761 8
761 4 0 7 -340 6 -755z m2580 600 c8 -8 19 -15 25 -15 7 0 11 -22 11 -52 l-1
-53 -59 -27 c-66 -31 -96 -28 -118 13 -9 19 -9 36 1 79 l12 55 50 6 c28 3 53
7 57 7 4 1 13 -5 22 -13z m244 -87 c-3 -7 2 -19 9 -27 8 -7 12 -20 9 -27 -3
-8 -1 -14 4 -14 6 0 10 -5 10 -11 0 -5 -4 -7 -10 -4 -5 3 -10 1 -10 -4 0 -6 6
-11 13 -11 9 0 9 -2 -1 -9 -8 -4 -13 -12 -13 -17 1 -5 -4 -24 -10 -43 -8 -24
-14 -30 -20 -20 -5 9 -6 0 -3 -22 4 -22 2 -39 -5 -43 -7 -5 -8 -1 -4 10 4 12
3 15 -5 10 -7 -4 -12 -17 -12 -30 0 -12 -13 -35 -30 -51 -16 -16 -30 -23 -30
-17 0 7 -4 12 -10 12 -5 0 -9 -5 -7 -11 1 -6 -9 -13 -23 -15 -14 -3 -26 -9
-28 -14 -2 -6 -19 -10 -37 -10 -31 0 -35 3 -41 35 -6 33 4 54 31 66 29 13 85
52 85 60 0 5 11 9 24 9 13 0 27 8 30 18 19 50 46 80 46 52 0 -5 5 -10 11 -10
11 0 9 51 -3 60 -13 10 4 90 19 90 8 0 13 -6 11 -12z m-2092 -254 c-3 -8 1
-14 9 -14 8 0 15 5 15 11 0 8 4 8 13 2 17 -14 341 -9 407 6 77 18 130 21 130
7 -1 -18 -26 -46 -43 -46 -8 0 -17 -5 -19 -11 -3 -9 -55 -11 -178 -10 -149 1
-176 -1 -192 -15 -11 -10 -18 -12 -18 -6 0 17 -50 15 -56 -3 -4 -8 -10 -12
-15 -9 -5 3 -7 11 -3 17 3 7 -2 3 -12 -8 -16 -20 -16 -20 -11 3 5 21 3 23 -38
21 -24 -2 -43 -7 -42 -12 1 -5 -4 -12 -12 -15 -10 -3 -12 0 -8 12 4 10 2 26
-3 37 -11 20 -4 24 30 19 8 -1 12 2 7 6 -6 6 -17 9 -60 13 -5 1 -6 4 -4 9 3 4
28 5 57 3 39 -2 50 -6 46 -17z m2402 -8 c3 -3 2 -9 -2 -13 -4 -4 -11 -1 -16 7
-18 28 -10 1 9 -32 11 -18 22 -61 26 -94 6 -57 5 -63 -20 -88 -29 -29 -45 -33
-45 -12 0 7 -7 20 -17 27 -32 27 -55 98 -48 148 4 25 11 51 17 58 9 12 84 11
96 -1z m-215 -76 c9 -11 17 -33 18 -48 0 -24 1 -25 9 -7 7 17 9 14 9 -13 1
-23 12 -46 35 -73 22 -26 32 -47 29 -59 -3 -12 1 -22 11 -26 12 -4 16 -19 16
-54 0 -27 4 -51 9 -55 6 -3 10 -13 10 -23 0 -42 15 -104 27 -109 7 -2 18 -30
25 -61 18 -89 29 -120 44 -126 9 -3 12 0 8 10 -3 7 -1 14 4 14 5 0 9 16 9 37
-1 52 21 54 26 1 3 -24 8 -51 13 -61 7 -18 0 -18 -134 -15 -77 2 -141 1 -141
-2 0 -3 -29 -6 -64 -6 -45 -1 -70 -6 -81 -17 -8 -9 -22 -14 -30 -11 -7 3 -23
0 -36 -6 -21 -12 -21 -11 -15 24 8 41 0 79 -15 71 -5 -4 -9 7 -9 24 0 16 -4
32 -9 35 -5 4 -7 -4 -4 -16 4 -19 3 -20 -6 -8 -6 8 -11 25 -11 38 0 12 -5 21
-12 20 -14 -3 -12 53 2 62 4 3 6 13 4 23 -1 11 4 17 17 17 10 0 18 -3 18 -7
-1 -5 -1 -15 0 -23 1 -12 4 -12 12 3 5 9 16 17 24 17 8 0 11 7 9 18 -4 14 -16
17 -65 17 -40 0 -59 -4 -59 -12 0 -7 -4 -13 -10 -13 -5 0 -7 6 -4 14 3 7 -2
16 -10 19 -11 4 -14 -1 -12 -21 2 -15 8 -28 15 -28 6 -1 15 -2 20 -3 6 -1 6
-13 0 -31 -8 -23 -16 -29 -32 -26 -12 3 -24 5 -26 5 -2 1 9 12 24 25 23 20 25
24 9 23 -13 -2 -20 7 -24 28 -3 17 -11 29 -17 28 -7 -2 -10 6 -8 18 5 22 -14
69 -27 69 -4 0 -8 -8 -8 -17 0 -12 -5 -8 -16 12 -8 17 -13 40 -9 55 3 15 2 20
-3 12 -6 -9 -12 -6 -20 13 -7 14 -12 32 -12 40 0 8 -6 15 -12 16 -7 0 -3 4 9
9 12 5 54 9 92 9 38 0 79 4 89 10 11 6 37 13 58 15 22 3 45 13 54 25 21 28
140 121 154 121 6 0 19 -9 29 -20z m-1877 -252 c-8 -39 -8 -40 -46 -43 -17 -1
-33 -5 -36 -8 -4 -3 32 -4 79 0 51 3 97 2 116 -5 17 -6 33 -7 36 -2 3 5 -5 11
-17 13 -13 3 0 5 27 4 28 0 59 -4 70 -9 18 -8 18 -8 -2 -4 -13 2 -23 0 -23 -5
0 -6 -6 -9 -12 -8 -27 3 -38 -2 -38 -16 0 -8 -4 -15 -9 -15 -5 0 -11 7 -15 15
-6 16 -36 21 -36 5 0 -5 8 -7 18 -4 9 4 4 -3 -13 -15 l-30 -21 60 5 c56 4 57
4 20 -6 -61 -15 -505 -24 -505 -10 0 7 -22 11 -60 11 -53 0 -60 2 -60 20 0 11
-5 20 -11 20 -12 0 -43 29 -37 35 2 2 99 1 215 -3 167 -6 209 -4 206 6 -3 7 3
12 16 12 12 0 21 6 21 14 0 18 33 15 42 -4 5 -11 7 -9 7 8 1 18 -5 22 -31 23
-31 1 -32 1 -8 9 53 17 63 13 56 -22z m-236 -277 c0 -5 -6 -12 -12 -14 -7 -3
-1 -6 15 -6 26 -1 28 -4 31 -51 1 -11 16 -16 64 -18 l62 -3 0 -34 c0 -19 -4
-35 -8 -35 -5 0 -8 10 -8 23 1 12 -4 21 -11 20 -7 -2 -13 1 -13 6 0 5 -9 7
-19 4 -16 -4 -18 -9 -10 -36 12 -43 11 -47 -6 -17 -8 14 -14 20 -15 13 0 -7
-7 -10 -15 -7 -8 4 -15 1 -15 -5 0 -7 -7 -7 -24 0 -14 7 -37 8 -53 4 -26 -7
-26 -8 -8 -16 15 -6 11 -8 -17 -7 -36 2 -38 4 -38 36 0 27 3 33 16 28 9 -3 12
-2 9 5 -4 6 2 13 14 16 22 6 27 18 12 27 -5 4 -12 0 -14 -6 -3 -7 -6 4 -6 25
-1 23 -5 36 -11 32 -5 -3 -10 -2 -10 4 0 5 15 12 33 14 17 2 38 5 45 5 6 1 12
-2 12 -7z m2466 -205 c8 -14 17 -33 19 -43 1 -10 7 -17 13 -16 17 4 10 -38 -8
-47 -8 -4 -80 -10 -160 -14 -80 -4 -146 -11 -148 -16 -2 -6 -10 -10 -18 -10
-8 0 -14 -7 -14 -15 0 -9 -6 -12 -17 -8 -12 5 -14 3 -8 -7 6 -10 -2 -12 -41
-8 -27 3 -56 8 -64 12 -11 5 -15 0 -15 -18 0 -13 3 -22 8 -19 4 2 7 -7 7 -20
0 -19 -5 -24 -23 -22 -21 3 -26 -4 -42 -59 -17 -57 -29 -75 -48 -76 -4 0 -5
12 -2 28 4 22 4 23 -4 7 l-9 -20 -7 20 c-4 11 -11 30 -16 43 -12 30 -12 79 1
87 6 3 10 17 10 31 0 15 6 24 15 24 8 0 15 9 15 19 0 10 7 21 15 25 8 3 15 13
15 23 0 15 2 16 10 3 8 -13 10 -12 10 3 0 10 4 16 8 13 4 -2 14 9 21 25 10 24
17 28 39 24 15 -3 22 -3 15 1 -7 3 -9 12 -6 20 3 7 9 11 14 8 5 -3 9 2 9 10 0
14 25 16 195 16 l195 0 16 -24z m-2306 -17 c0 -35 -24 -49 -82 -48 -49 2 -50
2 -18 9 62 13 9 16 -80 5 -65 -9 -76 -8 -112 1 -23 5 -28 3 -28 -11 0 -15 8
-17 60 -13 57 4 60 3 60 -19 0 -22 14 -28 68 -26 6 1 12 -5 12 -13 0 -8 3 -13
8 -13 18 3 33 -2 28 -9 -3 -5 6 -15 19 -22 28 -15 35 -43 9 -33 -12 4 -15 2
-12 -8 3 -8 29 -19 59 -24 30 -6 48 -13 40 -16 -9 -3 -3 -10 17 -18 22 -9 32
-20 32 -35 0 -17 -2 -18 -10 -6 -8 13 -10 12 -10 -3 0 -9 -11 -22 -24 -28 -14
-7 -22 -17 -19 -25 3 -8 -1 -14 -11 -14 -9 0 -16 8 -16 18 0 10 -9 24 -20 32
-11 8 -20 20 -20 28 0 7 -4 10 -10 7 -5 -3 -10 1 -10 9 0 10 -9 16 -25 16 -16
0 -25 6 -25 15 0 8 -7 15 -15 15 -8 0 -15 4 -15 10 0 5 -11 12 -25 16 -14 3
-25 11 -25 18 0 17 -49 36 -94 36 -21 0 -36 3 -32 7 4 4 24 7 44 6 32 -2 34
-1 12 7 -14 4 -38 9 -55 10 -29 2 -29 2 -5 9 l25 7 -23 6 c-31 8 -60 -1 -41
-13 21 -12 8 -15 -36 -8 -22 3 -31 7 -19 8 17 1 21 8 22 40 2 37 0 39 -25 36
-15 -1 -33 4 -41 12 -13 12 -11 13 9 9 72 -15 108 -16 104 -3 -4 9 10 13 51
13 38 0 59 5 64 15 7 11 32 13 124 11 109 -3 116 -5 116 -23z m2342 -371 c14
-48 15 -53 18 -88 2 -24 3 -24 10 5 l8 30 1 -34 c1 -23 5 -32 14 -28 7 3 19
-4 26 -14 6 -11 16 -17 21 -14 6 3 10 -1 10 -9 0 -9 5 -16 11 -16 5 0 7 -5 3
-11 -4 -8 0 -9 15 -4 19 6 21 3 20 -32 0 -21 -3 -32 -6 -25 -2 6 -9 12 -15 12
-6 0 -5 -6 2 -15 13 -16 34 -15 36 1 0 5 6 22 12 37 7 16 10 32 7 37 -3 5 2
16 11 24 8 9 11 16 5 16 -5 0 -12 -4 -16 -10 -3 -5 -12 -7 -20 -3 -9 3 -15 -1
-15 -11 0 -20 -14 -21 -30 -1 -11 13 -10 15 6 10 13 -4 12 -2 -3 6 -13 7 -23
16 -23 21 0 5 5 6 10 3 6 -3 10 0 10 8 0 8 -7 17 -15 21 -8 3 -15 10 -15 16 0
13 60 70 74 70 6 0 4 -5 -4 -10 -19 -12 -22 -50 -4 -50 8 0 14 -4 14 -10 0 -5
6 -10 13 -10 18 0 49 -39 41 -52 -4 -6 -3 -8 3 -5 12 7 23 -14 23 -43 0 -14 9
-20 33 -22 26 -2 33 -8 35 -30 2 -15 11 -29 20 -31 10 -3 7 -5 -9 -6 -34 -1
-58 -27 -32 -34 15 -4 14 -5 -4 -6 -12 0 -23 -6 -25 -12 -2 -6 -23 -13 -47
-15 -34 -2 -41 0 -37 12 3 8 1 14 -4 14 -6 0 -10 -6 -10 -13 0 -11 -27 -13
-132 -11 -73 2 -135 0 -138 -5 -3 -4 -18 -11 -33 -15 -23 -5 -30 -3 -34 12 -3
15 -17 21 -56 26 -33 5 -46 10 -38 16 10 6 9 9 -8 15 -25 8 -27 30 -5 53 15
14 15 17 0 27 -23 17 -20 23 9 21 14 0 25 -5 25 -10 0 -6 7 -1 15 10 8 10 14
26 14 34 0 10 -2 11 -6 3 -2 -7 -11 -13 -19 -13 -8 0 -14 -4 -14 -10 0 -6 -9
-6 -25 0 -19 7 -25 6 -25 -5 0 -7 -9 -17 -20 -20 -12 -4 -17 -11 -14 -18 4 -7
3 -8 -2 -4 -5 5 -9 18 -9 30 0 18 -7 23 -45 28 -25 4 -51 2 -57 -3 -19 -15
-16 -4 5 19 23 27 54 42 93 47 38 4 52 26 17 27 -20 0 -20 2 7 11 17 6 32 14
35 19 10 14 94 39 100 28 4 -5 15 0 26 12 25 28 50 38 101 38 41 1 43 0 55
-41z m-698 16 c9 -3 16 -12 16 -20 0 -7 22 -35 49 -62 l48 -48 -4 -65 c-3 -35
-6 -65 -7 -66 -1 -1 -17 11 -35 28 -19 16 -39 29 -46 29 -7 0 -15 9 -18 19 -4
15 -10 18 -28 14 -17 -5 -21 -3 -17 9 4 9 0 14 -13 14 -10 -1 -18 2 -19 7 0 4
0 30 0 57 0 44 2 50 21 50 12 0 23 8 26 20 6 22 6 22 27 14z m-1964 -63 c0
-11 5 -21 12 -23 7 -3 2 -13 -13 -27 -20 -19 -34 -22 -86 -20 -35 1 -66 -1
-70 -4 -3 -4 2 -7 13 -7 14 0 16 -3 6 -9 -7 -4 -23 -7 -35 -6 -13 1 -15 0 -4
-2 20 -5 21 -10 4 -27 -21 -21 -76 -34 -175 -41 -79 -6 -96 -5 -112 10 -17 15
-19 15 -29 -2 -9 -17 -10 -17 -24 2 -18 24 -11 45 14 45 10 0 19 5 19 10 0 6
-13 10 -30 10 -16 0 -30 5 -30 10 0 9 28 13 93 13 15 0 27 4 27 9 0 5 4 7 10
3 5 -3 7 -12 3 -20 -3 -10 1 -15 15 -15 12 0 24 -4 27 -10 3 -5 27 -10 53 -10
35 0 43 3 32 10 -11 7 -2 8 28 4 28 -4 42 -3 42 4 0 6 -8 9 -17 6 -10 -3 -3 3
15 13 18 11 29 23 25 27 -4 4 1 7 12 5 32 -5 75 10 75 26 0 8 5 15 11 15 5 0
7 5 4 10 -4 6 12 10 39 10 39 0 46 -3 46 -19z m788 -193 c2 -21 0 -38 -5 -38
-5 0 -8 15 -8 33 0 30 -2 32 -37 35 l-38 3 23 -25 c19 -22 23 -23 29 -8 5 13
7 10 7 -10 1 -35 -10 -38 -151 -33 -108 3 -155 -5 -113 -21 21 -9 0 -34 -29
-34 -17 0 -18 -2 -6 -10 8 -5 11 -12 8 -15 -4 -4 -12 2 -18 12 -11 16 -21 18
-71 15 -39 -3 -59 -1 -59 7 0 6 -13 11 -30 11 -30 0 -41 -14 -17 -23 7 -3 5
-6 -5 -6 -10 -1 -18 6 -18 14 0 8 -5 15 -12 15 -6 0 -1 9 11 19 28 24 103 35
181 26 38 -4 60 -3 60 3 0 5 12 13 27 17 15 3 31 12 35 18 4 7 34 12 73 12 49
0 64 3 60 13 -4 10 8 12 48 10 l52 -3 3 -37z m-1556 -112 c3 -30 4 -31 50 -28
25 2 49 -2 53 -8 4 -6 73 -10 190 -10 129 0 184 -3 187 -11 5 -16 118 -15 128
1 5 8 23 11 48 8 22 -2 38 0 36 3 -5 9 92 23 104 15 6 -3 12 2 14 12 3 10 16
18 32 20 15 1 40 9 56 17 16 8 43 15 61 15 34 0 36 -8 3 -13 -11 -1 -33 -17
-50 -35 -17 -17 -36 -32 -43 -32 -6 0 -11 -6 -11 -14 0 -9 -7 -12 -21 -9 -11
3 -31 0 -44 -7 -13 -7 -39 -11 -58 -8 -21 2 -33 0 -30 -6 4 -5 -14 -6 -45 -2
-36 5 -52 3 -52 -4 0 -7 -14 -10 -35 -8 -20 1 -39 -3 -43 -9 -4 -6 -14 -11
-22 -11 -40 3 -60 -3 -60 -17 0 -16 -10 -18 -80 -15 -25 1 -48 6 -51 12 -3 5
-55 12 -115 14 -130 6 -157 11 -148 26 4 6 3 8 -4 4 -6 -3 -31 1 -56 9 -25 8
-51 14 -58 13 -9 -2 -14 13 -16 52 l-3 55 40 1 c38 1 40 0 43 -30z"/>
<path d="M4609 13115 l-26 -14 3 -153 c2 -84 4 -163 4 -175 0 -22 4 -23 68
-23 40 0 73 5 80 12 8 8 12 62 12 176 0 145 -2 166 -17 178 -23 17 -91 17
-124 -1z"/>
<path d="M5460 12800 l0 -70 39 0 c22 0 51 -4 64 -9 29 -11 37 0 37 53 0 48
-23 73 -80 85 -28 6 -53 11 -55 11 -3 0 -5 -31 -5 -70z"/>
<path d="M6187 12683 c-12 -12 -7 -90 7 -102 7 -6 34 -14 59 -17 43 -6 47 -5
58 19 16 36 4 74 -31 92 -30 15 -82 20 -93 8z"/>
<path d="M6632 12644 l3 -159 52 -14 c80 -21 83 -16 83 142 0 126 -1 130 -26
153 -14 13 -35 24 -47 24 -12 0 -32 3 -45 6 l-23 6 3 -158z"/>
<path d="M5590 11829 c0 -3 -17 -13 -39 -22 -32 -15 -39 -23 -45 -55 -11 -66
-6 -113 12 -140 10 -15 22 -35 25 -44 4 -10 13 -18 22 -18 8 0 15 -4 15 -8 0
-5 15 -17 33 -27 25 -13 49 -17 100 -13 71 4 92 18 119 79 7 16 16 29 20 29 7
0 23 59 20 73 -1 4 3 7 9 7 5 0 7 5 4 10 -3 6 -2 10 3 10 6 0 13 11 16 25 5
21 11 24 34 19 21 -4 24 -3 12 5 -14 10 -10 12 15 11 10 -1 35 28 35 41 0 8
-3 9 -13 0 -8 -6 -18 -7 -22 -3 -5 4 -5 1 -1 -5 5 -10 -6 -13 -43 -13 -28 0
-51 4 -51 9 0 4 -23 11 -51 14 -28 4 -57 11 -64 17 -14 11 -165 10 -165 -1z"/>
<path d="M6165 11800 c4 -6 -7 -10 -24 -10 -17 0 -31 -4 -31 -10 0 -5 -3 -9
-8 -7 -13 4 -59 -38 -80 -73 l-20 -33 -5 29 c-2 16 -5 0 -5 -36 -2 -55 3 -73
28 -117 17 -29 35 -53 41 -53 6 0 17 -7 25 -15 10 -10 35 -15 69 -15 72 0 147
38 162 83 34 98 27 162 -23 213 -21 20 -45 34 -59 34 -14 0 -25 5 -25 10 0 6
-12 10 -26 10 -14 0 -23 -4 -19 -10z m-25 -100 c0 -5 13 -7 30 -4 19 4 38 1
55 -10 22 -14 25 -24 25 -70 0 -48 -3 -57 -31 -80 -17 -14 -43 -26 -58 -26
-32 0 -78 40 -87 75 -8 32 14 105 31 105 8 0 15 5 15 10 0 6 5 10 10 10 6 0
10 -4 10 -10z"/>
</g>
</svg>
