<svg xmlns="http://www.w3.org/2000/svg" width="48" height="48" viewBox="0 0 48 48" role="img" aria-label="Kolb-Bot">
  <rect width="48" height="48" rx="6" fill="#2d1b4e"/>
  <!-- Pirate hat -->
  <path d="M10 18c2-6 8-10 14-10s12 4 14 10H10z" fill="#4a1d96"/>
  <path d="M14 18h20v2H14z" fill="#d4a017"/>
  <!-- Skull on hat -->
  <circle cx="24" cy="13" r="3" fill="#e0e0e0"/>
  <circle cx="22.5" cy="12.5" r="0.7" fill="#2d1b4e"/>
  <circle cx="25.5" cy="12.5" r="0.7" fill="#2d1b4e"/>
  <!-- Face -->
  <circle cx="24" cy="26" r="9" fill="#c0a080"/>
  <!-- Eye patch -->
  <circle cx="20" cy="24" r="3" fill="#1a1a1a"/>
  <line x1="17" y1="22" x2="30" y2="18" stroke="#1a1a1a" stroke-width="1.5"/>
  <!-- Good eye (robotic) -->
  <circle cx="28" cy="24" r="2.5" fill="#d4a017"/>
  <circle cx="28" cy="24" r="1" fill="#ff4444"/>
  <!-- Metal jaw -->
  <path d="M18 30c2 2 5 3 6 3s4-1 6-3" fill="none" stroke="#888" stroke-width="1.5"/>
  <rect x="19" y="29" width="10" height="3" rx="1" fill="#999" opacity="0.6"/>
</svg>
